G04 #@! TF.GenerationSoftware,KiCad,Pcbnew,5.1.5*
G04 #@! TF.CreationDate,2020-01-21T16:39:42-05:00*
G04 #@! TF.ProjectId,rpn_mxb,72706e5f-6d78-4622-9e6b-696361645f70,rev?*
G04 #@! TF.SameCoordinates,Original*
G04 #@! TF.FileFunction,Copper,L1,Top*
G04 #@! TF.FilePolarity,Positive*
%FSLAX46Y46*%
G04 Gerber Fmt 4.6, Leading zero omitted, Abs format (unit mm)*
G04 Created by KiCad (PCBNEW 5.1.5) date 2020-01-21 16:39:42*
%MOMM*%
%LPD*%
G04 APERTURE LIST*
%ADD10C,2.200000*%
%ADD11C,1.500000*%
%ADD12O,1.700000X1.700000*%
%ADD13R,1.700000X1.700000*%
%ADD14R,0.600000X2.000000*%
%ADD15C,2.340000*%
%ADD16O,1.000000X1.000000*%
%ADD17R,1.000000X1.000000*%
%ADD18C,0.100000*%
%ADD19O,1.700000X2.000000*%
%ADD20R,2.000000X1.350000*%
%ADD21R,0.700000X1.825000*%
%ADD22R,1.500000X2.000000*%
%ADD23R,1.650000X0.400000*%
%ADD24O,1.500000X1.100000*%
%ADD25O,1.700000X1.350000*%
%ADD26R,2.500000X1.430000*%
%ADD27R,0.650000X1.560000*%
%ADD28C,0.800000*%
%ADD29C,0.508000*%
%ADD30C,0.250000*%
%ADD31C,0.254000*%
G04 APERTURE END LIST*
D10*
X157480000Y-147320000D03*
X151130000Y-149860000D03*
D11*
X160709000Y-40259000D03*
X155829000Y-40259000D03*
D12*
X174599600Y-55549800D03*
X174599600Y-53009800D03*
X174599600Y-50469800D03*
X174599600Y-47929800D03*
D13*
X174599600Y-45389800D03*
D14*
X169037000Y-54357000D03*
X167767000Y-54357000D03*
X166497000Y-54357000D03*
X165227000Y-54357000D03*
X163957000Y-54357000D03*
X162687000Y-54357000D03*
X161417000Y-54357000D03*
X160147000Y-54357000D03*
X158877000Y-54357000D03*
X157607000Y-54357000D03*
X156337000Y-54357000D03*
X155067000Y-54357000D03*
X153797000Y-54357000D03*
X152527000Y-54357000D03*
X152527000Y-44957000D03*
X153797000Y-44957000D03*
X155067000Y-44957000D03*
X156337000Y-44957000D03*
X157607000Y-44957000D03*
X158877000Y-44957000D03*
X160147000Y-44957000D03*
X161417000Y-44957000D03*
X162687000Y-44957000D03*
X163957000Y-44957000D03*
X165227000Y-44957000D03*
X166497000Y-44957000D03*
X167767000Y-44957000D03*
X169037000Y-44957000D03*
D10*
X171450000Y-149860000D03*
X177800000Y-147320000D03*
X130810000Y-149860000D03*
X137160000Y-147320000D03*
X110490000Y-149860000D03*
X116840000Y-147320000D03*
X171450000Y-129540000D03*
X177800000Y-127000000D03*
X151130000Y-129540000D03*
X157480000Y-127000000D03*
X130810000Y-129540000D03*
X137160000Y-127000000D03*
X110490000Y-129540000D03*
X116840000Y-127000000D03*
X171450000Y-109220000D03*
X177800000Y-106680000D03*
X151130000Y-109220000D03*
X157480000Y-106680000D03*
X130810000Y-109220000D03*
X137160000Y-106680000D03*
X110490000Y-109220000D03*
X116840000Y-106680000D03*
X171450000Y-88900000D03*
X177800000Y-86360000D03*
X151130000Y-88900000D03*
X157480000Y-86360000D03*
X130810000Y-88900000D03*
X137160000Y-86360000D03*
X110490000Y-88900000D03*
X116840000Y-86360000D03*
X171450000Y-68580000D03*
X177800000Y-66040000D03*
X151130000Y-68580000D03*
X157480000Y-66040000D03*
X130810000Y-68580000D03*
X137160000Y-66040000D03*
X110490000Y-68580000D03*
X116840000Y-66040000D03*
D15*
X125636000Y-41148000D03*
X135636000Y-38648000D03*
X125636000Y-36148000D03*
D16*
X148590000Y-39370000D03*
X148590000Y-40640000D03*
X147320000Y-39370000D03*
X147320000Y-40640000D03*
X146050000Y-39370000D03*
X146050000Y-40640000D03*
X144780000Y-39370000D03*
X144780000Y-40640000D03*
X143510000Y-39370000D03*
X143510000Y-40640000D03*
X142240000Y-39370000D03*
X142240000Y-40640000D03*
X140970000Y-39370000D03*
X140970000Y-40640000D03*
X139700000Y-39370000D03*
D17*
X139700000Y-40640000D03*
G04 #@! TA.AperFunction,SMDPad,CuDef*
D18*
G36*
X159607505Y-57848204D02*
G01*
X159631773Y-57851804D01*
X159655572Y-57857765D01*
X159678671Y-57866030D01*
X159700850Y-57876520D01*
X159721893Y-57889132D01*
X159741599Y-57903747D01*
X159759777Y-57920223D01*
X159776253Y-57938401D01*
X159790868Y-57958107D01*
X159803480Y-57979150D01*
X159813970Y-58001329D01*
X159822235Y-58024428D01*
X159828196Y-58048227D01*
X159831796Y-58072495D01*
X159833000Y-58096999D01*
X159833000Y-58997001D01*
X159831796Y-59021505D01*
X159828196Y-59045773D01*
X159822235Y-59069572D01*
X159813970Y-59092671D01*
X159803480Y-59114850D01*
X159790868Y-59135893D01*
X159776253Y-59155599D01*
X159759777Y-59173777D01*
X159741599Y-59190253D01*
X159721893Y-59204868D01*
X159700850Y-59217480D01*
X159678671Y-59227970D01*
X159655572Y-59236235D01*
X159631773Y-59242196D01*
X159607505Y-59245796D01*
X159583001Y-59247000D01*
X158932999Y-59247000D01*
X158908495Y-59245796D01*
X158884227Y-59242196D01*
X158860428Y-59236235D01*
X158837329Y-59227970D01*
X158815150Y-59217480D01*
X158794107Y-59204868D01*
X158774401Y-59190253D01*
X158756223Y-59173777D01*
X158739747Y-59155599D01*
X158725132Y-59135893D01*
X158712520Y-59114850D01*
X158702030Y-59092671D01*
X158693765Y-59069572D01*
X158687804Y-59045773D01*
X158684204Y-59021505D01*
X158683000Y-58997001D01*
X158683000Y-58096999D01*
X158684204Y-58072495D01*
X158687804Y-58048227D01*
X158693765Y-58024428D01*
X158702030Y-58001329D01*
X158712520Y-57979150D01*
X158725132Y-57958107D01*
X158739747Y-57938401D01*
X158756223Y-57920223D01*
X158774401Y-57903747D01*
X158794107Y-57889132D01*
X158815150Y-57876520D01*
X158837329Y-57866030D01*
X158860428Y-57857765D01*
X158884227Y-57851804D01*
X158908495Y-57848204D01*
X158932999Y-57847000D01*
X159583001Y-57847000D01*
X159607505Y-57848204D01*
G37*
G04 #@! TD.AperFunction*
G04 #@! TA.AperFunction,SMDPad,CuDef*
G36*
X157557505Y-57848204D02*
G01*
X157581773Y-57851804D01*
X157605572Y-57857765D01*
X157628671Y-57866030D01*
X157650850Y-57876520D01*
X157671893Y-57889132D01*
X157691599Y-57903747D01*
X157709777Y-57920223D01*
X157726253Y-57938401D01*
X157740868Y-57958107D01*
X157753480Y-57979150D01*
X157763970Y-58001329D01*
X157772235Y-58024428D01*
X157778196Y-58048227D01*
X157781796Y-58072495D01*
X157783000Y-58096999D01*
X157783000Y-58997001D01*
X157781796Y-59021505D01*
X157778196Y-59045773D01*
X157772235Y-59069572D01*
X157763970Y-59092671D01*
X157753480Y-59114850D01*
X157740868Y-59135893D01*
X157726253Y-59155599D01*
X157709777Y-59173777D01*
X157691599Y-59190253D01*
X157671893Y-59204868D01*
X157650850Y-59217480D01*
X157628671Y-59227970D01*
X157605572Y-59236235D01*
X157581773Y-59242196D01*
X157557505Y-59245796D01*
X157533001Y-59247000D01*
X156882999Y-59247000D01*
X156858495Y-59245796D01*
X156834227Y-59242196D01*
X156810428Y-59236235D01*
X156787329Y-59227970D01*
X156765150Y-59217480D01*
X156744107Y-59204868D01*
X156724401Y-59190253D01*
X156706223Y-59173777D01*
X156689747Y-59155599D01*
X156675132Y-59135893D01*
X156662520Y-59114850D01*
X156652030Y-59092671D01*
X156643765Y-59069572D01*
X156637804Y-59045773D01*
X156634204Y-59021505D01*
X156633000Y-58997001D01*
X156633000Y-58096999D01*
X156634204Y-58072495D01*
X156637804Y-58048227D01*
X156643765Y-58024428D01*
X156652030Y-58001329D01*
X156662520Y-57979150D01*
X156675132Y-57958107D01*
X156689747Y-57938401D01*
X156706223Y-57920223D01*
X156724401Y-57903747D01*
X156744107Y-57889132D01*
X156765150Y-57876520D01*
X156787329Y-57866030D01*
X156810428Y-57857765D01*
X156834227Y-57851804D01*
X156858495Y-57848204D01*
X156882999Y-57847000D01*
X157533001Y-57847000D01*
X157557505Y-57848204D01*
G37*
G04 #@! TD.AperFunction*
G04 #@! TA.AperFunction,ComponentPad*
G36*
X118480504Y-34561204D02*
G01*
X118504773Y-34564804D01*
X118528571Y-34570765D01*
X118551671Y-34579030D01*
X118573849Y-34589520D01*
X118594893Y-34602133D01*
X118614598Y-34616747D01*
X118632777Y-34633223D01*
X118649253Y-34651402D01*
X118663867Y-34671107D01*
X118676480Y-34692151D01*
X118686970Y-34714329D01*
X118695235Y-34737429D01*
X118701196Y-34761227D01*
X118704796Y-34785496D01*
X118706000Y-34810000D01*
X118706000Y-36310000D01*
X118704796Y-36334504D01*
X118701196Y-36358773D01*
X118695235Y-36382571D01*
X118686970Y-36405671D01*
X118676480Y-36427849D01*
X118663867Y-36448893D01*
X118649253Y-36468598D01*
X118632777Y-36486777D01*
X118614598Y-36503253D01*
X118594893Y-36517867D01*
X118573849Y-36530480D01*
X118551671Y-36540970D01*
X118528571Y-36549235D01*
X118504773Y-36555196D01*
X118480504Y-36558796D01*
X118456000Y-36560000D01*
X117256000Y-36560000D01*
X117231496Y-36558796D01*
X117207227Y-36555196D01*
X117183429Y-36549235D01*
X117160329Y-36540970D01*
X117138151Y-36530480D01*
X117117107Y-36517867D01*
X117097402Y-36503253D01*
X117079223Y-36486777D01*
X117062747Y-36468598D01*
X117048133Y-36448893D01*
X117035520Y-36427849D01*
X117025030Y-36405671D01*
X117016765Y-36382571D01*
X117010804Y-36358773D01*
X117007204Y-36334504D01*
X117006000Y-36310000D01*
X117006000Y-34810000D01*
X117007204Y-34785496D01*
X117010804Y-34761227D01*
X117016765Y-34737429D01*
X117025030Y-34714329D01*
X117035520Y-34692151D01*
X117048133Y-34671107D01*
X117062747Y-34651402D01*
X117079223Y-34633223D01*
X117097402Y-34616747D01*
X117117107Y-34602133D01*
X117138151Y-34589520D01*
X117160329Y-34579030D01*
X117183429Y-34570765D01*
X117207227Y-34564804D01*
X117231496Y-34561204D01*
X117256000Y-34560000D01*
X118456000Y-34560000D01*
X118480504Y-34561204D01*
G37*
G04 #@! TD.AperFunction*
D19*
X120356000Y-35560000D03*
G04 #@! TA.AperFunction,SMDPad,CuDef*
D18*
G36*
X117198505Y-47561204D02*
G01*
X117222773Y-47564804D01*
X117246572Y-47570765D01*
X117269671Y-47579030D01*
X117291850Y-47589520D01*
X117312893Y-47602132D01*
X117332599Y-47616747D01*
X117350777Y-47633223D01*
X117367253Y-47651401D01*
X117381868Y-47671107D01*
X117394480Y-47692150D01*
X117404970Y-47714329D01*
X117413235Y-47737428D01*
X117419196Y-47761227D01*
X117422796Y-47785495D01*
X117424000Y-47809999D01*
X117424000Y-48710001D01*
X117422796Y-48734505D01*
X117419196Y-48758773D01*
X117413235Y-48782572D01*
X117404970Y-48805671D01*
X117394480Y-48827850D01*
X117381868Y-48848893D01*
X117367253Y-48868599D01*
X117350777Y-48886777D01*
X117332599Y-48903253D01*
X117312893Y-48917868D01*
X117291850Y-48930480D01*
X117269671Y-48940970D01*
X117246572Y-48949235D01*
X117222773Y-48955196D01*
X117198505Y-48958796D01*
X117174001Y-48960000D01*
X116523999Y-48960000D01*
X116499495Y-48958796D01*
X116475227Y-48955196D01*
X116451428Y-48949235D01*
X116428329Y-48940970D01*
X116406150Y-48930480D01*
X116385107Y-48917868D01*
X116365401Y-48903253D01*
X116347223Y-48886777D01*
X116330747Y-48868599D01*
X116316132Y-48848893D01*
X116303520Y-48827850D01*
X116293030Y-48805671D01*
X116284765Y-48782572D01*
X116278804Y-48758773D01*
X116275204Y-48734505D01*
X116274000Y-48710001D01*
X116274000Y-47809999D01*
X116275204Y-47785495D01*
X116278804Y-47761227D01*
X116284765Y-47737428D01*
X116293030Y-47714329D01*
X116303520Y-47692150D01*
X116316132Y-47671107D01*
X116330747Y-47651401D01*
X116347223Y-47633223D01*
X116365401Y-47616747D01*
X116385107Y-47602132D01*
X116406150Y-47589520D01*
X116428329Y-47579030D01*
X116451428Y-47570765D01*
X116475227Y-47564804D01*
X116499495Y-47561204D01*
X116523999Y-47560000D01*
X117174001Y-47560000D01*
X117198505Y-47561204D01*
G37*
G04 #@! TD.AperFunction*
G04 #@! TA.AperFunction,SMDPad,CuDef*
G36*
X115148505Y-47561204D02*
G01*
X115172773Y-47564804D01*
X115196572Y-47570765D01*
X115219671Y-47579030D01*
X115241850Y-47589520D01*
X115262893Y-47602132D01*
X115282599Y-47616747D01*
X115300777Y-47633223D01*
X115317253Y-47651401D01*
X115331868Y-47671107D01*
X115344480Y-47692150D01*
X115354970Y-47714329D01*
X115363235Y-47737428D01*
X115369196Y-47761227D01*
X115372796Y-47785495D01*
X115374000Y-47809999D01*
X115374000Y-48710001D01*
X115372796Y-48734505D01*
X115369196Y-48758773D01*
X115363235Y-48782572D01*
X115354970Y-48805671D01*
X115344480Y-48827850D01*
X115331868Y-48848893D01*
X115317253Y-48868599D01*
X115300777Y-48886777D01*
X115282599Y-48903253D01*
X115262893Y-48917868D01*
X115241850Y-48930480D01*
X115219671Y-48940970D01*
X115196572Y-48949235D01*
X115172773Y-48955196D01*
X115148505Y-48958796D01*
X115124001Y-48960000D01*
X114473999Y-48960000D01*
X114449495Y-48958796D01*
X114425227Y-48955196D01*
X114401428Y-48949235D01*
X114378329Y-48940970D01*
X114356150Y-48930480D01*
X114335107Y-48917868D01*
X114315401Y-48903253D01*
X114297223Y-48886777D01*
X114280747Y-48868599D01*
X114266132Y-48848893D01*
X114253520Y-48827850D01*
X114243030Y-48805671D01*
X114234765Y-48782572D01*
X114228804Y-48758773D01*
X114225204Y-48734505D01*
X114224000Y-48710001D01*
X114224000Y-47809999D01*
X114225204Y-47785495D01*
X114228804Y-47761227D01*
X114234765Y-47737428D01*
X114243030Y-47714329D01*
X114253520Y-47692150D01*
X114266132Y-47671107D01*
X114280747Y-47651401D01*
X114297223Y-47633223D01*
X114315401Y-47616747D01*
X114335107Y-47602132D01*
X114356150Y-47589520D01*
X114378329Y-47579030D01*
X114401428Y-47570765D01*
X114425227Y-47564804D01*
X114449495Y-47561204D01*
X114473999Y-47560000D01*
X115124001Y-47560000D01*
X115148505Y-47561204D01*
G37*
G04 #@! TD.AperFunction*
G04 #@! TA.AperFunction,SMDPad,CuDef*
G36*
X120870505Y-44656204D02*
G01*
X120894773Y-44659804D01*
X120918572Y-44665765D01*
X120941671Y-44674030D01*
X120963850Y-44684520D01*
X120984893Y-44697132D01*
X121004599Y-44711747D01*
X121022777Y-44728223D01*
X121039253Y-44746401D01*
X121053868Y-44766107D01*
X121066480Y-44787150D01*
X121076970Y-44809329D01*
X121085235Y-44832428D01*
X121091196Y-44856227D01*
X121094796Y-44880495D01*
X121096000Y-44904999D01*
X121096000Y-45555001D01*
X121094796Y-45579505D01*
X121091196Y-45603773D01*
X121085235Y-45627572D01*
X121076970Y-45650671D01*
X121066480Y-45672850D01*
X121053868Y-45693893D01*
X121039253Y-45713599D01*
X121022777Y-45731777D01*
X121004599Y-45748253D01*
X120984893Y-45762868D01*
X120963850Y-45775480D01*
X120941671Y-45785970D01*
X120918572Y-45794235D01*
X120894773Y-45800196D01*
X120870505Y-45803796D01*
X120846001Y-45805000D01*
X119945999Y-45805000D01*
X119921495Y-45803796D01*
X119897227Y-45800196D01*
X119873428Y-45794235D01*
X119850329Y-45785970D01*
X119828150Y-45775480D01*
X119807107Y-45762868D01*
X119787401Y-45748253D01*
X119769223Y-45731777D01*
X119752747Y-45713599D01*
X119738132Y-45693893D01*
X119725520Y-45672850D01*
X119715030Y-45650671D01*
X119706765Y-45627572D01*
X119700804Y-45603773D01*
X119697204Y-45579505D01*
X119696000Y-45555001D01*
X119696000Y-44904999D01*
X119697204Y-44880495D01*
X119700804Y-44856227D01*
X119706765Y-44832428D01*
X119715030Y-44809329D01*
X119725520Y-44787150D01*
X119738132Y-44766107D01*
X119752747Y-44746401D01*
X119769223Y-44728223D01*
X119787401Y-44711747D01*
X119807107Y-44697132D01*
X119828150Y-44684520D01*
X119850329Y-44674030D01*
X119873428Y-44665765D01*
X119897227Y-44659804D01*
X119921495Y-44656204D01*
X119945999Y-44655000D01*
X120846001Y-44655000D01*
X120870505Y-44656204D01*
G37*
G04 #@! TD.AperFunction*
G04 #@! TA.AperFunction,SMDPad,CuDef*
G36*
X120870505Y-42606204D02*
G01*
X120894773Y-42609804D01*
X120918572Y-42615765D01*
X120941671Y-42624030D01*
X120963850Y-42634520D01*
X120984893Y-42647132D01*
X121004599Y-42661747D01*
X121022777Y-42678223D01*
X121039253Y-42696401D01*
X121053868Y-42716107D01*
X121066480Y-42737150D01*
X121076970Y-42759329D01*
X121085235Y-42782428D01*
X121091196Y-42806227D01*
X121094796Y-42830495D01*
X121096000Y-42854999D01*
X121096000Y-43505001D01*
X121094796Y-43529505D01*
X121091196Y-43553773D01*
X121085235Y-43577572D01*
X121076970Y-43600671D01*
X121066480Y-43622850D01*
X121053868Y-43643893D01*
X121039253Y-43663599D01*
X121022777Y-43681777D01*
X121004599Y-43698253D01*
X120984893Y-43712868D01*
X120963850Y-43725480D01*
X120941671Y-43735970D01*
X120918572Y-43744235D01*
X120894773Y-43750196D01*
X120870505Y-43753796D01*
X120846001Y-43755000D01*
X119945999Y-43755000D01*
X119921495Y-43753796D01*
X119897227Y-43750196D01*
X119873428Y-43744235D01*
X119850329Y-43735970D01*
X119828150Y-43725480D01*
X119807107Y-43712868D01*
X119787401Y-43698253D01*
X119769223Y-43681777D01*
X119752747Y-43663599D01*
X119738132Y-43643893D01*
X119725520Y-43622850D01*
X119715030Y-43600671D01*
X119706765Y-43577572D01*
X119700804Y-43553773D01*
X119697204Y-43529505D01*
X119696000Y-43505001D01*
X119696000Y-42854999D01*
X119697204Y-42830495D01*
X119700804Y-42806227D01*
X119706765Y-42782428D01*
X119715030Y-42759329D01*
X119725520Y-42737150D01*
X119738132Y-42716107D01*
X119752747Y-42696401D01*
X119769223Y-42678223D01*
X119787401Y-42661747D01*
X119807107Y-42647132D01*
X119828150Y-42634520D01*
X119850329Y-42624030D01*
X119873428Y-42615765D01*
X119897227Y-42609804D01*
X119921495Y-42606204D01*
X119945999Y-42605000D01*
X120846001Y-42605000D01*
X120870505Y-42606204D01*
G37*
G04 #@! TD.AperFunction*
D20*
X110236000Y-56896000D03*
X110236000Y-51416000D03*
D21*
X110986000Y-51196000D03*
X110986000Y-57146000D03*
D22*
X112286000Y-51296000D03*
X112306000Y-57046000D03*
D23*
X112186000Y-52846000D03*
X112186000Y-53496000D03*
X112186000Y-54146000D03*
X112186000Y-54796000D03*
X112186000Y-55446000D03*
D24*
X112306000Y-51726000D03*
X112306000Y-56566000D03*
D25*
X109306000Y-51416000D03*
X109306000Y-56876000D03*
D26*
X109036000Y-53186000D03*
X109036000Y-55106000D03*
G04 #@! TA.AperFunction,SMDPad,CuDef*
D18*
G36*
X118205505Y-39433204D02*
G01*
X118229773Y-39436804D01*
X118253572Y-39442765D01*
X118276671Y-39451030D01*
X118298850Y-39461520D01*
X118319893Y-39474132D01*
X118339599Y-39488747D01*
X118357777Y-39505223D01*
X118374253Y-39523401D01*
X118388868Y-39543107D01*
X118401480Y-39564150D01*
X118411970Y-39586329D01*
X118420235Y-39609428D01*
X118426196Y-39633227D01*
X118429796Y-39657495D01*
X118431000Y-39681999D01*
X118431000Y-40582001D01*
X118429796Y-40606505D01*
X118426196Y-40630773D01*
X118420235Y-40654572D01*
X118411970Y-40677671D01*
X118401480Y-40699850D01*
X118388868Y-40720893D01*
X118374253Y-40740599D01*
X118357777Y-40758777D01*
X118339599Y-40775253D01*
X118319893Y-40789868D01*
X118298850Y-40802480D01*
X118276671Y-40812970D01*
X118253572Y-40821235D01*
X118229773Y-40827196D01*
X118205505Y-40830796D01*
X118181001Y-40832000D01*
X117530999Y-40832000D01*
X117506495Y-40830796D01*
X117482227Y-40827196D01*
X117458428Y-40821235D01*
X117435329Y-40812970D01*
X117413150Y-40802480D01*
X117392107Y-40789868D01*
X117372401Y-40775253D01*
X117354223Y-40758777D01*
X117337747Y-40740599D01*
X117323132Y-40720893D01*
X117310520Y-40699850D01*
X117300030Y-40677671D01*
X117291765Y-40654572D01*
X117285804Y-40630773D01*
X117282204Y-40606505D01*
X117281000Y-40582001D01*
X117281000Y-39681999D01*
X117282204Y-39657495D01*
X117285804Y-39633227D01*
X117291765Y-39609428D01*
X117300030Y-39586329D01*
X117310520Y-39564150D01*
X117323132Y-39543107D01*
X117337747Y-39523401D01*
X117354223Y-39505223D01*
X117372401Y-39488747D01*
X117392107Y-39474132D01*
X117413150Y-39461520D01*
X117435329Y-39451030D01*
X117458428Y-39442765D01*
X117482227Y-39436804D01*
X117506495Y-39433204D01*
X117530999Y-39432000D01*
X118181001Y-39432000D01*
X118205505Y-39433204D01*
G37*
G04 #@! TD.AperFunction*
G04 #@! TA.AperFunction,SMDPad,CuDef*
G36*
X120255505Y-39433204D02*
G01*
X120279773Y-39436804D01*
X120303572Y-39442765D01*
X120326671Y-39451030D01*
X120348850Y-39461520D01*
X120369893Y-39474132D01*
X120389599Y-39488747D01*
X120407777Y-39505223D01*
X120424253Y-39523401D01*
X120438868Y-39543107D01*
X120451480Y-39564150D01*
X120461970Y-39586329D01*
X120470235Y-39609428D01*
X120476196Y-39633227D01*
X120479796Y-39657495D01*
X120481000Y-39681999D01*
X120481000Y-40582001D01*
X120479796Y-40606505D01*
X120476196Y-40630773D01*
X120470235Y-40654572D01*
X120461970Y-40677671D01*
X120451480Y-40699850D01*
X120438868Y-40720893D01*
X120424253Y-40740599D01*
X120407777Y-40758777D01*
X120389599Y-40775253D01*
X120369893Y-40789868D01*
X120348850Y-40802480D01*
X120326671Y-40812970D01*
X120303572Y-40821235D01*
X120279773Y-40827196D01*
X120255505Y-40830796D01*
X120231001Y-40832000D01*
X119580999Y-40832000D01*
X119556495Y-40830796D01*
X119532227Y-40827196D01*
X119508428Y-40821235D01*
X119485329Y-40812970D01*
X119463150Y-40802480D01*
X119442107Y-40789868D01*
X119422401Y-40775253D01*
X119404223Y-40758777D01*
X119387747Y-40740599D01*
X119373132Y-40720893D01*
X119360520Y-40699850D01*
X119350030Y-40677671D01*
X119341765Y-40654572D01*
X119335804Y-40630773D01*
X119332204Y-40606505D01*
X119331000Y-40582001D01*
X119331000Y-39681999D01*
X119332204Y-39657495D01*
X119335804Y-39633227D01*
X119341765Y-39609428D01*
X119350030Y-39586329D01*
X119360520Y-39564150D01*
X119373132Y-39543107D01*
X119387747Y-39523401D01*
X119404223Y-39505223D01*
X119422401Y-39488747D01*
X119442107Y-39474132D01*
X119463150Y-39461520D01*
X119485329Y-39451030D01*
X119508428Y-39442765D01*
X119532227Y-39436804D01*
X119556495Y-39433204D01*
X119580999Y-39432000D01*
X120231001Y-39432000D01*
X120255505Y-39433204D01*
G37*
G04 #@! TD.AperFunction*
G04 #@! TA.AperFunction,SMDPad,CuDef*
G36*
X111726505Y-42606204D02*
G01*
X111750773Y-42609804D01*
X111774572Y-42615765D01*
X111797671Y-42624030D01*
X111819850Y-42634520D01*
X111840893Y-42647132D01*
X111860599Y-42661747D01*
X111878777Y-42678223D01*
X111895253Y-42696401D01*
X111909868Y-42716107D01*
X111922480Y-42737150D01*
X111932970Y-42759329D01*
X111941235Y-42782428D01*
X111947196Y-42806227D01*
X111950796Y-42830495D01*
X111952000Y-42854999D01*
X111952000Y-43505001D01*
X111950796Y-43529505D01*
X111947196Y-43553773D01*
X111941235Y-43577572D01*
X111932970Y-43600671D01*
X111922480Y-43622850D01*
X111909868Y-43643893D01*
X111895253Y-43663599D01*
X111878777Y-43681777D01*
X111860599Y-43698253D01*
X111840893Y-43712868D01*
X111819850Y-43725480D01*
X111797671Y-43735970D01*
X111774572Y-43744235D01*
X111750773Y-43750196D01*
X111726505Y-43753796D01*
X111702001Y-43755000D01*
X110801999Y-43755000D01*
X110777495Y-43753796D01*
X110753227Y-43750196D01*
X110729428Y-43744235D01*
X110706329Y-43735970D01*
X110684150Y-43725480D01*
X110663107Y-43712868D01*
X110643401Y-43698253D01*
X110625223Y-43681777D01*
X110608747Y-43663599D01*
X110594132Y-43643893D01*
X110581520Y-43622850D01*
X110571030Y-43600671D01*
X110562765Y-43577572D01*
X110556804Y-43553773D01*
X110553204Y-43529505D01*
X110552000Y-43505001D01*
X110552000Y-42854999D01*
X110553204Y-42830495D01*
X110556804Y-42806227D01*
X110562765Y-42782428D01*
X110571030Y-42759329D01*
X110581520Y-42737150D01*
X110594132Y-42716107D01*
X110608747Y-42696401D01*
X110625223Y-42678223D01*
X110643401Y-42661747D01*
X110663107Y-42647132D01*
X110684150Y-42634520D01*
X110706329Y-42624030D01*
X110729428Y-42615765D01*
X110753227Y-42609804D01*
X110777495Y-42606204D01*
X110801999Y-42605000D01*
X111702001Y-42605000D01*
X111726505Y-42606204D01*
G37*
G04 #@! TD.AperFunction*
G04 #@! TA.AperFunction,SMDPad,CuDef*
G36*
X111726505Y-44656204D02*
G01*
X111750773Y-44659804D01*
X111774572Y-44665765D01*
X111797671Y-44674030D01*
X111819850Y-44684520D01*
X111840893Y-44697132D01*
X111860599Y-44711747D01*
X111878777Y-44728223D01*
X111895253Y-44746401D01*
X111909868Y-44766107D01*
X111922480Y-44787150D01*
X111932970Y-44809329D01*
X111941235Y-44832428D01*
X111947196Y-44856227D01*
X111950796Y-44880495D01*
X111952000Y-44904999D01*
X111952000Y-45555001D01*
X111950796Y-45579505D01*
X111947196Y-45603773D01*
X111941235Y-45627572D01*
X111932970Y-45650671D01*
X111922480Y-45672850D01*
X111909868Y-45693893D01*
X111895253Y-45713599D01*
X111878777Y-45731777D01*
X111860599Y-45748253D01*
X111840893Y-45762868D01*
X111819850Y-45775480D01*
X111797671Y-45785970D01*
X111774572Y-45794235D01*
X111750773Y-45800196D01*
X111726505Y-45803796D01*
X111702001Y-45805000D01*
X110801999Y-45805000D01*
X110777495Y-45803796D01*
X110753227Y-45800196D01*
X110729428Y-45794235D01*
X110706329Y-45785970D01*
X110684150Y-45775480D01*
X110663107Y-45762868D01*
X110643401Y-45748253D01*
X110625223Y-45731777D01*
X110608747Y-45713599D01*
X110594132Y-45693893D01*
X110581520Y-45672850D01*
X110571030Y-45650671D01*
X110562765Y-45627572D01*
X110556804Y-45603773D01*
X110553204Y-45579505D01*
X110552000Y-45555001D01*
X110552000Y-44904999D01*
X110553204Y-44880495D01*
X110556804Y-44856227D01*
X110562765Y-44832428D01*
X110571030Y-44809329D01*
X110581520Y-44787150D01*
X110594132Y-44766107D01*
X110608747Y-44746401D01*
X110625223Y-44728223D01*
X110643401Y-44711747D01*
X110663107Y-44697132D01*
X110684150Y-44684520D01*
X110706329Y-44674030D01*
X110729428Y-44665765D01*
X110753227Y-44659804D01*
X110777495Y-44656204D01*
X110801999Y-44655000D01*
X111702001Y-44655000D01*
X111726505Y-44656204D01*
G37*
G04 #@! TD.AperFunction*
D27*
X114874000Y-45546000D03*
X115824000Y-45546000D03*
X116774000Y-45546000D03*
X116774000Y-42846000D03*
X114874000Y-42846000D03*
D28*
X132080000Y-54864000D03*
X122402600Y-53340000D03*
X148780500Y-62166500D03*
X143446500Y-82359500D03*
X144716500Y-102616000D03*
X146050000Y-123063000D03*
X147193000Y-143256000D03*
X167640000Y-47752000D03*
D29*
X158877000Y-58166000D02*
X159258000Y-58547000D01*
X158877000Y-54357000D02*
X158877000Y-58166000D01*
X173749601Y-48779799D02*
X174599600Y-47929800D01*
X160672000Y-51054000D02*
X171475400Y-51054000D01*
X171475400Y-51054000D02*
X173749601Y-48779799D01*
X158877000Y-54357000D02*
X158877000Y-52849000D01*
X158877000Y-52849000D02*
X160672000Y-51054000D01*
X142240000Y-51054000D02*
X160672000Y-51054000D01*
X125636000Y-36148000D02*
X127334000Y-36148000D01*
X140970000Y-44704000D02*
X138430000Y-47244000D01*
X140970000Y-40640000D02*
X140970000Y-44704000D01*
X127334000Y-36148000D02*
X138430000Y-47244000D01*
X138430000Y-47244000D02*
X142240000Y-51054000D01*
X132080000Y-53594000D02*
X138430000Y-47244000D01*
X132080000Y-54864000D02*
X132080000Y-53594000D01*
X157607000Y-58148000D02*
X157208000Y-58547000D01*
X157607000Y-54357000D02*
X157607000Y-58148000D01*
D30*
X150368000Y-42798000D02*
X152527000Y-44957000D01*
X147320000Y-38608000D02*
X147574000Y-38354000D01*
X147320000Y-39370000D02*
X147320000Y-38608000D01*
X149098000Y-38354000D02*
X150368000Y-39624000D01*
X147574000Y-38354000D02*
X149098000Y-38354000D01*
X150368000Y-39624000D02*
X150368000Y-42798000D01*
X147320000Y-40640000D02*
X147320000Y-44196000D01*
X147320000Y-44196000D02*
X149860000Y-46736000D01*
X161417000Y-46207000D02*
X161417000Y-44957000D01*
X160888000Y-46736000D02*
X161417000Y-46207000D01*
X149860000Y-46736000D02*
X160888000Y-46736000D01*
X153797000Y-44831000D02*
X153797000Y-44957000D01*
X153797000Y-43815000D02*
X153797000Y-44831000D01*
X153416000Y-43434000D02*
X153797000Y-43815000D01*
X150818010Y-41852010D02*
X152400000Y-43434000D01*
X146808904Y-37903990D02*
X149284401Y-37903991D01*
X146050000Y-39370000D02*
X146050000Y-38662894D01*
X152400000Y-43434000D02*
X153416000Y-43434000D01*
X149284401Y-37903991D02*
X150818010Y-39437600D01*
X146050000Y-38662894D02*
X146808904Y-37903990D01*
X150818010Y-39437600D02*
X150818010Y-41852010D01*
X163957000Y-46101000D02*
X163957000Y-44957000D01*
X162871990Y-47186010D02*
X163957000Y-46101000D01*
X149673600Y-47186010D02*
X162871990Y-47186010D01*
X146050000Y-40640000D02*
X146050000Y-43562410D01*
X146050000Y-43562410D02*
X149673600Y-47186010D01*
X155067000Y-44069000D02*
X155067000Y-44957000D01*
X153924000Y-42926000D02*
X155067000Y-44069000D01*
X152528410Y-42926000D02*
X153924000Y-42926000D01*
X144156019Y-37453981D02*
X149470802Y-37453982D01*
X142240000Y-39370000D02*
X144156019Y-37453981D01*
X151268020Y-39251200D02*
X151268020Y-41665610D01*
X149470802Y-37453982D02*
X151268020Y-39251200D01*
X151268020Y-41665610D02*
X152528410Y-42926000D01*
X142240000Y-40640000D02*
X142240000Y-41656000D01*
X146047180Y-44196000D02*
X149487200Y-47636020D01*
X142240000Y-41656000D02*
X144780000Y-44196000D01*
X144780000Y-44196000D02*
X146047180Y-44196000D01*
X165227000Y-46207000D02*
X165227000Y-44957000D01*
X163797981Y-47636019D02*
X165227000Y-46207000D01*
X149487200Y-47636020D02*
X163797981Y-47636019D01*
X156337000Y-44323000D02*
X156337000Y-44957000D01*
X154489990Y-42475990D02*
X156337000Y-44323000D01*
X152714810Y-42475990D02*
X154489990Y-42475990D01*
X143336028Y-37003972D02*
X149657203Y-37003973D01*
X149657203Y-37003973D02*
X151718030Y-39064800D01*
X151718030Y-39064800D02*
X151718030Y-41479210D01*
X140970000Y-39370000D02*
X143336028Y-37003972D01*
X151718030Y-41479210D02*
X152714810Y-42475990D01*
X138978000Y-38648000D02*
X139700000Y-39370000D01*
X135636000Y-38648000D02*
X138978000Y-38648000D01*
D29*
X150622000Y-62166500D02*
X148780500Y-62166500D01*
X156337000Y-54357000D02*
X156337000Y-56451500D01*
X156337000Y-56451500D02*
X150622000Y-62166500D01*
X152550380Y-61239398D02*
X160612290Y-61239398D01*
X143446500Y-70343278D02*
X152550380Y-61239398D01*
X160655000Y-61196688D02*
X160655000Y-56373000D01*
X160655000Y-56373000D02*
X160147000Y-55865000D01*
X143446500Y-82359500D02*
X143446500Y-70343278D01*
X160612290Y-61239398D02*
X160655000Y-61196688D01*
X160147000Y-55865000D02*
X160147000Y-54357000D01*
X144716500Y-102616000D02*
X144716500Y-70074556D01*
X161417000Y-61435966D02*
X161417000Y-55865000D01*
X152843647Y-61947409D02*
X160905557Y-61947409D01*
X160905557Y-61947409D02*
X161417000Y-61435966D01*
X161417000Y-55865000D02*
X161417000Y-54357000D01*
X144716500Y-70074556D02*
X152843647Y-61947409D01*
X162687000Y-55865000D02*
X162687000Y-54357000D01*
X161198824Y-62655420D02*
X162687000Y-61167244D01*
X153136914Y-62655420D02*
X161198824Y-62655420D01*
X146050000Y-123063000D02*
X146050000Y-69742334D01*
X162687000Y-61167244D02*
X162687000Y-55865000D01*
X146050000Y-69742334D02*
X153136914Y-62655420D01*
X147193000Y-143256000D02*
X147193000Y-69600612D01*
X147193000Y-69600612D02*
X153430181Y-63363431D01*
X161492091Y-63363431D02*
X163957000Y-60898522D01*
X163957000Y-55865000D02*
X163957000Y-54357000D01*
X163957000Y-60898522D02*
X163957000Y-55865000D01*
X153430181Y-63363431D02*
X161492091Y-63363431D01*
X167767000Y-55865000D02*
X169636200Y-57734200D01*
X167767000Y-54357000D02*
X167767000Y-55865000D01*
X172415200Y-57734200D02*
X174599600Y-55549800D01*
X169636200Y-57734200D02*
X172415200Y-57734200D01*
X173252400Y-54357000D02*
X174599600Y-53009800D01*
X169037000Y-54357000D02*
X173252400Y-54357000D01*
X174166800Y-44957000D02*
X174599600Y-45389800D01*
X169037000Y-44957000D02*
X174166800Y-44957000D01*
X110490000Y-88900000D02*
X112045634Y-88900000D01*
X111506000Y-70104000D02*
X111506000Y-87376000D01*
X112268000Y-128778000D02*
X111506000Y-128016000D01*
X112045634Y-68580000D02*
X112268000Y-68580000D01*
X111506000Y-110744000D02*
X112268000Y-109982000D01*
X112045634Y-129540000D02*
X112268000Y-129540000D01*
X112268000Y-69342000D02*
X111506000Y-70104000D01*
X111506000Y-90424000D02*
X112268000Y-89662000D01*
X112268000Y-129540000D02*
X112268000Y-128778000D01*
X110490000Y-109220000D02*
X112045634Y-109220000D01*
X112268000Y-88138000D02*
X112268000Y-88900000D01*
X112268000Y-108458000D02*
X111506000Y-107696000D01*
X112268000Y-109220000D02*
X112268000Y-108458000D01*
X112268000Y-109982000D02*
X112268000Y-109220000D01*
X112045634Y-109220000D02*
X112268000Y-109220000D01*
X111506000Y-148336000D02*
X111506000Y-131064000D01*
X111506000Y-107696000D02*
X111506000Y-90424000D01*
X112268000Y-68580000D02*
X112268000Y-69342000D01*
X112268000Y-130302000D02*
X112268000Y-129540000D01*
X110490000Y-68580000D02*
X112045634Y-68580000D01*
X110490000Y-149352000D02*
X111506000Y-148336000D01*
X111506000Y-131064000D02*
X112268000Y-130302000D01*
X112268000Y-89662000D02*
X112268000Y-88900000D01*
X111506000Y-87376000D02*
X112268000Y-88138000D01*
X112268000Y-64516000D02*
X112268000Y-68580000D01*
X111506000Y-128016000D02*
X111506000Y-110744000D01*
X112045634Y-88900000D02*
X112268000Y-88900000D01*
X116201810Y-60582190D02*
X135520533Y-60582190D01*
X112268000Y-64516000D02*
X116201810Y-60582190D01*
X153797000Y-54357000D02*
X153797000Y-56961524D01*
X150176334Y-60582190D02*
X148453490Y-60582190D01*
X153797000Y-56961524D02*
X150176334Y-60582190D01*
X135520533Y-60582190D02*
X148453490Y-60582190D01*
X148453490Y-60582190D02*
X148540534Y-60582190D01*
X110490000Y-129540000D02*
X112268000Y-129540000D01*
X132588000Y-88138000D02*
X132588000Y-88900000D01*
X130810000Y-88900000D02*
X132365634Y-88900000D01*
X130810000Y-68580000D02*
X132365634Y-68580000D01*
X131826000Y-70104000D02*
X131826000Y-87376000D01*
X132588000Y-68580000D02*
X132588000Y-69342000D01*
X132588000Y-109982000D02*
X132588000Y-109220000D01*
X132365634Y-129540000D02*
X132588000Y-129540000D01*
X132365634Y-109220000D02*
X132588000Y-109220000D01*
X131826000Y-90424000D02*
X132588000Y-89662000D01*
X132588000Y-69342000D02*
X131826000Y-70104000D01*
X131826000Y-110744000D02*
X132588000Y-109982000D01*
X131826000Y-87376000D02*
X132588000Y-88138000D01*
X132588000Y-128778000D02*
X131826000Y-128016000D01*
X132588000Y-108458000D02*
X131826000Y-107696000D01*
X132365634Y-88900000D02*
X132588000Y-88900000D01*
X132365634Y-68580000D02*
X132588000Y-68580000D01*
X131826000Y-148336000D02*
X131826000Y-131064000D01*
X132588000Y-109220000D02*
X132588000Y-108458000D01*
X132588000Y-89662000D02*
X132588000Y-88900000D01*
X130810000Y-109220000D02*
X132365634Y-109220000D01*
X131826000Y-128016000D02*
X131826000Y-110744000D01*
X130810000Y-149352000D02*
X131826000Y-148336000D01*
X132588000Y-129540000D02*
X132588000Y-128778000D01*
X131826000Y-131064000D02*
X132588000Y-130302000D01*
X131826000Y-107696000D02*
X131826000Y-90424000D01*
X132588000Y-130302000D02*
X132588000Y-129540000D01*
X135813800Y-61290200D02*
X132588000Y-64516000D01*
X150469600Y-61290200D02*
X135813800Y-61290200D01*
X155067000Y-54357000D02*
X155067000Y-56692800D01*
X132588000Y-64516000D02*
X132588000Y-68580000D01*
X155067000Y-56692800D02*
X150469600Y-61290200D01*
X130810000Y-129540000D02*
X132588000Y-129540000D01*
X151130000Y-68580000D02*
X152685634Y-68580000D01*
X152908000Y-88138000D02*
X152908000Y-88900000D01*
X152908000Y-109220000D02*
X152908000Y-108458000D01*
X152146000Y-128016000D02*
X152146000Y-110744000D01*
X152146000Y-110744000D02*
X152908000Y-109982000D01*
X151130000Y-88900000D02*
X152685634Y-88900000D01*
X152685634Y-68580000D02*
X152908000Y-68580000D01*
X152908000Y-89662000D02*
X152908000Y-88900000D01*
X152908000Y-130302000D02*
X152908000Y-129540000D01*
X152908000Y-69342000D02*
X152146000Y-70104000D01*
X152908000Y-128778000D02*
X152146000Y-128016000D01*
X151130000Y-109220000D02*
X152685634Y-109220000D01*
X152908000Y-68580000D02*
X152908000Y-69342000D01*
X152685634Y-88900000D02*
X152908000Y-88900000D01*
X152146000Y-90424000D02*
X152908000Y-89662000D01*
X152146000Y-70104000D02*
X152146000Y-87376000D01*
X152146000Y-148336000D02*
X152146000Y-131064000D01*
X152146000Y-131064000D02*
X152908000Y-130302000D01*
X151130000Y-149352000D02*
X152146000Y-148336000D01*
X152908000Y-129540000D02*
X152908000Y-128778000D01*
X152908000Y-109982000D02*
X152908000Y-109220000D01*
X152685634Y-109220000D02*
X152908000Y-109220000D01*
X152685634Y-129540000D02*
X152908000Y-129540000D01*
X152908000Y-108458000D02*
X152146000Y-107696000D01*
X152146000Y-107696000D02*
X152146000Y-90424000D01*
X152146000Y-87376000D02*
X152908000Y-88138000D01*
X152908000Y-66675000D02*
X152908000Y-68580000D01*
X155511500Y-64071500D02*
X152908000Y-66675000D01*
X161785300Y-64071500D02*
X155511500Y-64071500D01*
X165227000Y-60629800D02*
X161785300Y-64071500D01*
X165227000Y-54357000D02*
X165227000Y-60629800D01*
X151130000Y-129540000D02*
X152685634Y-129540000D01*
X172466000Y-90424000D02*
X173228000Y-89662000D01*
X172466000Y-148336000D02*
X172466000Y-131064000D01*
X172466000Y-131064000D02*
X173228000Y-130302000D01*
X171450000Y-149352000D02*
X172466000Y-148336000D01*
X173228000Y-128778000D02*
X172466000Y-128016000D01*
X171450000Y-149860000D02*
X171450000Y-149352000D01*
X172466000Y-128016000D02*
X172466000Y-110744000D01*
X172466000Y-110744000D02*
X173228000Y-109982000D01*
X173228000Y-108458000D02*
X172466000Y-107696000D01*
X172466000Y-107696000D02*
X172466000Y-90424000D01*
X173005634Y-129540000D02*
X173228000Y-129540000D01*
X171450000Y-129540000D02*
X173005634Y-129540000D01*
X173228000Y-130302000D02*
X173228000Y-129540000D01*
X173228000Y-129540000D02*
X173228000Y-128778000D01*
X173005634Y-109220000D02*
X173228000Y-109220000D01*
X173228000Y-109982000D02*
X173228000Y-109220000D01*
X171450000Y-109220000D02*
X173005634Y-109220000D01*
X173228000Y-109220000D02*
X173228000Y-108458000D01*
X173005634Y-88900000D02*
X173228000Y-88900000D01*
X171450000Y-88900000D02*
X173005634Y-88900000D01*
X173228000Y-89662000D02*
X173228000Y-88900000D01*
X172466000Y-87376000D02*
X173228000Y-88138000D01*
X173228000Y-88138000D02*
X173228000Y-88900000D01*
X172466000Y-70104000D02*
X172466000Y-87376000D01*
X173228000Y-69342000D02*
X172466000Y-70104000D01*
X173005634Y-68580000D02*
X173228000Y-68580000D01*
X171450000Y-68580000D02*
X173005634Y-68580000D01*
X173228000Y-68580000D02*
X173228000Y-69342000D01*
X166497000Y-54357000D02*
X166497000Y-60642500D01*
X173228000Y-67373500D02*
X173228000Y-68580000D01*
X166497000Y-60642500D02*
X173228000Y-67373500D01*
X157607000Y-42037000D02*
X155829000Y-40259000D01*
X157607000Y-44957000D02*
X157607000Y-42037000D01*
X158877000Y-42091000D02*
X160709000Y-40259000D01*
X158877000Y-44957000D02*
X158877000Y-42091000D01*
D30*
X116849000Y-49060000D02*
X116849000Y-48260000D01*
X113261000Y-55446000D02*
X116849000Y-51858000D01*
X116849000Y-51858000D02*
X116849000Y-49060000D01*
X112186000Y-55446000D02*
X113261000Y-55446000D01*
X111252000Y-43180000D02*
X112776000Y-41656000D01*
X112776000Y-41656000D02*
X116774002Y-41656000D01*
X117920190Y-41656000D02*
X118872000Y-40704190D01*
X116774002Y-41656000D02*
X117920190Y-41656000D01*
X120356000Y-35710000D02*
X120356000Y-35560000D01*
X118872000Y-37194000D02*
X120356000Y-35710000D01*
X118872000Y-40704190D02*
X118872000Y-37194000D01*
X115824000Y-47235000D02*
X116849000Y-48260000D01*
X115824000Y-44516000D02*
X115824000Y-47235000D01*
X117475000Y-41656000D02*
X118999000Y-43180000D01*
X116774002Y-41656000D02*
X117475000Y-41656000D01*
X117983000Y-44196000D02*
X116144000Y-44196000D01*
X118999000Y-43180000D02*
X117983000Y-44196000D01*
X116144000Y-44196000D02*
X115824000Y-44516000D01*
X118999000Y-43180000D02*
X120396000Y-43180000D01*
X117856000Y-40132000D02*
X117856000Y-35560000D01*
X114799000Y-49060000D02*
X114799000Y-48260000D01*
X114799000Y-51308000D02*
X114799000Y-49060000D01*
X113261000Y-52846000D02*
X114799000Y-51308000D01*
X112186000Y-52846000D02*
X113261000Y-52846000D01*
X116199000Y-43096000D02*
X116774000Y-43096000D01*
X114874000Y-44421000D02*
X116199000Y-43096000D01*
X114874000Y-45296000D02*
X114874000Y-44421000D01*
X114799000Y-45371000D02*
X114874000Y-45296000D01*
X114799000Y-48260000D02*
X114799000Y-45371000D01*
X120330000Y-45296000D02*
X120396000Y-45230000D01*
X116774000Y-45296000D02*
X120330000Y-45296000D01*
X120396000Y-45230000D02*
X121920000Y-43706000D01*
X121920000Y-42146000D02*
X119906000Y-40132000D01*
X121920000Y-43706000D02*
X121920000Y-42146000D01*
X113386000Y-43096000D02*
X114874000Y-43096000D01*
X111252000Y-45230000D02*
X113386000Y-43096000D01*
X167640000Y-45084000D02*
X167767000Y-44957000D01*
X167640000Y-47752000D02*
X167640000Y-45084000D01*
D31*
G36*
X182118000Y-63373000D02*
G01*
X170484735Y-63373000D01*
X167386000Y-60274265D01*
X167386000Y-56741235D01*
X168976706Y-58331942D01*
X169004541Y-58365859D01*
X169139909Y-58476953D01*
X169294349Y-58559503D01*
X169350504Y-58576537D01*
X169461925Y-58610336D01*
X169478525Y-58611971D01*
X169592533Y-58623200D01*
X169592540Y-58623200D01*
X169636200Y-58627500D01*
X169679860Y-58623200D01*
X172371540Y-58623200D01*
X172415200Y-58627500D01*
X172458860Y-58623200D01*
X172458867Y-58623200D01*
X172589474Y-58610336D01*
X172757051Y-58559503D01*
X172911491Y-58476953D01*
X173046859Y-58365859D01*
X173074699Y-58331936D01*
X174385358Y-57021277D01*
X174453340Y-57034800D01*
X174745860Y-57034800D01*
X175032758Y-56977732D01*
X175303011Y-56865790D01*
X175546232Y-56703275D01*
X175753075Y-56496432D01*
X175915590Y-56253211D01*
X176027532Y-55982958D01*
X176084600Y-55696060D01*
X176084600Y-55403540D01*
X176027532Y-55116642D01*
X175915590Y-54846389D01*
X175753075Y-54603168D01*
X175546232Y-54396325D01*
X175371840Y-54279800D01*
X175546232Y-54163275D01*
X175753075Y-53956432D01*
X175915590Y-53713211D01*
X176027532Y-53442958D01*
X176084600Y-53156060D01*
X176084600Y-52863540D01*
X176027532Y-52576642D01*
X175915590Y-52306389D01*
X175753075Y-52063168D01*
X175546232Y-51856325D01*
X175364066Y-51734605D01*
X175480955Y-51664978D01*
X175697188Y-51470069D01*
X175871241Y-51236720D01*
X175996425Y-50973899D01*
X176041076Y-50826690D01*
X175919755Y-50596800D01*
X174726600Y-50596800D01*
X174726600Y-50616800D01*
X174472600Y-50616800D01*
X174472600Y-50596800D01*
X174452600Y-50596800D01*
X174452600Y-50342800D01*
X174472600Y-50342800D01*
X174472600Y-50322800D01*
X174726600Y-50322800D01*
X174726600Y-50342800D01*
X175919755Y-50342800D01*
X176041076Y-50112910D01*
X175996425Y-49965701D01*
X175871241Y-49702880D01*
X175697188Y-49469531D01*
X175480955Y-49274622D01*
X175364066Y-49204995D01*
X175546232Y-49083275D01*
X175753075Y-48876432D01*
X175915590Y-48633211D01*
X176027532Y-48362958D01*
X176084600Y-48076060D01*
X176084600Y-47783540D01*
X176027532Y-47496642D01*
X175915590Y-47226389D01*
X175753075Y-46983168D01*
X175621220Y-46851313D01*
X175693780Y-46829302D01*
X175804094Y-46770337D01*
X175900785Y-46690985D01*
X175980137Y-46594294D01*
X176039102Y-46483980D01*
X176075412Y-46364282D01*
X176087672Y-46239800D01*
X176087672Y-44539800D01*
X176075412Y-44415318D01*
X176039102Y-44295620D01*
X175980137Y-44185306D01*
X175900785Y-44088615D01*
X175804094Y-44009263D01*
X175693780Y-43950298D01*
X175574082Y-43913988D01*
X175449600Y-43901728D01*
X173749600Y-43901728D01*
X173625118Y-43913988D01*
X173505420Y-43950298D01*
X173395106Y-44009263D01*
X173323535Y-44068000D01*
X169975072Y-44068000D01*
X169975072Y-43957000D01*
X169962812Y-43832518D01*
X169926502Y-43712820D01*
X169867537Y-43602506D01*
X169788185Y-43505815D01*
X169691494Y-43426463D01*
X169581180Y-43367498D01*
X169461482Y-43331188D01*
X169337000Y-43318928D01*
X168737000Y-43318928D01*
X168612518Y-43331188D01*
X168492820Y-43367498D01*
X168402000Y-43416043D01*
X168311180Y-43367498D01*
X168191482Y-43331188D01*
X168067000Y-43318928D01*
X167467000Y-43318928D01*
X167342518Y-43331188D01*
X167222820Y-43367498D01*
X167132000Y-43416043D01*
X167041180Y-43367498D01*
X166921482Y-43331188D01*
X166797000Y-43318928D01*
X166197000Y-43318928D01*
X166072518Y-43331188D01*
X165952820Y-43367498D01*
X165862000Y-43416043D01*
X165771180Y-43367498D01*
X165651482Y-43331188D01*
X165527000Y-43318928D01*
X164927000Y-43318928D01*
X164802518Y-43331188D01*
X164682820Y-43367498D01*
X164592000Y-43416043D01*
X164501180Y-43367498D01*
X164381482Y-43331188D01*
X164257000Y-43318928D01*
X163657000Y-43318928D01*
X163532518Y-43331188D01*
X163412820Y-43367498D01*
X163322000Y-43416043D01*
X163231180Y-43367498D01*
X163111482Y-43331188D01*
X162987000Y-43318928D01*
X162387000Y-43318928D01*
X162262518Y-43331188D01*
X162142820Y-43367498D01*
X162052000Y-43416043D01*
X161961180Y-43367498D01*
X161841482Y-43331188D01*
X161717000Y-43318928D01*
X161117000Y-43318928D01*
X160992518Y-43331188D01*
X160872820Y-43367498D01*
X160782000Y-43416043D01*
X160691180Y-43367498D01*
X160571482Y-43331188D01*
X160447000Y-43318928D01*
X160432750Y-43322000D01*
X160274000Y-43480750D01*
X160274000Y-44830000D01*
X160294000Y-44830000D01*
X160294000Y-45084000D01*
X160274000Y-45084000D01*
X160274000Y-45104000D01*
X160020000Y-45104000D01*
X160020000Y-45084000D01*
X160000000Y-45084000D01*
X160000000Y-44830000D01*
X160020000Y-44830000D01*
X160020000Y-43480750D01*
X159861250Y-43322000D01*
X159847000Y-43318928D01*
X159766000Y-43326906D01*
X159766000Y-42459235D01*
X160581235Y-41644000D01*
X160845411Y-41644000D01*
X161112989Y-41590775D01*
X161365043Y-41486371D01*
X161591886Y-41334799D01*
X161784799Y-41141886D01*
X161936371Y-40915043D01*
X162040775Y-40662989D01*
X162094000Y-40395411D01*
X162094000Y-40122589D01*
X162040775Y-39855011D01*
X161936371Y-39602957D01*
X161784799Y-39376114D01*
X161591886Y-39183201D01*
X161365043Y-39031629D01*
X161112989Y-38927225D01*
X160845411Y-38874000D01*
X160572589Y-38874000D01*
X160305011Y-38927225D01*
X160052957Y-39031629D01*
X159826114Y-39183201D01*
X159633201Y-39376114D01*
X159481629Y-39602957D01*
X159377225Y-39855011D01*
X159324000Y-40122589D01*
X159324000Y-40386765D01*
X158279259Y-41431506D01*
X158267830Y-41440886D01*
X158266495Y-41439259D01*
X158266494Y-41439258D01*
X158238659Y-41405341D01*
X158204742Y-41377506D01*
X157214000Y-40386765D01*
X157214000Y-40122589D01*
X157160775Y-39855011D01*
X157056371Y-39602957D01*
X156904799Y-39376114D01*
X156711886Y-39183201D01*
X156485043Y-39031629D01*
X156232989Y-38927225D01*
X155965411Y-38874000D01*
X155692589Y-38874000D01*
X155425011Y-38927225D01*
X155172957Y-39031629D01*
X154946114Y-39183201D01*
X154753201Y-39376114D01*
X154601629Y-39602957D01*
X154497225Y-39855011D01*
X154444000Y-40122589D01*
X154444000Y-40395411D01*
X154497225Y-40662989D01*
X154601629Y-40915043D01*
X154753201Y-41141886D01*
X154946114Y-41334799D01*
X155172957Y-41486371D01*
X155425011Y-41590775D01*
X155692589Y-41644000D01*
X155956765Y-41644000D01*
X156718001Y-42405237D01*
X156718001Y-43326906D01*
X156637000Y-43318928D01*
X156407730Y-43318928D01*
X155053794Y-41964993D01*
X155029991Y-41935989D01*
X154914266Y-41841016D01*
X154782237Y-41770444D01*
X154638976Y-41726987D01*
X154527323Y-41715990D01*
X154527312Y-41715990D01*
X154489990Y-41712314D01*
X154452668Y-41715990D01*
X153029612Y-41715990D01*
X152478030Y-41164409D01*
X152478030Y-39102122D01*
X152481706Y-39064799D01*
X152478030Y-39027476D01*
X152478030Y-39027467D01*
X152467033Y-38915814D01*
X152423576Y-38772553D01*
X152353004Y-38640524D01*
X152295674Y-38570667D01*
X152281829Y-38553796D01*
X152281825Y-38553792D01*
X152258031Y-38524799D01*
X152229039Y-38501006D01*
X150312504Y-36584472D01*
X176835000Y-36584472D01*
X176835000Y-37024728D01*
X176920890Y-37456525D01*
X177089369Y-37863269D01*
X177333962Y-38229329D01*
X177645271Y-38540638D01*
X178011331Y-38785231D01*
X178418075Y-38953710D01*
X178849872Y-39039600D01*
X179290128Y-39039600D01*
X179721925Y-38953710D01*
X180128669Y-38785231D01*
X180494729Y-38540638D01*
X180806038Y-38229329D01*
X181050631Y-37863269D01*
X181219110Y-37456525D01*
X181305000Y-37024728D01*
X181305000Y-36584472D01*
X181219110Y-36152675D01*
X181050631Y-35745931D01*
X180806038Y-35379871D01*
X180494729Y-35068562D01*
X180128669Y-34823969D01*
X179721925Y-34655490D01*
X179290128Y-34569600D01*
X178849872Y-34569600D01*
X178418075Y-34655490D01*
X178011331Y-34823969D01*
X177645271Y-35068562D01*
X177333962Y-35379871D01*
X177089369Y-35745931D01*
X176920890Y-36152675D01*
X176835000Y-36584472D01*
X150312504Y-36584472D01*
X150221002Y-36492971D01*
X150197204Y-36463973D01*
X150168204Y-36440173D01*
X150081479Y-36368999D01*
X149949449Y-36298427D01*
X149849645Y-36268153D01*
X149806189Y-36254971D01*
X149694536Y-36243974D01*
X149657203Y-36240297D01*
X149619871Y-36243974D01*
X143373351Y-36243972D01*
X143336028Y-36240296D01*
X143298705Y-36243972D01*
X143298696Y-36243972D01*
X143187043Y-36254969D01*
X143101120Y-36281033D01*
X143043781Y-36298426D01*
X142911751Y-36368998D01*
X142825025Y-36440173D01*
X142825021Y-36440177D01*
X142796028Y-36463971D01*
X142772234Y-36492964D01*
X141030199Y-38235000D01*
X140858212Y-38235000D01*
X140638933Y-38278617D01*
X140432376Y-38364176D01*
X140335000Y-38429241D01*
X140237624Y-38364176D01*
X140031067Y-38278617D01*
X139811788Y-38235000D01*
X139639801Y-38235000D01*
X139541803Y-38137002D01*
X139518001Y-38107999D01*
X139402276Y-38013026D01*
X139270247Y-37942454D01*
X139126986Y-37898997D01*
X139015333Y-37888000D01*
X139015322Y-37888000D01*
X138978000Y-37884324D01*
X138940678Y-37888000D01*
X137274916Y-37888000D01*
X137235571Y-37793012D01*
X137038035Y-37497379D01*
X136786621Y-37245965D01*
X136490988Y-37048429D01*
X136162499Y-36912365D01*
X135813777Y-36843000D01*
X135458223Y-36843000D01*
X135109501Y-36912365D01*
X134781012Y-37048429D01*
X134485379Y-37245965D01*
X134233965Y-37497379D01*
X134036429Y-37793012D01*
X133900365Y-38121501D01*
X133831000Y-38470223D01*
X133831000Y-38825777D01*
X133900365Y-39174499D01*
X134036429Y-39502988D01*
X134233965Y-39798621D01*
X134485379Y-40050035D01*
X134781012Y-40247571D01*
X135109501Y-40383635D01*
X135458223Y-40453000D01*
X135813777Y-40453000D01*
X136162499Y-40383635D01*
X136490988Y-40247571D01*
X136786621Y-40050035D01*
X137038035Y-39798621D01*
X137235571Y-39502988D01*
X137274916Y-39408000D01*
X138565000Y-39408000D01*
X138565000Y-39481788D01*
X138608617Y-39701067D01*
X138654888Y-39812774D01*
X138610498Y-39895820D01*
X138574188Y-40015518D01*
X138561928Y-40140000D01*
X138565000Y-40354250D01*
X138723750Y-40513000D01*
X139573000Y-40513000D01*
X139573000Y-40501974D01*
X139588212Y-40505000D01*
X139811788Y-40505000D01*
X139827000Y-40501974D01*
X139827000Y-40513000D01*
X139838026Y-40513000D01*
X139835000Y-40528212D01*
X139835000Y-40751788D01*
X139838026Y-40767000D01*
X139827000Y-40767000D01*
X139827000Y-41616250D01*
X139985750Y-41775000D01*
X140081000Y-41776366D01*
X140081001Y-44335763D01*
X138430000Y-45986764D01*
X133583236Y-41140000D01*
X138561928Y-41140000D01*
X138574188Y-41264482D01*
X138610498Y-41384180D01*
X138669463Y-41494494D01*
X138748815Y-41591185D01*
X138845506Y-41670537D01*
X138955820Y-41729502D01*
X139075518Y-41765812D01*
X139200000Y-41778072D01*
X139414250Y-41775000D01*
X139573000Y-41616250D01*
X139573000Y-40767000D01*
X138723750Y-40767000D01*
X138565000Y-40925750D01*
X138561928Y-41140000D01*
X133583236Y-41140000D01*
X127993499Y-35550264D01*
X127965659Y-35516341D01*
X127830291Y-35405247D01*
X127675851Y-35322697D01*
X127508274Y-35271864D01*
X127377667Y-35259000D01*
X127377660Y-35259000D01*
X127334000Y-35254700D01*
X127290340Y-35259000D01*
X127212845Y-35259000D01*
X127038035Y-34997379D01*
X126786621Y-34745965D01*
X126490988Y-34548429D01*
X126162499Y-34412365D01*
X125813777Y-34343000D01*
X125458223Y-34343000D01*
X125109501Y-34412365D01*
X124781012Y-34548429D01*
X124485379Y-34745965D01*
X124233965Y-34997379D01*
X124036429Y-35293012D01*
X123900365Y-35621501D01*
X123831000Y-35970223D01*
X123831000Y-36325777D01*
X123900365Y-36674499D01*
X124036429Y-37002988D01*
X124233965Y-37298621D01*
X124485379Y-37550035D01*
X124781012Y-37747571D01*
X125109501Y-37883635D01*
X125458223Y-37953000D01*
X125813777Y-37953000D01*
X126162499Y-37883635D01*
X126490988Y-37747571D01*
X126786621Y-37550035D01*
X127038035Y-37298621D01*
X127113878Y-37185113D01*
X137172764Y-47244000D01*
X131482259Y-52934506D01*
X131448342Y-52962341D01*
X131420507Y-52996258D01*
X131420505Y-52996260D01*
X131337248Y-53097709D01*
X131254698Y-53252148D01*
X131203864Y-53419726D01*
X131186700Y-53594000D01*
X131191001Y-53637669D01*
X131191000Y-54331531D01*
X131162795Y-54373744D01*
X131084774Y-54562102D01*
X131045000Y-54762061D01*
X131045000Y-54965939D01*
X131084774Y-55165898D01*
X131162795Y-55354256D01*
X131276063Y-55523774D01*
X131420226Y-55667937D01*
X131589744Y-55781205D01*
X131778102Y-55859226D01*
X131978061Y-55899000D01*
X132181939Y-55899000D01*
X132381898Y-55859226D01*
X132570256Y-55781205D01*
X132739774Y-55667937D01*
X132883937Y-55523774D01*
X132997205Y-55354256D01*
X133075226Y-55165898D01*
X133115000Y-54965939D01*
X133115000Y-54762061D01*
X133075226Y-54562102D01*
X132997205Y-54373744D01*
X132969000Y-54331532D01*
X132969000Y-53962235D01*
X138430000Y-48501236D01*
X141580505Y-51651741D01*
X141608341Y-51685659D01*
X141743709Y-51796753D01*
X141898149Y-51879303D01*
X142003568Y-51911281D01*
X142065725Y-51930136D01*
X142082325Y-51931771D01*
X142196333Y-51943000D01*
X142196340Y-51943000D01*
X142240000Y-51947300D01*
X142283660Y-51943000D01*
X158525765Y-51943000D01*
X158279259Y-52189506D01*
X158245342Y-52217341D01*
X158217507Y-52251258D01*
X158217505Y-52251260D01*
X158134248Y-52352709D01*
X158051698Y-52507148D01*
X158000864Y-52674726D01*
X157995651Y-52727659D01*
X157907000Y-52718928D01*
X157892750Y-52722000D01*
X157734000Y-52880750D01*
X157734000Y-54230000D01*
X157754000Y-54230000D01*
X157754000Y-54484000D01*
X157734000Y-54484000D01*
X157734000Y-55833250D01*
X157892750Y-55992000D01*
X157907000Y-55995072D01*
X157988000Y-55987094D01*
X157988001Y-57245613D01*
X157907482Y-57221188D01*
X157783000Y-57208928D01*
X157493750Y-57212000D01*
X157335000Y-57370750D01*
X157335000Y-58420000D01*
X157355000Y-58420000D01*
X157355000Y-58674000D01*
X157335000Y-58674000D01*
X157335000Y-59723250D01*
X157493750Y-59882000D01*
X157783000Y-59885072D01*
X157907482Y-59872812D01*
X158027180Y-59836502D01*
X158137494Y-59777537D01*
X158234185Y-59698185D01*
X158299658Y-59618406D01*
X158305038Y-59624962D01*
X158439613Y-59735405D01*
X158593149Y-59817472D01*
X158759745Y-59868008D01*
X158932999Y-59885072D01*
X159583001Y-59885072D01*
X159756255Y-59868008D01*
X159766000Y-59865052D01*
X159766000Y-60350398D01*
X153695337Y-60350398D01*
X154798735Y-59247000D01*
X155994928Y-59247000D01*
X156007188Y-59371482D01*
X156043498Y-59491180D01*
X156102463Y-59601494D01*
X156181815Y-59698185D01*
X156278506Y-59777537D01*
X156388820Y-59836502D01*
X156508518Y-59872812D01*
X156633000Y-59885072D01*
X156922250Y-59882000D01*
X157081000Y-59723250D01*
X157081000Y-58674000D01*
X156156750Y-58674000D01*
X155998000Y-58832750D01*
X155994928Y-59247000D01*
X154798735Y-59247000D01*
X155996428Y-58049308D01*
X155998000Y-58261250D01*
X156156750Y-58420000D01*
X157081000Y-58420000D01*
X157081000Y-57370750D01*
X156922250Y-57212000D01*
X156834666Y-57211070D01*
X156934742Y-57110994D01*
X156968659Y-57083159D01*
X157079753Y-56947791D01*
X157162303Y-56793351D01*
X157213136Y-56625774D01*
X157226000Y-56495167D01*
X157230301Y-56451500D01*
X157226000Y-56407832D01*
X157226000Y-55987094D01*
X157307000Y-55995072D01*
X157321250Y-55992000D01*
X157480000Y-55833250D01*
X157480000Y-54484000D01*
X157460000Y-54484000D01*
X157460000Y-54230000D01*
X157480000Y-54230000D01*
X157480000Y-52880750D01*
X157321250Y-52722000D01*
X157307000Y-52718928D01*
X157182518Y-52731188D01*
X157062820Y-52767498D01*
X156972000Y-52816043D01*
X156881180Y-52767498D01*
X156761482Y-52731188D01*
X156637000Y-52718928D01*
X156037000Y-52718928D01*
X155912518Y-52731188D01*
X155792820Y-52767498D01*
X155702000Y-52816043D01*
X155611180Y-52767498D01*
X155491482Y-52731188D01*
X155367000Y-52718928D01*
X154767000Y-52718928D01*
X154642518Y-52731188D01*
X154522820Y-52767498D01*
X154432000Y-52816043D01*
X154341180Y-52767498D01*
X154221482Y-52731188D01*
X154097000Y-52718928D01*
X153497000Y-52718928D01*
X153372518Y-52731188D01*
X153252820Y-52767498D01*
X153162000Y-52816043D01*
X153071180Y-52767498D01*
X152951482Y-52731188D01*
X152827000Y-52718928D01*
X152227000Y-52718928D01*
X152102518Y-52731188D01*
X151982820Y-52767498D01*
X151872506Y-52826463D01*
X151775815Y-52905815D01*
X151696463Y-53002506D01*
X151637498Y-53112820D01*
X151601188Y-53232518D01*
X151588928Y-53357000D01*
X151588928Y-55357000D01*
X151601188Y-55481482D01*
X151637498Y-55601180D01*
X151696463Y-55711494D01*
X151775815Y-55808185D01*
X151872506Y-55887537D01*
X151982820Y-55946502D01*
X152102518Y-55982812D01*
X152227000Y-55995072D01*
X152827000Y-55995072D01*
X152908001Y-55987094D01*
X152908001Y-56593287D01*
X149808099Y-59693190D01*
X116245469Y-59693190D01*
X116201809Y-59688890D01*
X116158149Y-59693190D01*
X116158143Y-59693190D01*
X116060734Y-59702784D01*
X116027534Y-59706054D01*
X115930777Y-59735405D01*
X115859959Y-59756887D01*
X115705519Y-59839437D01*
X115570151Y-59950531D01*
X115542316Y-59984448D01*
X112153765Y-63373000D01*
X107442000Y-63373000D01*
X107442000Y-56357146D01*
X107541820Y-56410502D01*
X107661518Y-56446812D01*
X107786000Y-56459072D01*
X107888528Y-56459072D01*
X107839955Y-56619195D01*
X107814662Y-56876000D01*
X107839955Y-57132805D01*
X107914862Y-57379741D01*
X108036505Y-57607318D01*
X108200208Y-57806792D01*
X108399682Y-57970495D01*
X108627259Y-58092138D01*
X108874195Y-58167045D01*
X109066649Y-58186000D01*
X109075876Y-58186000D01*
X109111518Y-58196812D01*
X109236000Y-58209072D01*
X110018102Y-58209072D01*
X110046498Y-58302680D01*
X110105463Y-58412994D01*
X110184815Y-58509685D01*
X110281506Y-58589037D01*
X110391820Y-58648002D01*
X110511518Y-58684312D01*
X110636000Y-58696572D01*
X111336000Y-58696572D01*
X111460482Y-58684312D01*
X111484490Y-58677029D01*
X111556000Y-58684072D01*
X113056000Y-58684072D01*
X113180482Y-58671812D01*
X113300180Y-58635502D01*
X113410494Y-58576537D01*
X113507185Y-58497185D01*
X113586537Y-58400494D01*
X113645502Y-58290180D01*
X113681812Y-58170482D01*
X113694072Y-58046000D01*
X113694072Y-56593017D01*
X113696733Y-56566000D01*
X113694072Y-56538983D01*
X113694072Y-56073755D01*
X113801001Y-55986001D01*
X113824804Y-55956997D01*
X117360004Y-52421798D01*
X117389001Y-52398001D01*
X117483974Y-52282276D01*
X117554546Y-52150247D01*
X117598003Y-52006986D01*
X117609000Y-51895333D01*
X117609000Y-51895324D01*
X117612676Y-51858001D01*
X117609000Y-51820678D01*
X117609000Y-49479614D01*
X117667387Y-49448405D01*
X117801962Y-49337962D01*
X117912405Y-49203387D01*
X117994472Y-49049851D01*
X118045008Y-48883255D01*
X118062072Y-48710001D01*
X118062072Y-47809999D01*
X118045008Y-47636745D01*
X117994472Y-47470149D01*
X117912405Y-47316613D01*
X117801962Y-47182038D01*
X117667387Y-47071595D01*
X117513851Y-46989528D01*
X117347255Y-46938992D01*
X117285722Y-46932932D01*
X117343180Y-46915502D01*
X117453494Y-46856537D01*
X117550185Y-46777185D01*
X117629537Y-46680494D01*
X117688502Y-46570180D01*
X117724812Y-46450482D01*
X117737072Y-46326000D01*
X117737072Y-46056000D01*
X119213843Y-46056000D01*
X119318038Y-46182962D01*
X119452613Y-46293405D01*
X119606149Y-46375472D01*
X119772745Y-46426008D01*
X119945999Y-46443072D01*
X120846001Y-46443072D01*
X121019255Y-46426008D01*
X121185851Y-46375472D01*
X121339387Y-46293405D01*
X121473962Y-46182962D01*
X121584405Y-46048387D01*
X121666472Y-45894851D01*
X121717008Y-45728255D01*
X121734072Y-45555001D01*
X121734072Y-44966730D01*
X122431009Y-44269794D01*
X122460001Y-44246001D01*
X122483795Y-44217008D01*
X122483799Y-44217004D01*
X122554973Y-44130277D01*
X122554974Y-44130276D01*
X122625546Y-43998247D01*
X122669003Y-43854986D01*
X122680000Y-43743333D01*
X122680000Y-43743324D01*
X122683676Y-43706001D01*
X122680000Y-43668678D01*
X122680000Y-42404602D01*
X124559003Y-42404602D01*
X124675275Y-42686389D01*
X124993860Y-42844257D01*
X125337122Y-42936938D01*
X125691869Y-42960873D01*
X126044470Y-42915139D01*
X126381373Y-42801495D01*
X126596725Y-42686389D01*
X126712997Y-42404602D01*
X125636000Y-41327605D01*
X124559003Y-42404602D01*
X122680000Y-42404602D01*
X122680000Y-42183322D01*
X122683676Y-42145999D01*
X122680000Y-42108676D01*
X122680000Y-42108667D01*
X122669003Y-41997014D01*
X122625546Y-41853753D01*
X122583451Y-41775000D01*
X122554974Y-41721723D01*
X122483799Y-41634997D01*
X122460001Y-41605999D01*
X122431003Y-41582201D01*
X122052671Y-41203869D01*
X123823127Y-41203869D01*
X123868861Y-41556470D01*
X123982505Y-41893373D01*
X124097611Y-42108725D01*
X124379398Y-42224997D01*
X125456395Y-41148000D01*
X125815605Y-41148000D01*
X126892602Y-42224997D01*
X127174389Y-42108725D01*
X127332257Y-41790140D01*
X127424938Y-41446878D01*
X127448873Y-41092131D01*
X127403139Y-40739530D01*
X127289495Y-40402627D01*
X127174389Y-40187275D01*
X126892602Y-40071003D01*
X125815605Y-41148000D01*
X125456395Y-41148000D01*
X124379398Y-40071003D01*
X124097611Y-40187275D01*
X123939743Y-40505860D01*
X123847062Y-40849122D01*
X123823127Y-41203869D01*
X122052671Y-41203869D01*
X121119072Y-40270271D01*
X121119072Y-39891398D01*
X124559003Y-39891398D01*
X125636000Y-40968395D01*
X126712997Y-39891398D01*
X126596725Y-39609611D01*
X126278140Y-39451743D01*
X125934878Y-39359062D01*
X125580131Y-39335127D01*
X125227530Y-39380861D01*
X124890627Y-39494505D01*
X124675275Y-39609611D01*
X124559003Y-39891398D01*
X121119072Y-39891398D01*
X121119072Y-39681999D01*
X121102008Y-39508745D01*
X121051472Y-39342149D01*
X120969405Y-39188613D01*
X120858962Y-39054038D01*
X120724387Y-38943595D01*
X120570851Y-38861528D01*
X120404255Y-38810992D01*
X120231001Y-38793928D01*
X119632000Y-38793928D01*
X119632000Y-37508801D01*
X119990005Y-37150797D01*
X120064890Y-37173513D01*
X120356000Y-37202185D01*
X120647111Y-37173513D01*
X120927034Y-37088599D01*
X121185014Y-36950706D01*
X121411134Y-36765134D01*
X121596706Y-36539014D01*
X121734599Y-36281033D01*
X121819513Y-36001110D01*
X121841000Y-35782949D01*
X121841000Y-35337050D01*
X121819513Y-35118889D01*
X121734599Y-34838966D01*
X121596706Y-34580986D01*
X121411134Y-34354866D01*
X121185013Y-34169294D01*
X120927033Y-34031401D01*
X120647110Y-33946487D01*
X120356000Y-33917815D01*
X120064889Y-33946487D01*
X119784966Y-34031401D01*
X119526986Y-34169294D01*
X119300866Y-34354866D01*
X119248777Y-34418337D01*
X119194405Y-34316614D01*
X119083962Y-34182038D01*
X118949386Y-34071595D01*
X118795850Y-33989528D01*
X118629254Y-33938992D01*
X118456000Y-33921928D01*
X117256000Y-33921928D01*
X117082746Y-33938992D01*
X116916150Y-33989528D01*
X116762614Y-34071595D01*
X116628038Y-34182038D01*
X116517595Y-34316614D01*
X116435528Y-34470150D01*
X116384992Y-34636746D01*
X116367928Y-34810000D01*
X116367928Y-36310000D01*
X116384992Y-36483254D01*
X116435528Y-36649850D01*
X116517595Y-36803386D01*
X116628038Y-36937962D01*
X116762614Y-37048405D01*
X116916150Y-37130472D01*
X117082746Y-37181008D01*
X117096001Y-37182313D01*
X117096000Y-38912386D01*
X117037613Y-38943595D01*
X116903038Y-39054038D01*
X116792595Y-39188613D01*
X116710528Y-39342149D01*
X116659992Y-39508745D01*
X116642928Y-39681999D01*
X116642928Y-40582001D01*
X116659992Y-40755255D01*
X116702686Y-40896000D01*
X112813322Y-40896000D01*
X112775999Y-40892324D01*
X112738676Y-40896000D01*
X112738667Y-40896000D01*
X112627014Y-40906997D01*
X112483753Y-40950454D01*
X112351724Y-41021026D01*
X112351722Y-41021027D01*
X112351723Y-41021027D01*
X112264996Y-41092201D01*
X112264992Y-41092205D01*
X112235999Y-41115999D01*
X112212205Y-41144992D01*
X111390270Y-41966928D01*
X110801999Y-41966928D01*
X110628745Y-41983992D01*
X110462149Y-42034528D01*
X110308613Y-42116595D01*
X110174038Y-42227038D01*
X110063595Y-42361613D01*
X109981528Y-42515149D01*
X109930992Y-42681745D01*
X109913928Y-42854999D01*
X109913928Y-43505001D01*
X109930992Y-43678255D01*
X109981528Y-43844851D01*
X110063595Y-43998387D01*
X110174038Y-44132962D01*
X110261816Y-44205000D01*
X110174038Y-44277038D01*
X110063595Y-44411613D01*
X109981528Y-44565149D01*
X109930992Y-44731745D01*
X109913928Y-44904999D01*
X109913928Y-45555001D01*
X109930992Y-45728255D01*
X109981528Y-45894851D01*
X110063595Y-46048387D01*
X110174038Y-46182962D01*
X110308613Y-46293405D01*
X110462149Y-46375472D01*
X110628745Y-46426008D01*
X110801999Y-46443072D01*
X111702001Y-46443072D01*
X111875255Y-46426008D01*
X112041851Y-46375472D01*
X112195387Y-46293405D01*
X112329962Y-46182962D01*
X112440405Y-46048387D01*
X112522472Y-45894851D01*
X112573008Y-45728255D01*
X112590072Y-45555001D01*
X112590072Y-44966729D01*
X113700802Y-43856000D01*
X113955197Y-43856000D01*
X113959498Y-43870180D01*
X114018463Y-43980494D01*
X114097815Y-44077185D01*
X114166899Y-44133881D01*
X114148056Y-44196000D01*
X114124998Y-44272014D01*
X114122802Y-44294309D01*
X114097815Y-44314815D01*
X114018463Y-44411506D01*
X113959498Y-44521820D01*
X113923188Y-44641518D01*
X113910928Y-44766000D01*
X113910928Y-46326000D01*
X113923188Y-46450482D01*
X113959498Y-46570180D01*
X114018463Y-46680494D01*
X114039001Y-46705519D01*
X114039000Y-47040386D01*
X113980613Y-47071595D01*
X113846038Y-47182038D01*
X113735595Y-47316613D01*
X113653528Y-47470149D01*
X113602992Y-47636745D01*
X113585928Y-47809999D01*
X113585928Y-48710001D01*
X113602992Y-48883255D01*
X113653528Y-49049851D01*
X113735595Y-49203387D01*
X113846038Y-49337962D01*
X113980613Y-49448405D01*
X114039001Y-49479614D01*
X114039000Y-50993197D01*
X113674072Y-51358126D01*
X113674072Y-50296000D01*
X113661812Y-50171518D01*
X113625502Y-50051820D01*
X113566537Y-49941506D01*
X113487185Y-49844815D01*
X113390494Y-49765463D01*
X113280180Y-49706498D01*
X113160482Y-49670188D01*
X113036000Y-49657928D01*
X111536000Y-49657928D01*
X111479588Y-49663484D01*
X111460482Y-49657688D01*
X111336000Y-49645428D01*
X110636000Y-49645428D01*
X110511518Y-49657688D01*
X110391820Y-49693998D01*
X110281506Y-49752963D01*
X110184815Y-49832315D01*
X110105463Y-49929006D01*
X110046498Y-50039320D01*
X110027203Y-50102928D01*
X109236000Y-50102928D01*
X109204808Y-50106000D01*
X109066649Y-50106000D01*
X108874195Y-50124955D01*
X108627259Y-50199862D01*
X108399682Y-50321505D01*
X108200208Y-50485208D01*
X108036505Y-50684682D01*
X107914862Y-50912259D01*
X107839955Y-51159195D01*
X107814662Y-51416000D01*
X107839955Y-51672805D01*
X107888528Y-51832928D01*
X107786000Y-51832928D01*
X107661518Y-51845188D01*
X107541820Y-51881498D01*
X107442000Y-51934854D01*
X107442000Y-36584472D01*
X108255000Y-36584472D01*
X108255000Y-37024728D01*
X108340890Y-37456525D01*
X108509369Y-37863269D01*
X108753962Y-38229329D01*
X109065271Y-38540638D01*
X109431331Y-38785231D01*
X109838075Y-38953710D01*
X110269872Y-39039600D01*
X110710128Y-39039600D01*
X111141925Y-38953710D01*
X111548669Y-38785231D01*
X111914729Y-38540638D01*
X112226038Y-38229329D01*
X112470631Y-37863269D01*
X112639110Y-37456525D01*
X112725000Y-37024728D01*
X112725000Y-36584472D01*
X112639110Y-36152675D01*
X112470631Y-35745931D01*
X112226038Y-35379871D01*
X111914729Y-35068562D01*
X111548669Y-34823969D01*
X111141925Y-34655490D01*
X110710128Y-34569600D01*
X110269872Y-34569600D01*
X109838075Y-34655490D01*
X109431331Y-34823969D01*
X109065271Y-35068562D01*
X108753962Y-35379871D01*
X108509369Y-35745931D01*
X108340890Y-36152675D01*
X108255000Y-36584472D01*
X107442000Y-36584472D01*
X107442000Y-33782000D01*
X182118000Y-33782000D01*
X182118000Y-63373000D01*
G37*
X182118000Y-63373000D02*
X170484735Y-63373000D01*
X167386000Y-60274265D01*
X167386000Y-56741235D01*
X168976706Y-58331942D01*
X169004541Y-58365859D01*
X169139909Y-58476953D01*
X169294349Y-58559503D01*
X169350504Y-58576537D01*
X169461925Y-58610336D01*
X169478525Y-58611971D01*
X169592533Y-58623200D01*
X169592540Y-58623200D01*
X169636200Y-58627500D01*
X169679860Y-58623200D01*
X172371540Y-58623200D01*
X172415200Y-58627500D01*
X172458860Y-58623200D01*
X172458867Y-58623200D01*
X172589474Y-58610336D01*
X172757051Y-58559503D01*
X172911491Y-58476953D01*
X173046859Y-58365859D01*
X173074699Y-58331936D01*
X174385358Y-57021277D01*
X174453340Y-57034800D01*
X174745860Y-57034800D01*
X175032758Y-56977732D01*
X175303011Y-56865790D01*
X175546232Y-56703275D01*
X175753075Y-56496432D01*
X175915590Y-56253211D01*
X176027532Y-55982958D01*
X176084600Y-55696060D01*
X176084600Y-55403540D01*
X176027532Y-55116642D01*
X175915590Y-54846389D01*
X175753075Y-54603168D01*
X175546232Y-54396325D01*
X175371840Y-54279800D01*
X175546232Y-54163275D01*
X175753075Y-53956432D01*
X175915590Y-53713211D01*
X176027532Y-53442958D01*
X176084600Y-53156060D01*
X176084600Y-52863540D01*
X176027532Y-52576642D01*
X175915590Y-52306389D01*
X175753075Y-52063168D01*
X175546232Y-51856325D01*
X175364066Y-51734605D01*
X175480955Y-51664978D01*
X175697188Y-51470069D01*
X175871241Y-51236720D01*
X175996425Y-50973899D01*
X176041076Y-50826690D01*
X175919755Y-50596800D01*
X174726600Y-50596800D01*
X174726600Y-50616800D01*
X174472600Y-50616800D01*
X174472600Y-50596800D01*
X174452600Y-50596800D01*
X174452600Y-50342800D01*
X174472600Y-50342800D01*
X174472600Y-50322800D01*
X174726600Y-50322800D01*
X174726600Y-50342800D01*
X175919755Y-50342800D01*
X176041076Y-50112910D01*
X175996425Y-49965701D01*
X175871241Y-49702880D01*
X175697188Y-49469531D01*
X175480955Y-49274622D01*
X175364066Y-49204995D01*
X175546232Y-49083275D01*
X175753075Y-48876432D01*
X175915590Y-48633211D01*
X176027532Y-48362958D01*
X176084600Y-48076060D01*
X176084600Y-47783540D01*
X176027532Y-47496642D01*
X175915590Y-47226389D01*
X175753075Y-46983168D01*
X175621220Y-46851313D01*
X175693780Y-46829302D01*
X175804094Y-46770337D01*
X175900785Y-46690985D01*
X175980137Y-46594294D01*
X176039102Y-46483980D01*
X176075412Y-46364282D01*
X176087672Y-46239800D01*
X176087672Y-44539800D01*
X176075412Y-44415318D01*
X176039102Y-44295620D01*
X175980137Y-44185306D01*
X175900785Y-44088615D01*
X175804094Y-44009263D01*
X175693780Y-43950298D01*
X175574082Y-43913988D01*
X175449600Y-43901728D01*
X173749600Y-43901728D01*
X173625118Y-43913988D01*
X173505420Y-43950298D01*
X173395106Y-44009263D01*
X173323535Y-44068000D01*
X169975072Y-44068000D01*
X169975072Y-43957000D01*
X169962812Y-43832518D01*
X169926502Y-43712820D01*
X169867537Y-43602506D01*
X169788185Y-43505815D01*
X169691494Y-43426463D01*
X169581180Y-43367498D01*
X169461482Y-43331188D01*
X169337000Y-43318928D01*
X168737000Y-43318928D01*
X168612518Y-43331188D01*
X168492820Y-43367498D01*
X168402000Y-43416043D01*
X168311180Y-43367498D01*
X168191482Y-43331188D01*
X168067000Y-43318928D01*
X167467000Y-43318928D01*
X167342518Y-43331188D01*
X167222820Y-43367498D01*
X167132000Y-43416043D01*
X167041180Y-43367498D01*
X166921482Y-43331188D01*
X166797000Y-43318928D01*
X166197000Y-43318928D01*
X166072518Y-43331188D01*
X165952820Y-43367498D01*
X165862000Y-43416043D01*
X165771180Y-43367498D01*
X165651482Y-43331188D01*
X165527000Y-43318928D01*
X164927000Y-43318928D01*
X164802518Y-43331188D01*
X164682820Y-43367498D01*
X164592000Y-43416043D01*
X164501180Y-43367498D01*
X164381482Y-43331188D01*
X164257000Y-43318928D01*
X163657000Y-43318928D01*
X163532518Y-43331188D01*
X163412820Y-43367498D01*
X163322000Y-43416043D01*
X163231180Y-43367498D01*
X163111482Y-43331188D01*
X162987000Y-43318928D01*
X162387000Y-43318928D01*
X162262518Y-43331188D01*
X162142820Y-43367498D01*
X162052000Y-43416043D01*
X161961180Y-43367498D01*
X161841482Y-43331188D01*
X161717000Y-43318928D01*
X161117000Y-43318928D01*
X160992518Y-43331188D01*
X160872820Y-43367498D01*
X160782000Y-43416043D01*
X160691180Y-43367498D01*
X160571482Y-43331188D01*
X160447000Y-43318928D01*
X160432750Y-43322000D01*
X160274000Y-43480750D01*
X160274000Y-44830000D01*
X160294000Y-44830000D01*
X160294000Y-45084000D01*
X160274000Y-45084000D01*
X160274000Y-45104000D01*
X160020000Y-45104000D01*
X160020000Y-45084000D01*
X160000000Y-45084000D01*
X160000000Y-44830000D01*
X160020000Y-44830000D01*
X160020000Y-43480750D01*
X159861250Y-43322000D01*
X159847000Y-43318928D01*
X159766000Y-43326906D01*
X159766000Y-42459235D01*
X160581235Y-41644000D01*
X160845411Y-41644000D01*
X161112989Y-41590775D01*
X161365043Y-41486371D01*
X161591886Y-41334799D01*
X161784799Y-41141886D01*
X161936371Y-40915043D01*
X162040775Y-40662989D01*
X162094000Y-40395411D01*
X162094000Y-40122589D01*
X162040775Y-39855011D01*
X161936371Y-39602957D01*
X161784799Y-39376114D01*
X161591886Y-39183201D01*
X161365043Y-39031629D01*
X161112989Y-38927225D01*
X160845411Y-38874000D01*
X160572589Y-38874000D01*
X160305011Y-38927225D01*
X160052957Y-39031629D01*
X159826114Y-39183201D01*
X159633201Y-39376114D01*
X159481629Y-39602957D01*
X159377225Y-39855011D01*
X159324000Y-40122589D01*
X159324000Y-40386765D01*
X158279259Y-41431506D01*
X158267830Y-41440886D01*
X158266495Y-41439259D01*
X158266494Y-41439258D01*
X158238659Y-41405341D01*
X158204742Y-41377506D01*
X157214000Y-40386765D01*
X157214000Y-40122589D01*
X157160775Y-39855011D01*
X157056371Y-39602957D01*
X156904799Y-39376114D01*
X156711886Y-39183201D01*
X156485043Y-39031629D01*
X156232989Y-38927225D01*
X155965411Y-38874000D01*
X155692589Y-38874000D01*
X155425011Y-38927225D01*
X155172957Y-39031629D01*
X154946114Y-39183201D01*
X154753201Y-39376114D01*
X154601629Y-39602957D01*
X154497225Y-39855011D01*
X154444000Y-40122589D01*
X154444000Y-40395411D01*
X154497225Y-40662989D01*
X154601629Y-40915043D01*
X154753201Y-41141886D01*
X154946114Y-41334799D01*
X155172957Y-41486371D01*
X155425011Y-41590775D01*
X155692589Y-41644000D01*
X155956765Y-41644000D01*
X156718001Y-42405237D01*
X156718001Y-43326906D01*
X156637000Y-43318928D01*
X156407730Y-43318928D01*
X155053794Y-41964993D01*
X155029991Y-41935989D01*
X154914266Y-41841016D01*
X154782237Y-41770444D01*
X154638976Y-41726987D01*
X154527323Y-41715990D01*
X154527312Y-41715990D01*
X154489990Y-41712314D01*
X154452668Y-41715990D01*
X153029612Y-41715990D01*
X152478030Y-41164409D01*
X152478030Y-39102122D01*
X152481706Y-39064799D01*
X152478030Y-39027476D01*
X152478030Y-39027467D01*
X152467033Y-38915814D01*
X152423576Y-38772553D01*
X152353004Y-38640524D01*
X152295674Y-38570667D01*
X152281829Y-38553796D01*
X152281825Y-38553792D01*
X152258031Y-38524799D01*
X152229039Y-38501006D01*
X150312504Y-36584472D01*
X176835000Y-36584472D01*
X176835000Y-37024728D01*
X176920890Y-37456525D01*
X177089369Y-37863269D01*
X177333962Y-38229329D01*
X177645271Y-38540638D01*
X178011331Y-38785231D01*
X178418075Y-38953710D01*
X178849872Y-39039600D01*
X179290128Y-39039600D01*
X179721925Y-38953710D01*
X180128669Y-38785231D01*
X180494729Y-38540638D01*
X180806038Y-38229329D01*
X181050631Y-37863269D01*
X181219110Y-37456525D01*
X181305000Y-37024728D01*
X181305000Y-36584472D01*
X181219110Y-36152675D01*
X181050631Y-35745931D01*
X180806038Y-35379871D01*
X180494729Y-35068562D01*
X180128669Y-34823969D01*
X179721925Y-34655490D01*
X179290128Y-34569600D01*
X178849872Y-34569600D01*
X178418075Y-34655490D01*
X178011331Y-34823969D01*
X177645271Y-35068562D01*
X177333962Y-35379871D01*
X177089369Y-35745931D01*
X176920890Y-36152675D01*
X176835000Y-36584472D01*
X150312504Y-36584472D01*
X150221002Y-36492971D01*
X150197204Y-36463973D01*
X150168204Y-36440173D01*
X150081479Y-36368999D01*
X149949449Y-36298427D01*
X149849645Y-36268153D01*
X149806189Y-36254971D01*
X149694536Y-36243974D01*
X149657203Y-36240297D01*
X149619871Y-36243974D01*
X143373351Y-36243972D01*
X143336028Y-36240296D01*
X143298705Y-36243972D01*
X143298696Y-36243972D01*
X143187043Y-36254969D01*
X143101120Y-36281033D01*
X143043781Y-36298426D01*
X142911751Y-36368998D01*
X142825025Y-36440173D01*
X142825021Y-36440177D01*
X142796028Y-36463971D01*
X142772234Y-36492964D01*
X141030199Y-38235000D01*
X140858212Y-38235000D01*
X140638933Y-38278617D01*
X140432376Y-38364176D01*
X140335000Y-38429241D01*
X140237624Y-38364176D01*
X140031067Y-38278617D01*
X139811788Y-38235000D01*
X139639801Y-38235000D01*
X139541803Y-38137002D01*
X139518001Y-38107999D01*
X139402276Y-38013026D01*
X139270247Y-37942454D01*
X139126986Y-37898997D01*
X139015333Y-37888000D01*
X139015322Y-37888000D01*
X138978000Y-37884324D01*
X138940678Y-37888000D01*
X137274916Y-37888000D01*
X137235571Y-37793012D01*
X137038035Y-37497379D01*
X136786621Y-37245965D01*
X136490988Y-37048429D01*
X136162499Y-36912365D01*
X135813777Y-36843000D01*
X135458223Y-36843000D01*
X135109501Y-36912365D01*
X134781012Y-37048429D01*
X134485379Y-37245965D01*
X134233965Y-37497379D01*
X134036429Y-37793012D01*
X133900365Y-38121501D01*
X133831000Y-38470223D01*
X133831000Y-38825777D01*
X133900365Y-39174499D01*
X134036429Y-39502988D01*
X134233965Y-39798621D01*
X134485379Y-40050035D01*
X134781012Y-40247571D01*
X135109501Y-40383635D01*
X135458223Y-40453000D01*
X135813777Y-40453000D01*
X136162499Y-40383635D01*
X136490988Y-40247571D01*
X136786621Y-40050035D01*
X137038035Y-39798621D01*
X137235571Y-39502988D01*
X137274916Y-39408000D01*
X138565000Y-39408000D01*
X138565000Y-39481788D01*
X138608617Y-39701067D01*
X138654888Y-39812774D01*
X138610498Y-39895820D01*
X138574188Y-40015518D01*
X138561928Y-40140000D01*
X138565000Y-40354250D01*
X138723750Y-40513000D01*
X139573000Y-40513000D01*
X139573000Y-40501974D01*
X139588212Y-40505000D01*
X139811788Y-40505000D01*
X139827000Y-40501974D01*
X139827000Y-40513000D01*
X139838026Y-40513000D01*
X139835000Y-40528212D01*
X139835000Y-40751788D01*
X139838026Y-40767000D01*
X139827000Y-40767000D01*
X139827000Y-41616250D01*
X139985750Y-41775000D01*
X140081000Y-41776366D01*
X140081001Y-44335763D01*
X138430000Y-45986764D01*
X133583236Y-41140000D01*
X138561928Y-41140000D01*
X138574188Y-41264482D01*
X138610498Y-41384180D01*
X138669463Y-41494494D01*
X138748815Y-41591185D01*
X138845506Y-41670537D01*
X138955820Y-41729502D01*
X139075518Y-41765812D01*
X139200000Y-41778072D01*
X139414250Y-41775000D01*
X139573000Y-41616250D01*
X139573000Y-40767000D01*
X138723750Y-40767000D01*
X138565000Y-40925750D01*
X138561928Y-41140000D01*
X133583236Y-41140000D01*
X127993499Y-35550264D01*
X127965659Y-35516341D01*
X127830291Y-35405247D01*
X127675851Y-35322697D01*
X127508274Y-35271864D01*
X127377667Y-35259000D01*
X127377660Y-35259000D01*
X127334000Y-35254700D01*
X127290340Y-35259000D01*
X127212845Y-35259000D01*
X127038035Y-34997379D01*
X126786621Y-34745965D01*
X126490988Y-34548429D01*
X126162499Y-34412365D01*
X125813777Y-34343000D01*
X125458223Y-34343000D01*
X125109501Y-34412365D01*
X124781012Y-34548429D01*
X124485379Y-34745965D01*
X124233965Y-34997379D01*
X124036429Y-35293012D01*
X123900365Y-35621501D01*
X123831000Y-35970223D01*
X123831000Y-36325777D01*
X123900365Y-36674499D01*
X124036429Y-37002988D01*
X124233965Y-37298621D01*
X124485379Y-37550035D01*
X124781012Y-37747571D01*
X125109501Y-37883635D01*
X125458223Y-37953000D01*
X125813777Y-37953000D01*
X126162499Y-37883635D01*
X126490988Y-37747571D01*
X126786621Y-37550035D01*
X127038035Y-37298621D01*
X127113878Y-37185113D01*
X137172764Y-47244000D01*
X131482259Y-52934506D01*
X131448342Y-52962341D01*
X131420507Y-52996258D01*
X131420505Y-52996260D01*
X131337248Y-53097709D01*
X131254698Y-53252148D01*
X131203864Y-53419726D01*
X131186700Y-53594000D01*
X131191001Y-53637669D01*
X131191000Y-54331531D01*
X131162795Y-54373744D01*
X131084774Y-54562102D01*
X131045000Y-54762061D01*
X131045000Y-54965939D01*
X131084774Y-55165898D01*
X131162795Y-55354256D01*
X131276063Y-55523774D01*
X131420226Y-55667937D01*
X131589744Y-55781205D01*
X131778102Y-55859226D01*
X131978061Y-55899000D01*
X132181939Y-55899000D01*
X132381898Y-55859226D01*
X132570256Y-55781205D01*
X132739774Y-55667937D01*
X132883937Y-55523774D01*
X132997205Y-55354256D01*
X133075226Y-55165898D01*
X133115000Y-54965939D01*
X133115000Y-54762061D01*
X133075226Y-54562102D01*
X132997205Y-54373744D01*
X132969000Y-54331532D01*
X132969000Y-53962235D01*
X138430000Y-48501236D01*
X141580505Y-51651741D01*
X141608341Y-51685659D01*
X141743709Y-51796753D01*
X141898149Y-51879303D01*
X142003568Y-51911281D01*
X142065725Y-51930136D01*
X142082325Y-51931771D01*
X142196333Y-51943000D01*
X142196340Y-51943000D01*
X142240000Y-51947300D01*
X142283660Y-51943000D01*
X158525765Y-51943000D01*
X158279259Y-52189506D01*
X158245342Y-52217341D01*
X158217507Y-52251258D01*
X158217505Y-52251260D01*
X158134248Y-52352709D01*
X158051698Y-52507148D01*
X158000864Y-52674726D01*
X157995651Y-52727659D01*
X157907000Y-52718928D01*
X157892750Y-52722000D01*
X157734000Y-52880750D01*
X157734000Y-54230000D01*
X157754000Y-54230000D01*
X157754000Y-54484000D01*
X157734000Y-54484000D01*
X157734000Y-55833250D01*
X157892750Y-55992000D01*
X157907000Y-55995072D01*
X157988000Y-55987094D01*
X157988001Y-57245613D01*
X157907482Y-57221188D01*
X157783000Y-57208928D01*
X157493750Y-57212000D01*
X157335000Y-57370750D01*
X157335000Y-58420000D01*
X157355000Y-58420000D01*
X157355000Y-58674000D01*
X157335000Y-58674000D01*
X157335000Y-59723250D01*
X157493750Y-59882000D01*
X157783000Y-59885072D01*
X157907482Y-59872812D01*
X158027180Y-59836502D01*
X158137494Y-59777537D01*
X158234185Y-59698185D01*
X158299658Y-59618406D01*
X158305038Y-59624962D01*
X158439613Y-59735405D01*
X158593149Y-59817472D01*
X158759745Y-59868008D01*
X158932999Y-59885072D01*
X159583001Y-59885072D01*
X159756255Y-59868008D01*
X159766000Y-59865052D01*
X159766000Y-60350398D01*
X153695337Y-60350398D01*
X154798735Y-59247000D01*
X155994928Y-59247000D01*
X156007188Y-59371482D01*
X156043498Y-59491180D01*
X156102463Y-59601494D01*
X156181815Y-59698185D01*
X156278506Y-59777537D01*
X156388820Y-59836502D01*
X156508518Y-59872812D01*
X156633000Y-59885072D01*
X156922250Y-59882000D01*
X157081000Y-59723250D01*
X157081000Y-58674000D01*
X156156750Y-58674000D01*
X155998000Y-58832750D01*
X155994928Y-59247000D01*
X154798735Y-59247000D01*
X155996428Y-58049308D01*
X155998000Y-58261250D01*
X156156750Y-58420000D01*
X157081000Y-58420000D01*
X157081000Y-57370750D01*
X156922250Y-57212000D01*
X156834666Y-57211070D01*
X156934742Y-57110994D01*
X156968659Y-57083159D01*
X157079753Y-56947791D01*
X157162303Y-56793351D01*
X157213136Y-56625774D01*
X157226000Y-56495167D01*
X157230301Y-56451500D01*
X157226000Y-56407832D01*
X157226000Y-55987094D01*
X157307000Y-55995072D01*
X157321250Y-55992000D01*
X157480000Y-55833250D01*
X157480000Y-54484000D01*
X157460000Y-54484000D01*
X157460000Y-54230000D01*
X157480000Y-54230000D01*
X157480000Y-52880750D01*
X157321250Y-52722000D01*
X157307000Y-52718928D01*
X157182518Y-52731188D01*
X157062820Y-52767498D01*
X156972000Y-52816043D01*
X156881180Y-52767498D01*
X156761482Y-52731188D01*
X156637000Y-52718928D01*
X156037000Y-52718928D01*
X155912518Y-52731188D01*
X155792820Y-52767498D01*
X155702000Y-52816043D01*
X155611180Y-52767498D01*
X155491482Y-52731188D01*
X155367000Y-52718928D01*
X154767000Y-52718928D01*
X154642518Y-52731188D01*
X154522820Y-52767498D01*
X154432000Y-52816043D01*
X154341180Y-52767498D01*
X154221482Y-52731188D01*
X154097000Y-52718928D01*
X153497000Y-52718928D01*
X153372518Y-52731188D01*
X153252820Y-52767498D01*
X153162000Y-52816043D01*
X153071180Y-52767498D01*
X152951482Y-52731188D01*
X152827000Y-52718928D01*
X152227000Y-52718928D01*
X152102518Y-52731188D01*
X151982820Y-52767498D01*
X151872506Y-52826463D01*
X151775815Y-52905815D01*
X151696463Y-53002506D01*
X151637498Y-53112820D01*
X151601188Y-53232518D01*
X151588928Y-53357000D01*
X151588928Y-55357000D01*
X151601188Y-55481482D01*
X151637498Y-55601180D01*
X151696463Y-55711494D01*
X151775815Y-55808185D01*
X151872506Y-55887537D01*
X151982820Y-55946502D01*
X152102518Y-55982812D01*
X152227000Y-55995072D01*
X152827000Y-55995072D01*
X152908001Y-55987094D01*
X152908001Y-56593287D01*
X149808099Y-59693190D01*
X116245469Y-59693190D01*
X116201809Y-59688890D01*
X116158149Y-59693190D01*
X116158143Y-59693190D01*
X116060734Y-59702784D01*
X116027534Y-59706054D01*
X115930777Y-59735405D01*
X115859959Y-59756887D01*
X115705519Y-59839437D01*
X115570151Y-59950531D01*
X115542316Y-59984448D01*
X112153765Y-63373000D01*
X107442000Y-63373000D01*
X107442000Y-56357146D01*
X107541820Y-56410502D01*
X107661518Y-56446812D01*
X107786000Y-56459072D01*
X107888528Y-56459072D01*
X107839955Y-56619195D01*
X107814662Y-56876000D01*
X107839955Y-57132805D01*
X107914862Y-57379741D01*
X108036505Y-57607318D01*
X108200208Y-57806792D01*
X108399682Y-57970495D01*
X108627259Y-58092138D01*
X108874195Y-58167045D01*
X109066649Y-58186000D01*
X109075876Y-58186000D01*
X109111518Y-58196812D01*
X109236000Y-58209072D01*
X110018102Y-58209072D01*
X110046498Y-58302680D01*
X110105463Y-58412994D01*
X110184815Y-58509685D01*
X110281506Y-58589037D01*
X110391820Y-58648002D01*
X110511518Y-58684312D01*
X110636000Y-58696572D01*
X111336000Y-58696572D01*
X111460482Y-58684312D01*
X111484490Y-58677029D01*
X111556000Y-58684072D01*
X113056000Y-58684072D01*
X113180482Y-58671812D01*
X113300180Y-58635502D01*
X113410494Y-58576537D01*
X113507185Y-58497185D01*
X113586537Y-58400494D01*
X113645502Y-58290180D01*
X113681812Y-58170482D01*
X113694072Y-58046000D01*
X113694072Y-56593017D01*
X113696733Y-56566000D01*
X113694072Y-56538983D01*
X113694072Y-56073755D01*
X113801001Y-55986001D01*
X113824804Y-55956997D01*
X117360004Y-52421798D01*
X117389001Y-52398001D01*
X117483974Y-52282276D01*
X117554546Y-52150247D01*
X117598003Y-52006986D01*
X117609000Y-51895333D01*
X117609000Y-51895324D01*
X117612676Y-51858001D01*
X117609000Y-51820678D01*
X117609000Y-49479614D01*
X117667387Y-49448405D01*
X117801962Y-49337962D01*
X117912405Y-49203387D01*
X117994472Y-49049851D01*
X118045008Y-48883255D01*
X118062072Y-48710001D01*
X118062072Y-47809999D01*
X118045008Y-47636745D01*
X117994472Y-47470149D01*
X117912405Y-47316613D01*
X117801962Y-47182038D01*
X117667387Y-47071595D01*
X117513851Y-46989528D01*
X117347255Y-46938992D01*
X117285722Y-46932932D01*
X117343180Y-46915502D01*
X117453494Y-46856537D01*
X117550185Y-46777185D01*
X117629537Y-46680494D01*
X117688502Y-46570180D01*
X117724812Y-46450482D01*
X117737072Y-46326000D01*
X117737072Y-46056000D01*
X119213843Y-46056000D01*
X119318038Y-46182962D01*
X119452613Y-46293405D01*
X119606149Y-46375472D01*
X119772745Y-46426008D01*
X119945999Y-46443072D01*
X120846001Y-46443072D01*
X121019255Y-46426008D01*
X121185851Y-46375472D01*
X121339387Y-46293405D01*
X121473962Y-46182962D01*
X121584405Y-46048387D01*
X121666472Y-45894851D01*
X121717008Y-45728255D01*
X121734072Y-45555001D01*
X121734072Y-44966730D01*
X122431009Y-44269794D01*
X122460001Y-44246001D01*
X122483795Y-44217008D01*
X122483799Y-44217004D01*
X122554973Y-44130277D01*
X122554974Y-44130276D01*
X122625546Y-43998247D01*
X122669003Y-43854986D01*
X122680000Y-43743333D01*
X122680000Y-43743324D01*
X122683676Y-43706001D01*
X122680000Y-43668678D01*
X122680000Y-42404602D01*
X124559003Y-42404602D01*
X124675275Y-42686389D01*
X124993860Y-42844257D01*
X125337122Y-42936938D01*
X125691869Y-42960873D01*
X126044470Y-42915139D01*
X126381373Y-42801495D01*
X126596725Y-42686389D01*
X126712997Y-42404602D01*
X125636000Y-41327605D01*
X124559003Y-42404602D01*
X122680000Y-42404602D01*
X122680000Y-42183322D01*
X122683676Y-42145999D01*
X122680000Y-42108676D01*
X122680000Y-42108667D01*
X122669003Y-41997014D01*
X122625546Y-41853753D01*
X122583451Y-41775000D01*
X122554974Y-41721723D01*
X122483799Y-41634997D01*
X122460001Y-41605999D01*
X122431003Y-41582201D01*
X122052671Y-41203869D01*
X123823127Y-41203869D01*
X123868861Y-41556470D01*
X123982505Y-41893373D01*
X124097611Y-42108725D01*
X124379398Y-42224997D01*
X125456395Y-41148000D01*
X125815605Y-41148000D01*
X126892602Y-42224997D01*
X127174389Y-42108725D01*
X127332257Y-41790140D01*
X127424938Y-41446878D01*
X127448873Y-41092131D01*
X127403139Y-40739530D01*
X127289495Y-40402627D01*
X127174389Y-40187275D01*
X126892602Y-40071003D01*
X125815605Y-41148000D01*
X125456395Y-41148000D01*
X124379398Y-40071003D01*
X124097611Y-40187275D01*
X123939743Y-40505860D01*
X123847062Y-40849122D01*
X123823127Y-41203869D01*
X122052671Y-41203869D01*
X121119072Y-40270271D01*
X121119072Y-39891398D01*
X124559003Y-39891398D01*
X125636000Y-40968395D01*
X126712997Y-39891398D01*
X126596725Y-39609611D01*
X126278140Y-39451743D01*
X125934878Y-39359062D01*
X125580131Y-39335127D01*
X125227530Y-39380861D01*
X124890627Y-39494505D01*
X124675275Y-39609611D01*
X124559003Y-39891398D01*
X121119072Y-39891398D01*
X121119072Y-39681999D01*
X121102008Y-39508745D01*
X121051472Y-39342149D01*
X120969405Y-39188613D01*
X120858962Y-39054038D01*
X120724387Y-38943595D01*
X120570851Y-38861528D01*
X120404255Y-38810992D01*
X120231001Y-38793928D01*
X119632000Y-38793928D01*
X119632000Y-37508801D01*
X119990005Y-37150797D01*
X120064890Y-37173513D01*
X120356000Y-37202185D01*
X120647111Y-37173513D01*
X120927034Y-37088599D01*
X121185014Y-36950706D01*
X121411134Y-36765134D01*
X121596706Y-36539014D01*
X121734599Y-36281033D01*
X121819513Y-36001110D01*
X121841000Y-35782949D01*
X121841000Y-35337050D01*
X121819513Y-35118889D01*
X121734599Y-34838966D01*
X121596706Y-34580986D01*
X121411134Y-34354866D01*
X121185013Y-34169294D01*
X120927033Y-34031401D01*
X120647110Y-33946487D01*
X120356000Y-33917815D01*
X120064889Y-33946487D01*
X119784966Y-34031401D01*
X119526986Y-34169294D01*
X119300866Y-34354866D01*
X119248777Y-34418337D01*
X119194405Y-34316614D01*
X119083962Y-34182038D01*
X118949386Y-34071595D01*
X118795850Y-33989528D01*
X118629254Y-33938992D01*
X118456000Y-33921928D01*
X117256000Y-33921928D01*
X117082746Y-33938992D01*
X116916150Y-33989528D01*
X116762614Y-34071595D01*
X116628038Y-34182038D01*
X116517595Y-34316614D01*
X116435528Y-34470150D01*
X116384992Y-34636746D01*
X116367928Y-34810000D01*
X116367928Y-36310000D01*
X116384992Y-36483254D01*
X116435528Y-36649850D01*
X116517595Y-36803386D01*
X116628038Y-36937962D01*
X116762614Y-37048405D01*
X116916150Y-37130472D01*
X117082746Y-37181008D01*
X117096001Y-37182313D01*
X117096000Y-38912386D01*
X117037613Y-38943595D01*
X116903038Y-39054038D01*
X116792595Y-39188613D01*
X116710528Y-39342149D01*
X116659992Y-39508745D01*
X116642928Y-39681999D01*
X116642928Y-40582001D01*
X116659992Y-40755255D01*
X116702686Y-40896000D01*
X112813322Y-40896000D01*
X112775999Y-40892324D01*
X112738676Y-40896000D01*
X112738667Y-40896000D01*
X112627014Y-40906997D01*
X112483753Y-40950454D01*
X112351724Y-41021026D01*
X112351722Y-41021027D01*
X112351723Y-41021027D01*
X112264996Y-41092201D01*
X112264992Y-41092205D01*
X112235999Y-41115999D01*
X112212205Y-41144992D01*
X111390270Y-41966928D01*
X110801999Y-41966928D01*
X110628745Y-41983992D01*
X110462149Y-42034528D01*
X110308613Y-42116595D01*
X110174038Y-42227038D01*
X110063595Y-42361613D01*
X109981528Y-42515149D01*
X109930992Y-42681745D01*
X109913928Y-42854999D01*
X109913928Y-43505001D01*
X109930992Y-43678255D01*
X109981528Y-43844851D01*
X110063595Y-43998387D01*
X110174038Y-44132962D01*
X110261816Y-44205000D01*
X110174038Y-44277038D01*
X110063595Y-44411613D01*
X109981528Y-44565149D01*
X109930992Y-44731745D01*
X109913928Y-44904999D01*
X109913928Y-45555001D01*
X109930992Y-45728255D01*
X109981528Y-45894851D01*
X110063595Y-46048387D01*
X110174038Y-46182962D01*
X110308613Y-46293405D01*
X110462149Y-46375472D01*
X110628745Y-46426008D01*
X110801999Y-46443072D01*
X111702001Y-46443072D01*
X111875255Y-46426008D01*
X112041851Y-46375472D01*
X112195387Y-46293405D01*
X112329962Y-46182962D01*
X112440405Y-46048387D01*
X112522472Y-45894851D01*
X112573008Y-45728255D01*
X112590072Y-45555001D01*
X112590072Y-44966729D01*
X113700802Y-43856000D01*
X113955197Y-43856000D01*
X113959498Y-43870180D01*
X114018463Y-43980494D01*
X114097815Y-44077185D01*
X114166899Y-44133881D01*
X114148056Y-44196000D01*
X114124998Y-44272014D01*
X114122802Y-44294309D01*
X114097815Y-44314815D01*
X114018463Y-44411506D01*
X113959498Y-44521820D01*
X113923188Y-44641518D01*
X113910928Y-44766000D01*
X113910928Y-46326000D01*
X113923188Y-46450482D01*
X113959498Y-46570180D01*
X114018463Y-46680494D01*
X114039001Y-46705519D01*
X114039000Y-47040386D01*
X113980613Y-47071595D01*
X113846038Y-47182038D01*
X113735595Y-47316613D01*
X113653528Y-47470149D01*
X113602992Y-47636745D01*
X113585928Y-47809999D01*
X113585928Y-48710001D01*
X113602992Y-48883255D01*
X113653528Y-49049851D01*
X113735595Y-49203387D01*
X113846038Y-49337962D01*
X113980613Y-49448405D01*
X114039001Y-49479614D01*
X114039000Y-50993197D01*
X113674072Y-51358126D01*
X113674072Y-50296000D01*
X113661812Y-50171518D01*
X113625502Y-50051820D01*
X113566537Y-49941506D01*
X113487185Y-49844815D01*
X113390494Y-49765463D01*
X113280180Y-49706498D01*
X113160482Y-49670188D01*
X113036000Y-49657928D01*
X111536000Y-49657928D01*
X111479588Y-49663484D01*
X111460482Y-49657688D01*
X111336000Y-49645428D01*
X110636000Y-49645428D01*
X110511518Y-49657688D01*
X110391820Y-49693998D01*
X110281506Y-49752963D01*
X110184815Y-49832315D01*
X110105463Y-49929006D01*
X110046498Y-50039320D01*
X110027203Y-50102928D01*
X109236000Y-50102928D01*
X109204808Y-50106000D01*
X109066649Y-50106000D01*
X108874195Y-50124955D01*
X108627259Y-50199862D01*
X108399682Y-50321505D01*
X108200208Y-50485208D01*
X108036505Y-50684682D01*
X107914862Y-50912259D01*
X107839955Y-51159195D01*
X107814662Y-51416000D01*
X107839955Y-51672805D01*
X107888528Y-51832928D01*
X107786000Y-51832928D01*
X107661518Y-51845188D01*
X107541820Y-51881498D01*
X107442000Y-51934854D01*
X107442000Y-36584472D01*
X108255000Y-36584472D01*
X108255000Y-37024728D01*
X108340890Y-37456525D01*
X108509369Y-37863269D01*
X108753962Y-38229329D01*
X109065271Y-38540638D01*
X109431331Y-38785231D01*
X109838075Y-38953710D01*
X110269872Y-39039600D01*
X110710128Y-39039600D01*
X111141925Y-38953710D01*
X111548669Y-38785231D01*
X111914729Y-38540638D01*
X112226038Y-38229329D01*
X112470631Y-37863269D01*
X112639110Y-37456525D01*
X112725000Y-37024728D01*
X112725000Y-36584472D01*
X112639110Y-36152675D01*
X112470631Y-35745931D01*
X112226038Y-35379871D01*
X111914729Y-35068562D01*
X111548669Y-34823969D01*
X111141925Y-34655490D01*
X110710128Y-34569600D01*
X110269872Y-34569600D01*
X109838075Y-34655490D01*
X109431331Y-34823969D01*
X109065271Y-35068562D01*
X108753962Y-35379871D01*
X108509369Y-35745931D01*
X108340890Y-36152675D01*
X108255000Y-36584472D01*
X107442000Y-36584472D01*
X107442000Y-33782000D01*
X182118000Y-33782000D01*
X182118000Y-63373000D01*
M02*
