G04 #@! TF.GenerationSoftware,KiCad,Pcbnew,5.1.5*
G04 #@! TF.CreationDate,2020-01-21T16:39:42-05:00*
G04 #@! TF.ProjectId,rpn_mxb,72706e5f-6d78-4622-9e6b-696361645f70,rev?*
G04 #@! TF.SameCoordinates,Original*
G04 #@! TF.FileFunction,Legend,Top*
G04 #@! TF.FilePolarity,Positive*
%FSLAX46Y46*%
G04 Gerber Fmt 4.6, Leading zero omitted, Abs format (unit mm)*
G04 Created by KiCad (PCBNEW 5.1.5) date 2020-01-21 16:39:42*
%MOMM*%
%LPD*%
G04 APERTURE LIST*
%ADD10C,0.381000*%
%ADD11C,0.120000*%
%ADD12C,0.150000*%
G04 APERTURE END LIST*
D10*
X118908285Y-54452761D02*
X119005047Y-54356000D01*
X119198571Y-54259238D01*
X119682380Y-54259238D01*
X119875904Y-54356000D01*
X119972666Y-54452761D01*
X120069428Y-54646285D01*
X120069428Y-54839809D01*
X119972666Y-55130095D01*
X118811523Y-56291238D01*
X120069428Y-56291238D01*
X121327333Y-54259238D02*
X121520857Y-54259238D01*
X121714380Y-54356000D01*
X121811142Y-54452761D01*
X121907904Y-54646285D01*
X122004666Y-55033333D01*
X122004666Y-55517142D01*
X121907904Y-55904190D01*
X121811142Y-56097714D01*
X121714380Y-56194476D01*
X121520857Y-56291238D01*
X121327333Y-56291238D01*
X121133809Y-56194476D01*
X121037047Y-56097714D01*
X120940285Y-55904190D01*
X120843523Y-55517142D01*
X120843523Y-55033333D01*
X120940285Y-54646285D01*
X121037047Y-54452761D01*
X121133809Y-54356000D01*
X121327333Y-54259238D01*
X122778761Y-54452761D02*
X122875523Y-54356000D01*
X123069047Y-54259238D01*
X123552857Y-54259238D01*
X123746380Y-54356000D01*
X123843142Y-54452761D01*
X123939904Y-54646285D01*
X123939904Y-54839809D01*
X123843142Y-55130095D01*
X122682000Y-56291238D01*
X123939904Y-56291238D01*
X125197809Y-54259238D02*
X125391333Y-54259238D01*
X125584857Y-54356000D01*
X125681619Y-54452761D01*
X125778380Y-54646285D01*
X125875142Y-55033333D01*
X125875142Y-55517142D01*
X125778380Y-55904190D01*
X125681619Y-56097714D01*
X125584857Y-56194476D01*
X125391333Y-56291238D01*
X125197809Y-56291238D01*
X125004285Y-56194476D01*
X124907523Y-56097714D01*
X124810761Y-55904190D01*
X124714000Y-55517142D01*
X124714000Y-55033333D01*
X124810761Y-54646285D01*
X124907523Y-54452761D01*
X125004285Y-54356000D01*
X125197809Y-54259238D01*
X126746000Y-55517142D02*
X128294190Y-55517142D01*
X129648857Y-54259238D02*
X129842380Y-54259238D01*
X130035904Y-54356000D01*
X130132666Y-54452761D01*
X130229428Y-54646285D01*
X130326190Y-55033333D01*
X130326190Y-55517142D01*
X130229428Y-55904190D01*
X130132666Y-56097714D01*
X130035904Y-56194476D01*
X129842380Y-56291238D01*
X129648857Y-56291238D01*
X129455333Y-56194476D01*
X129358571Y-56097714D01*
X129261809Y-55904190D01*
X129165047Y-55517142D01*
X129165047Y-55033333D01*
X129261809Y-54646285D01*
X129358571Y-54452761D01*
X129455333Y-54356000D01*
X129648857Y-54259238D01*
X132261428Y-56291238D02*
X131100285Y-56291238D01*
X131680857Y-56291238D02*
X131680857Y-54259238D01*
X131487333Y-54549523D01*
X131293809Y-54743047D01*
X131100285Y-54839809D01*
X133132285Y-55517142D02*
X134680476Y-55517142D01*
X135551333Y-54452761D02*
X135648095Y-54356000D01*
X135841619Y-54259238D01*
X136325428Y-54259238D01*
X136518952Y-54356000D01*
X136615714Y-54452761D01*
X136712476Y-54646285D01*
X136712476Y-54839809D01*
X136615714Y-55130095D01*
X135454571Y-56291238D01*
X136712476Y-56291238D01*
X138647714Y-56291238D02*
X137486571Y-56291238D01*
X138067142Y-56291238D02*
X138067142Y-54259238D01*
X137873619Y-54549523D01*
X137680095Y-54743047D01*
X137486571Y-54839809D01*
X119174380Y-52281666D02*
X120142000Y-52281666D01*
X118980857Y-52862238D02*
X119658190Y-50830238D01*
X120335523Y-52862238D01*
X121883714Y-52862238D02*
X121883714Y-51797857D01*
X121786952Y-51604333D01*
X121593428Y-51507571D01*
X121206380Y-51507571D01*
X121012857Y-51604333D01*
X121883714Y-52765476D02*
X121690190Y-52862238D01*
X121206380Y-52862238D01*
X121012857Y-52765476D01*
X120916095Y-52571952D01*
X120916095Y-52378428D01*
X121012857Y-52184904D01*
X121206380Y-52088142D01*
X121690190Y-52088142D01*
X121883714Y-51991380D01*
X122851333Y-52862238D02*
X122851333Y-51507571D01*
X122851333Y-51894619D02*
X122948095Y-51701095D01*
X123044857Y-51604333D01*
X123238380Y-51507571D01*
X123431904Y-51507571D01*
X124399523Y-52862238D02*
X124206000Y-52765476D01*
X124109238Y-52668714D01*
X124012476Y-52475190D01*
X124012476Y-51894619D01*
X124109238Y-51701095D01*
X124206000Y-51604333D01*
X124399523Y-51507571D01*
X124689809Y-51507571D01*
X124883333Y-51604333D01*
X124980095Y-51701095D01*
X125076857Y-51894619D01*
X125076857Y-52475190D01*
X124980095Y-52668714D01*
X124883333Y-52765476D01*
X124689809Y-52862238D01*
X124399523Y-52862238D01*
X125947714Y-51507571D02*
X125947714Y-52862238D01*
X125947714Y-51701095D02*
X126044476Y-51604333D01*
X126238000Y-51507571D01*
X126528285Y-51507571D01*
X126721809Y-51604333D01*
X126818571Y-51797857D01*
X126818571Y-52862238D01*
X129334380Y-52862238D02*
X129334380Y-50830238D01*
X130011714Y-52281666D01*
X130689047Y-50830238D01*
X130689047Y-52862238D01*
X131946952Y-52862238D02*
X131753428Y-52765476D01*
X131656666Y-52668714D01*
X131559904Y-52475190D01*
X131559904Y-51894619D01*
X131656666Y-51701095D01*
X131753428Y-51604333D01*
X131946952Y-51507571D01*
X132237238Y-51507571D01*
X132430761Y-51604333D01*
X132527523Y-51701095D01*
X132624285Y-51894619D01*
X132624285Y-52475190D01*
X132527523Y-52668714D01*
X132430761Y-52765476D01*
X132237238Y-52862238D01*
X131946952Y-52862238D01*
X133495142Y-52862238D02*
X133495142Y-51507571D01*
X133495142Y-51894619D02*
X133591904Y-51701095D01*
X133688666Y-51604333D01*
X133882190Y-51507571D01*
X134075714Y-51507571D01*
X134753047Y-52862238D02*
X134753047Y-51507571D01*
X134753047Y-51894619D02*
X134849809Y-51701095D01*
X134946571Y-51604333D01*
X135140095Y-51507571D01*
X135333619Y-51507571D01*
X136010952Y-52862238D02*
X136010952Y-51507571D01*
X136010952Y-50830238D02*
X135914190Y-50927000D01*
X136010952Y-51023761D01*
X136107714Y-50927000D01*
X136010952Y-50830238D01*
X136010952Y-51023761D01*
X136881809Y-52765476D02*
X137075333Y-52862238D01*
X137462380Y-52862238D01*
X137655904Y-52765476D01*
X137752666Y-52571952D01*
X137752666Y-52475190D01*
X137655904Y-52281666D01*
X137462380Y-52184904D01*
X137172095Y-52184904D01*
X136978571Y-52088142D01*
X136881809Y-51894619D01*
X136881809Y-51797857D01*
X136978571Y-51604333D01*
X137172095Y-51507571D01*
X137462380Y-51507571D01*
X137655904Y-51604333D01*
X138913809Y-52862238D02*
X138720285Y-52765476D01*
X138623523Y-52668714D01*
X138526761Y-52475190D01*
X138526761Y-51894619D01*
X138623523Y-51701095D01*
X138720285Y-51604333D01*
X138913809Y-51507571D01*
X139204095Y-51507571D01*
X139397619Y-51604333D01*
X139494380Y-51701095D01*
X139591142Y-51894619D01*
X139591142Y-52475190D01*
X139494380Y-52668714D01*
X139397619Y-52765476D01*
X139204095Y-52862238D01*
X138913809Y-52862238D01*
X140462000Y-51507571D02*
X140462000Y-52862238D01*
X140462000Y-51701095D02*
X140558761Y-51604333D01*
X140752285Y-51507571D01*
X141042571Y-51507571D01*
X141236095Y-51604333D01*
X141332857Y-51797857D01*
X141332857Y-52862238D01*
X118968761Y-49687238D02*
X118968761Y-47655238D01*
X119646095Y-49106666D01*
X120323428Y-47655238D01*
X120323428Y-49687238D01*
X121097523Y-47655238D02*
X122452190Y-49687238D01*
X122452190Y-47655238D02*
X121097523Y-49687238D01*
X123903619Y-48622857D02*
X124193904Y-48719619D01*
X124290666Y-48816380D01*
X124387428Y-49009904D01*
X124387428Y-49300190D01*
X124290666Y-49493714D01*
X124193904Y-49590476D01*
X124000380Y-49687238D01*
X123226285Y-49687238D01*
X123226285Y-47655238D01*
X123903619Y-47655238D01*
X124097142Y-47752000D01*
X124193904Y-47848761D01*
X124290666Y-48042285D01*
X124290666Y-48235809D01*
X124193904Y-48429333D01*
X124097142Y-48526095D01*
X123903619Y-48622857D01*
X123226285Y-48622857D01*
X127967619Y-49687238D02*
X127290285Y-48719619D01*
X126806476Y-49687238D02*
X126806476Y-47655238D01*
X127580571Y-47655238D01*
X127774095Y-47752000D01*
X127870857Y-47848761D01*
X127967619Y-48042285D01*
X127967619Y-48332571D01*
X127870857Y-48526095D01*
X127774095Y-48622857D01*
X127580571Y-48719619D01*
X126806476Y-48719619D01*
X128838476Y-49687238D02*
X128838476Y-47655238D01*
X129612571Y-47655238D01*
X129806095Y-47752000D01*
X129902857Y-47848761D01*
X129999619Y-48042285D01*
X129999619Y-48332571D01*
X129902857Y-48526095D01*
X129806095Y-48622857D01*
X129612571Y-48719619D01*
X128838476Y-48719619D01*
X130870476Y-49687238D02*
X130870476Y-47655238D01*
X132031619Y-49687238D01*
X132031619Y-47655238D01*
X135708571Y-49493714D02*
X135611809Y-49590476D01*
X135321523Y-49687238D01*
X135128000Y-49687238D01*
X134837714Y-49590476D01*
X134644190Y-49396952D01*
X134547428Y-49203428D01*
X134450666Y-48816380D01*
X134450666Y-48526095D01*
X134547428Y-48139047D01*
X134644190Y-47945523D01*
X134837714Y-47752000D01*
X135128000Y-47655238D01*
X135321523Y-47655238D01*
X135611809Y-47752000D01*
X135708571Y-47848761D01*
X137450285Y-49687238D02*
X137450285Y-48622857D01*
X137353523Y-48429333D01*
X137160000Y-48332571D01*
X136772952Y-48332571D01*
X136579428Y-48429333D01*
X137450285Y-49590476D02*
X137256761Y-49687238D01*
X136772952Y-49687238D01*
X136579428Y-49590476D01*
X136482666Y-49396952D01*
X136482666Y-49203428D01*
X136579428Y-49009904D01*
X136772952Y-48913142D01*
X137256761Y-48913142D01*
X137450285Y-48816380D01*
X138708190Y-49687238D02*
X138514666Y-49590476D01*
X138417904Y-49396952D01*
X138417904Y-47655238D01*
X140353142Y-49590476D02*
X140159619Y-49687238D01*
X139772571Y-49687238D01*
X139579047Y-49590476D01*
X139482285Y-49493714D01*
X139385523Y-49300190D01*
X139385523Y-48719619D01*
X139482285Y-48526095D01*
X139579047Y-48429333D01*
X139772571Y-48332571D01*
X140159619Y-48332571D01*
X140353142Y-48429333D01*
X142094857Y-48332571D02*
X142094857Y-49687238D01*
X141224000Y-48332571D02*
X141224000Y-49396952D01*
X141320761Y-49590476D01*
X141514285Y-49687238D01*
X141804571Y-49687238D01*
X141998095Y-49590476D01*
X142094857Y-49493714D01*
X143352761Y-49687238D02*
X143159238Y-49590476D01*
X143062476Y-49396952D01*
X143062476Y-47655238D01*
X144997714Y-49687238D02*
X144997714Y-48622857D01*
X144900952Y-48429333D01*
X144707428Y-48332571D01*
X144320380Y-48332571D01*
X144126857Y-48429333D01*
X144997714Y-49590476D02*
X144804190Y-49687238D01*
X144320380Y-49687238D01*
X144126857Y-49590476D01*
X144030095Y-49396952D01*
X144030095Y-49203428D01*
X144126857Y-49009904D01*
X144320380Y-48913142D01*
X144804190Y-48913142D01*
X144997714Y-48816380D01*
X145675047Y-48332571D02*
X146449142Y-48332571D01*
X145965333Y-47655238D02*
X145965333Y-49396952D01*
X146062095Y-49590476D01*
X146255619Y-49687238D01*
X146449142Y-49687238D01*
X147416761Y-49687238D02*
X147223238Y-49590476D01*
X147126476Y-49493714D01*
X147029714Y-49300190D01*
X147029714Y-48719619D01*
X147126476Y-48526095D01*
X147223238Y-48429333D01*
X147416761Y-48332571D01*
X147707047Y-48332571D01*
X147900571Y-48429333D01*
X147997333Y-48526095D01*
X148094095Y-48719619D01*
X148094095Y-49300190D01*
X147997333Y-49493714D01*
X147900571Y-49590476D01*
X147707047Y-49687238D01*
X147416761Y-49687238D01*
X148964952Y-49687238D02*
X148964952Y-48332571D01*
X148964952Y-48719619D02*
X149061714Y-48526095D01*
X149158476Y-48429333D01*
X149352000Y-48332571D01*
X149545523Y-48332571D01*
D11*
X147955000Y-145415000D02*
X161925000Y-145415000D01*
X161925000Y-145415000D02*
X161925000Y-159385000D01*
X161925000Y-159385000D02*
X147955000Y-159385000D01*
X147955000Y-159385000D02*
X147955000Y-145415000D01*
X161469000Y-42784000D02*
G75*
G03X161469000Y-37734000I0J2525000D01*
G01*
X155069000Y-42784000D02*
G75*
G02X155069000Y-37734000I0J2525000D01*
G01*
X155069000Y-42784000D02*
X161469000Y-42784000D01*
X155069000Y-37734000D02*
X161469000Y-37734000D01*
D12*
X169657000Y-45782000D02*
X169657000Y-43957000D01*
X151257000Y-45782000D02*
X151257000Y-53532000D01*
X170307000Y-45782000D02*
X170307000Y-53532000D01*
X151257000Y-45782000D02*
X152002000Y-45782000D01*
X151257000Y-53532000D02*
X152002000Y-53532000D01*
X170307000Y-53532000D02*
X169562000Y-53532000D01*
X170307000Y-45782000D02*
X169657000Y-45782000D01*
D11*
X168275000Y-159385000D02*
X168275000Y-145415000D01*
X182245000Y-159385000D02*
X168275000Y-159385000D01*
X182245000Y-145415000D02*
X182245000Y-159385000D01*
X168275000Y-145415000D02*
X182245000Y-145415000D01*
X127635000Y-159385000D02*
X127635000Y-145415000D01*
X141605000Y-159385000D02*
X127635000Y-159385000D01*
X141605000Y-145415000D02*
X141605000Y-159385000D01*
X127635000Y-145415000D02*
X141605000Y-145415000D01*
X107315000Y-159385000D02*
X107315000Y-145415000D01*
X121285000Y-159385000D02*
X107315000Y-159385000D01*
X121285000Y-145415000D02*
X121285000Y-159385000D01*
X107315000Y-145415000D02*
X121285000Y-145415000D01*
X168275000Y-139065000D02*
X168275000Y-125095000D01*
X182245000Y-139065000D02*
X168275000Y-139065000D01*
X182245000Y-125095000D02*
X182245000Y-139065000D01*
X168275000Y-125095000D02*
X182245000Y-125095000D01*
X147955000Y-139065000D02*
X147955000Y-125095000D01*
X161925000Y-139065000D02*
X147955000Y-139065000D01*
X161925000Y-125095000D02*
X161925000Y-139065000D01*
X147955000Y-125095000D02*
X161925000Y-125095000D01*
X127635000Y-139065000D02*
X127635000Y-125095000D01*
X141605000Y-139065000D02*
X127635000Y-139065000D01*
X141605000Y-125095000D02*
X141605000Y-139065000D01*
X127635000Y-125095000D02*
X141605000Y-125095000D01*
X107315000Y-139065000D02*
X107315000Y-125095000D01*
X121285000Y-139065000D02*
X107315000Y-139065000D01*
X121285000Y-125095000D02*
X121285000Y-139065000D01*
X107315000Y-125095000D02*
X121285000Y-125095000D01*
X168275000Y-118745000D02*
X168275000Y-104775000D01*
X182245000Y-118745000D02*
X168275000Y-118745000D01*
X182245000Y-104775000D02*
X182245000Y-118745000D01*
X168275000Y-104775000D02*
X182245000Y-104775000D01*
X147955000Y-118745000D02*
X147955000Y-104775000D01*
X161925000Y-118745000D02*
X147955000Y-118745000D01*
X161925000Y-104775000D02*
X161925000Y-118745000D01*
X147955000Y-104775000D02*
X161925000Y-104775000D01*
X127635000Y-118745000D02*
X127635000Y-104775000D01*
X141605000Y-118745000D02*
X127635000Y-118745000D01*
X141605000Y-104775000D02*
X141605000Y-118745000D01*
X127635000Y-104775000D02*
X141605000Y-104775000D01*
X107315000Y-118745000D02*
X107315000Y-104775000D01*
X121285000Y-118745000D02*
X107315000Y-118745000D01*
X121285000Y-104775000D02*
X121285000Y-118745000D01*
X107315000Y-104775000D02*
X121285000Y-104775000D01*
X168275000Y-98425000D02*
X168275000Y-84455000D01*
X182245000Y-98425000D02*
X168275000Y-98425000D01*
X182245000Y-84455000D02*
X182245000Y-98425000D01*
X168275000Y-84455000D02*
X182245000Y-84455000D01*
X147955000Y-98425000D02*
X147955000Y-84455000D01*
X161925000Y-98425000D02*
X147955000Y-98425000D01*
X161925000Y-84455000D02*
X161925000Y-98425000D01*
X147955000Y-84455000D02*
X161925000Y-84455000D01*
X127635000Y-98425000D02*
X127635000Y-84455000D01*
X141605000Y-98425000D02*
X127635000Y-98425000D01*
X141605000Y-84455000D02*
X141605000Y-98425000D01*
X127635000Y-84455000D02*
X141605000Y-84455000D01*
X107315000Y-98425000D02*
X107315000Y-84455000D01*
X121285000Y-98425000D02*
X107315000Y-98425000D01*
X121285000Y-84455000D02*
X121285000Y-98425000D01*
X107315000Y-84455000D02*
X121285000Y-84455000D01*
X168275000Y-78105000D02*
X168275000Y-64135000D01*
X182245000Y-78105000D02*
X168275000Y-78105000D01*
X182245000Y-64135000D02*
X182245000Y-78105000D01*
X168275000Y-64135000D02*
X182245000Y-64135000D01*
X147955000Y-78105000D02*
X147955000Y-64135000D01*
X161925000Y-78105000D02*
X147955000Y-78105000D01*
X161925000Y-64135000D02*
X161925000Y-78105000D01*
X147955000Y-64135000D02*
X161925000Y-64135000D01*
X127635000Y-78105000D02*
X127635000Y-64135000D01*
X141605000Y-78105000D02*
X127635000Y-78105000D01*
X141605000Y-64135000D02*
X141605000Y-78105000D01*
X127635000Y-64135000D02*
X141605000Y-64135000D01*
X107315000Y-78105000D02*
X107315000Y-64135000D01*
X121285000Y-78105000D02*
X107315000Y-78105000D01*
X121285000Y-64135000D02*
X121285000Y-78105000D01*
X107315000Y-64135000D02*
X121285000Y-64135000D01*
X135756000Y-40073000D02*
X135756000Y-43668000D01*
X135756000Y-33627000D02*
X135756000Y-37223000D01*
X125516000Y-42573000D02*
X125516000Y-43668000D01*
X125516000Y-37574000D02*
X125516000Y-39723000D01*
X125516000Y-33627000D02*
X125516000Y-34722000D01*
X125516000Y-43668000D02*
X135756000Y-43668000D01*
X125516000Y-33627000D02*
X135756000Y-33627000D01*
X138940000Y-41400000D02*
X138940000Y-40640000D01*
X139700000Y-41400000D02*
X138940000Y-41400000D01*
X148850000Y-33810000D02*
X148850000Y-37810000D01*
X148330000Y-33810000D02*
X148850000Y-33810000D01*
X148330000Y-37810000D02*
X148330000Y-33810000D01*
X147939677Y-38930000D02*
X147970323Y-38930000D01*
X147955000Y-38930000D02*
X147955000Y-37810000D01*
X147580000Y-33810000D02*
X147580000Y-37810000D01*
X147060000Y-33810000D02*
X147580000Y-33810000D01*
X147060000Y-37810000D02*
X147060000Y-33810000D01*
X146669677Y-38930000D02*
X146700323Y-38930000D01*
X146685000Y-38930000D02*
X146685000Y-37810000D01*
X146310000Y-33810000D02*
X146310000Y-37810000D01*
X145790000Y-33810000D02*
X146310000Y-33810000D01*
X145790000Y-37810000D02*
X145790000Y-33810000D01*
X145399677Y-38930000D02*
X145430323Y-38930000D01*
X145415000Y-38930000D02*
X145415000Y-37810000D01*
X145040000Y-33810000D02*
X145040000Y-37810000D01*
X144520000Y-33810000D02*
X145040000Y-33810000D01*
X144520000Y-37810000D02*
X144520000Y-33810000D01*
X144129677Y-38930000D02*
X144160323Y-38930000D01*
X144145000Y-38930000D02*
X144145000Y-37810000D01*
X143770000Y-33810000D02*
X143770000Y-37810000D01*
X143250000Y-33810000D02*
X143770000Y-33810000D01*
X143250000Y-37810000D02*
X143250000Y-33810000D01*
X142859677Y-38930000D02*
X142890323Y-38930000D01*
X142875000Y-38930000D02*
X142875000Y-37810000D01*
X142500000Y-33810000D02*
X142500000Y-37810000D01*
X141980000Y-33810000D02*
X142500000Y-33810000D01*
X141980000Y-37810000D02*
X141980000Y-33810000D01*
X141589677Y-38930000D02*
X141620323Y-38930000D01*
X141605000Y-38930000D02*
X141605000Y-37810000D01*
X141230000Y-33810000D02*
X141230000Y-37810000D01*
X140710000Y-33810000D02*
X141230000Y-33810000D01*
X140710000Y-37810000D02*
X140710000Y-33810000D01*
X140319677Y-38930000D02*
X140350323Y-38930000D01*
X140335000Y-38930000D02*
X140335000Y-37810000D01*
X139860000Y-37810000D02*
X139860000Y-33810000D01*
X139740000Y-37810000D02*
X139740000Y-33810000D01*
X139620000Y-37810000D02*
X139620000Y-33810000D01*
X139500000Y-37810000D02*
X139500000Y-33810000D01*
X139960000Y-33810000D02*
X139960000Y-37810000D01*
X139440000Y-33810000D02*
X139960000Y-33810000D01*
X139440000Y-37810000D02*
X139440000Y-33810000D01*
X149285000Y-38930000D02*
X149209677Y-38930000D01*
X149285000Y-37810000D02*
X149285000Y-38930000D01*
X139005000Y-37810000D02*
X149285000Y-37810000D01*
X139005000Y-38930000D02*
X139005000Y-37810000D01*
X139080323Y-38930000D02*
X139005000Y-38930000D01*
X157971748Y-59257000D02*
X158494252Y-59257000D01*
X157971748Y-57837000D02*
X158494252Y-57837000D01*
X115246000Y-33850000D02*
X115246000Y-37870000D01*
X115246000Y-37870000D02*
X122966000Y-37870000D01*
X122966000Y-37870000D02*
X122966000Y-33850000D01*
X122966000Y-33850000D02*
X115246000Y-33850000D01*
X115246000Y-35560000D02*
X115746000Y-35560000D01*
X115746000Y-35560000D02*
X115746000Y-34350000D01*
X115746000Y-34350000D02*
X122466000Y-34350000D01*
X122466000Y-34350000D02*
X122466000Y-35560000D01*
X122466000Y-35560000D02*
X122966000Y-35560000D01*
X115246000Y-36370000D02*
X116246000Y-36370000D01*
X116246000Y-36370000D02*
X116246000Y-37870000D01*
X122966000Y-36370000D02*
X121966000Y-36370000D01*
X121966000Y-36370000D02*
X121966000Y-37870000D01*
X114946000Y-35670000D02*
X114946000Y-38170000D01*
X114946000Y-38170000D02*
X117446000Y-38170000D01*
X115562748Y-48970000D02*
X116085252Y-48970000D01*
X115562748Y-47550000D02*
X116085252Y-47550000D01*
X119686000Y-44466252D02*
X119686000Y-43943748D01*
X121106000Y-44466252D02*
X121106000Y-43943748D01*
X110486000Y-49996000D02*
X112036000Y-49996000D01*
X110486000Y-49996000D02*
X110486000Y-50296000D01*
X107686000Y-50296000D02*
X110486000Y-50296000D01*
X110486000Y-58296000D02*
X112036000Y-58296000D01*
X110486000Y-57996000D02*
X110486000Y-58296000D01*
X107686000Y-57996000D02*
X110486000Y-57996000D01*
X113736000Y-53246000D02*
X113286000Y-52846000D01*
X113736000Y-52446000D02*
X113736000Y-53246000D01*
X113286000Y-52846000D02*
X113736000Y-52446000D01*
X118619748Y-39422000D02*
X119142252Y-39422000D01*
X118619748Y-40842000D02*
X119142252Y-40842000D01*
X111962000Y-44466252D02*
X111962000Y-43943748D01*
X110542000Y-44466252D02*
X110542000Y-43943748D01*
X117434000Y-45096000D02*
X117434000Y-43296000D01*
X114214000Y-43296000D02*
X114214000Y-45746000D01*
D12*
X153130476Y-144930761D02*
X153273333Y-144978380D01*
X153511428Y-144978380D01*
X153606666Y-144930761D01*
X153654285Y-144883142D01*
X153701904Y-144787904D01*
X153701904Y-144692666D01*
X153654285Y-144597428D01*
X153606666Y-144549809D01*
X153511428Y-144502190D01*
X153320952Y-144454571D01*
X153225714Y-144406952D01*
X153178095Y-144359333D01*
X153130476Y-144264095D01*
X153130476Y-144168857D01*
X153178095Y-144073619D01*
X153225714Y-144026000D01*
X153320952Y-143978380D01*
X153559047Y-143978380D01*
X153701904Y-144026000D01*
X154035238Y-143978380D02*
X154273333Y-144978380D01*
X154463809Y-144264095D01*
X154654285Y-144978380D01*
X154892380Y-143978380D01*
X155797142Y-144978380D02*
X155225714Y-144978380D01*
X155511428Y-144978380D02*
X155511428Y-143978380D01*
X155416190Y-144121238D01*
X155320952Y-144216476D01*
X155225714Y-144264095D01*
X156273333Y-144978380D02*
X156463809Y-144978380D01*
X156559047Y-144930761D01*
X156606666Y-144883142D01*
X156701904Y-144740285D01*
X156749523Y-144549809D01*
X156749523Y-144168857D01*
X156701904Y-144073619D01*
X156654285Y-144026000D01*
X156559047Y-143978380D01*
X156368571Y-143978380D01*
X156273333Y-144026000D01*
X156225714Y-144073619D01*
X156178095Y-144168857D01*
X156178095Y-144406952D01*
X156225714Y-144502190D01*
X156273333Y-144549809D01*
X156368571Y-144597428D01*
X156559047Y-144597428D01*
X156654285Y-144549809D01*
X156701904Y-144502190D01*
X156749523Y-144406952D01*
X157792809Y-36710190D02*
X157792809Y-37186380D01*
X157459476Y-36186380D02*
X157792809Y-36710190D01*
X158126142Y-36186380D01*
X158983285Y-37186380D02*
X158411857Y-37186380D01*
X158697571Y-37186380D02*
X158697571Y-36186380D01*
X158602333Y-36329238D01*
X158507095Y-36424476D01*
X158411857Y-36472095D01*
X170815095Y-49109380D02*
X170815095Y-49918904D01*
X170862714Y-50014142D01*
X170910333Y-50061761D01*
X171005571Y-50109380D01*
X171196047Y-50109380D01*
X171291285Y-50061761D01*
X171338904Y-50014142D01*
X171386523Y-49918904D01*
X171386523Y-49109380D01*
X172386523Y-50109380D02*
X171815095Y-50109380D01*
X172100809Y-50109380D02*
X172100809Y-49109380D01*
X172005571Y-49252238D01*
X171910333Y-49347476D01*
X171815095Y-49395095D01*
X173450476Y-144930761D02*
X173593333Y-144978380D01*
X173831428Y-144978380D01*
X173926666Y-144930761D01*
X173974285Y-144883142D01*
X174021904Y-144787904D01*
X174021904Y-144692666D01*
X173974285Y-144597428D01*
X173926666Y-144549809D01*
X173831428Y-144502190D01*
X173640952Y-144454571D01*
X173545714Y-144406952D01*
X173498095Y-144359333D01*
X173450476Y-144264095D01*
X173450476Y-144168857D01*
X173498095Y-144073619D01*
X173545714Y-144026000D01*
X173640952Y-143978380D01*
X173879047Y-143978380D01*
X174021904Y-144026000D01*
X174355238Y-143978380D02*
X174593333Y-144978380D01*
X174783809Y-144264095D01*
X174974285Y-144978380D01*
X175212380Y-143978380D01*
X175545714Y-144073619D02*
X175593333Y-144026000D01*
X175688571Y-143978380D01*
X175926666Y-143978380D01*
X176021904Y-144026000D01*
X176069523Y-144073619D01*
X176117142Y-144168857D01*
X176117142Y-144264095D01*
X176069523Y-144406952D01*
X175498095Y-144978380D01*
X176117142Y-144978380D01*
X176736190Y-143978380D02*
X176831428Y-143978380D01*
X176926666Y-144026000D01*
X176974285Y-144073619D01*
X177021904Y-144168857D01*
X177069523Y-144359333D01*
X177069523Y-144597428D01*
X177021904Y-144787904D01*
X176974285Y-144883142D01*
X176926666Y-144930761D01*
X176831428Y-144978380D01*
X176736190Y-144978380D01*
X176640952Y-144930761D01*
X176593333Y-144883142D01*
X176545714Y-144787904D01*
X176498095Y-144597428D01*
X176498095Y-144359333D01*
X176545714Y-144168857D01*
X176593333Y-144073619D01*
X176640952Y-144026000D01*
X176736190Y-143978380D01*
X132810476Y-144930761D02*
X132953333Y-144978380D01*
X133191428Y-144978380D01*
X133286666Y-144930761D01*
X133334285Y-144883142D01*
X133381904Y-144787904D01*
X133381904Y-144692666D01*
X133334285Y-144597428D01*
X133286666Y-144549809D01*
X133191428Y-144502190D01*
X133000952Y-144454571D01*
X132905714Y-144406952D01*
X132858095Y-144359333D01*
X132810476Y-144264095D01*
X132810476Y-144168857D01*
X132858095Y-144073619D01*
X132905714Y-144026000D01*
X133000952Y-143978380D01*
X133239047Y-143978380D01*
X133381904Y-144026000D01*
X133715238Y-143978380D02*
X133953333Y-144978380D01*
X134143809Y-144264095D01*
X134334285Y-144978380D01*
X134572380Y-143978380D01*
X135477142Y-144978380D02*
X134905714Y-144978380D01*
X135191428Y-144978380D02*
X135191428Y-143978380D01*
X135096190Y-144121238D01*
X135000952Y-144216476D01*
X134905714Y-144264095D01*
X136048571Y-144406952D02*
X135953333Y-144359333D01*
X135905714Y-144311714D01*
X135858095Y-144216476D01*
X135858095Y-144168857D01*
X135905714Y-144073619D01*
X135953333Y-144026000D01*
X136048571Y-143978380D01*
X136239047Y-143978380D01*
X136334285Y-144026000D01*
X136381904Y-144073619D01*
X136429523Y-144168857D01*
X136429523Y-144216476D01*
X136381904Y-144311714D01*
X136334285Y-144359333D01*
X136239047Y-144406952D01*
X136048571Y-144406952D01*
X135953333Y-144454571D01*
X135905714Y-144502190D01*
X135858095Y-144597428D01*
X135858095Y-144787904D01*
X135905714Y-144883142D01*
X135953333Y-144930761D01*
X136048571Y-144978380D01*
X136239047Y-144978380D01*
X136334285Y-144930761D01*
X136381904Y-144883142D01*
X136429523Y-144787904D01*
X136429523Y-144597428D01*
X136381904Y-144502190D01*
X136334285Y-144454571D01*
X136239047Y-144406952D01*
X112490476Y-144930761D02*
X112633333Y-144978380D01*
X112871428Y-144978380D01*
X112966666Y-144930761D01*
X113014285Y-144883142D01*
X113061904Y-144787904D01*
X113061904Y-144692666D01*
X113014285Y-144597428D01*
X112966666Y-144549809D01*
X112871428Y-144502190D01*
X112680952Y-144454571D01*
X112585714Y-144406952D01*
X112538095Y-144359333D01*
X112490476Y-144264095D01*
X112490476Y-144168857D01*
X112538095Y-144073619D01*
X112585714Y-144026000D01*
X112680952Y-143978380D01*
X112919047Y-143978380D01*
X113061904Y-144026000D01*
X113395238Y-143978380D02*
X113633333Y-144978380D01*
X113823809Y-144264095D01*
X114014285Y-144978380D01*
X114252380Y-143978380D01*
X115157142Y-144978380D02*
X114585714Y-144978380D01*
X114871428Y-144978380D02*
X114871428Y-143978380D01*
X114776190Y-144121238D01*
X114680952Y-144216476D01*
X114585714Y-144264095D01*
X115490476Y-143978380D02*
X116157142Y-143978380D01*
X115728571Y-144978380D01*
X173450476Y-124610761D02*
X173593333Y-124658380D01*
X173831428Y-124658380D01*
X173926666Y-124610761D01*
X173974285Y-124563142D01*
X174021904Y-124467904D01*
X174021904Y-124372666D01*
X173974285Y-124277428D01*
X173926666Y-124229809D01*
X173831428Y-124182190D01*
X173640952Y-124134571D01*
X173545714Y-124086952D01*
X173498095Y-124039333D01*
X173450476Y-123944095D01*
X173450476Y-123848857D01*
X173498095Y-123753619D01*
X173545714Y-123706000D01*
X173640952Y-123658380D01*
X173879047Y-123658380D01*
X174021904Y-123706000D01*
X174355238Y-123658380D02*
X174593333Y-124658380D01*
X174783809Y-123944095D01*
X174974285Y-124658380D01*
X175212380Y-123658380D01*
X176117142Y-124658380D02*
X175545714Y-124658380D01*
X175831428Y-124658380D02*
X175831428Y-123658380D01*
X175736190Y-123801238D01*
X175640952Y-123896476D01*
X175545714Y-123944095D01*
X176974285Y-123658380D02*
X176783809Y-123658380D01*
X176688571Y-123706000D01*
X176640952Y-123753619D01*
X176545714Y-123896476D01*
X176498095Y-124086952D01*
X176498095Y-124467904D01*
X176545714Y-124563142D01*
X176593333Y-124610761D01*
X176688571Y-124658380D01*
X176879047Y-124658380D01*
X176974285Y-124610761D01*
X177021904Y-124563142D01*
X177069523Y-124467904D01*
X177069523Y-124229809D01*
X177021904Y-124134571D01*
X176974285Y-124086952D01*
X176879047Y-124039333D01*
X176688571Y-124039333D01*
X176593333Y-124086952D01*
X176545714Y-124134571D01*
X176498095Y-124229809D01*
X153130476Y-124610761D02*
X153273333Y-124658380D01*
X153511428Y-124658380D01*
X153606666Y-124610761D01*
X153654285Y-124563142D01*
X153701904Y-124467904D01*
X153701904Y-124372666D01*
X153654285Y-124277428D01*
X153606666Y-124229809D01*
X153511428Y-124182190D01*
X153320952Y-124134571D01*
X153225714Y-124086952D01*
X153178095Y-124039333D01*
X153130476Y-123944095D01*
X153130476Y-123848857D01*
X153178095Y-123753619D01*
X153225714Y-123706000D01*
X153320952Y-123658380D01*
X153559047Y-123658380D01*
X153701904Y-123706000D01*
X154035238Y-123658380D02*
X154273333Y-124658380D01*
X154463809Y-123944095D01*
X154654285Y-124658380D01*
X154892380Y-123658380D01*
X155797142Y-124658380D02*
X155225714Y-124658380D01*
X155511428Y-124658380D02*
X155511428Y-123658380D01*
X155416190Y-123801238D01*
X155320952Y-123896476D01*
X155225714Y-123944095D01*
X156701904Y-123658380D02*
X156225714Y-123658380D01*
X156178095Y-124134571D01*
X156225714Y-124086952D01*
X156320952Y-124039333D01*
X156559047Y-124039333D01*
X156654285Y-124086952D01*
X156701904Y-124134571D01*
X156749523Y-124229809D01*
X156749523Y-124467904D01*
X156701904Y-124563142D01*
X156654285Y-124610761D01*
X156559047Y-124658380D01*
X156320952Y-124658380D01*
X156225714Y-124610761D01*
X156178095Y-124563142D01*
X132810476Y-124610761D02*
X132953333Y-124658380D01*
X133191428Y-124658380D01*
X133286666Y-124610761D01*
X133334285Y-124563142D01*
X133381904Y-124467904D01*
X133381904Y-124372666D01*
X133334285Y-124277428D01*
X133286666Y-124229809D01*
X133191428Y-124182190D01*
X133000952Y-124134571D01*
X132905714Y-124086952D01*
X132858095Y-124039333D01*
X132810476Y-123944095D01*
X132810476Y-123848857D01*
X132858095Y-123753619D01*
X132905714Y-123706000D01*
X133000952Y-123658380D01*
X133239047Y-123658380D01*
X133381904Y-123706000D01*
X133715238Y-123658380D02*
X133953333Y-124658380D01*
X134143809Y-123944095D01*
X134334285Y-124658380D01*
X134572380Y-123658380D01*
X135477142Y-124658380D02*
X134905714Y-124658380D01*
X135191428Y-124658380D02*
X135191428Y-123658380D01*
X135096190Y-123801238D01*
X135000952Y-123896476D01*
X134905714Y-123944095D01*
X136334285Y-123991714D02*
X136334285Y-124658380D01*
X136096190Y-123610761D02*
X135858095Y-124325047D01*
X136477142Y-124325047D01*
X112490476Y-124610761D02*
X112633333Y-124658380D01*
X112871428Y-124658380D01*
X112966666Y-124610761D01*
X113014285Y-124563142D01*
X113061904Y-124467904D01*
X113061904Y-124372666D01*
X113014285Y-124277428D01*
X112966666Y-124229809D01*
X112871428Y-124182190D01*
X112680952Y-124134571D01*
X112585714Y-124086952D01*
X112538095Y-124039333D01*
X112490476Y-123944095D01*
X112490476Y-123848857D01*
X112538095Y-123753619D01*
X112585714Y-123706000D01*
X112680952Y-123658380D01*
X112919047Y-123658380D01*
X113061904Y-123706000D01*
X113395238Y-123658380D02*
X113633333Y-124658380D01*
X113823809Y-123944095D01*
X114014285Y-124658380D01*
X114252380Y-123658380D01*
X115157142Y-124658380D02*
X114585714Y-124658380D01*
X114871428Y-124658380D02*
X114871428Y-123658380D01*
X114776190Y-123801238D01*
X114680952Y-123896476D01*
X114585714Y-123944095D01*
X115490476Y-123658380D02*
X116109523Y-123658380D01*
X115776190Y-124039333D01*
X115919047Y-124039333D01*
X116014285Y-124086952D01*
X116061904Y-124134571D01*
X116109523Y-124229809D01*
X116109523Y-124467904D01*
X116061904Y-124563142D01*
X116014285Y-124610761D01*
X115919047Y-124658380D01*
X115633333Y-124658380D01*
X115538095Y-124610761D01*
X115490476Y-124563142D01*
X173450476Y-104290761D02*
X173593333Y-104338380D01*
X173831428Y-104338380D01*
X173926666Y-104290761D01*
X173974285Y-104243142D01*
X174021904Y-104147904D01*
X174021904Y-104052666D01*
X173974285Y-103957428D01*
X173926666Y-103909809D01*
X173831428Y-103862190D01*
X173640952Y-103814571D01*
X173545714Y-103766952D01*
X173498095Y-103719333D01*
X173450476Y-103624095D01*
X173450476Y-103528857D01*
X173498095Y-103433619D01*
X173545714Y-103386000D01*
X173640952Y-103338380D01*
X173879047Y-103338380D01*
X174021904Y-103386000D01*
X174355238Y-103338380D02*
X174593333Y-104338380D01*
X174783809Y-103624095D01*
X174974285Y-104338380D01*
X175212380Y-103338380D01*
X176117142Y-104338380D02*
X175545714Y-104338380D01*
X175831428Y-104338380D02*
X175831428Y-103338380D01*
X175736190Y-103481238D01*
X175640952Y-103576476D01*
X175545714Y-103624095D01*
X176498095Y-103433619D02*
X176545714Y-103386000D01*
X176640952Y-103338380D01*
X176879047Y-103338380D01*
X176974285Y-103386000D01*
X177021904Y-103433619D01*
X177069523Y-103528857D01*
X177069523Y-103624095D01*
X177021904Y-103766952D01*
X176450476Y-104338380D01*
X177069523Y-104338380D01*
X153130476Y-104290761D02*
X153273333Y-104338380D01*
X153511428Y-104338380D01*
X153606666Y-104290761D01*
X153654285Y-104243142D01*
X153701904Y-104147904D01*
X153701904Y-104052666D01*
X153654285Y-103957428D01*
X153606666Y-103909809D01*
X153511428Y-103862190D01*
X153320952Y-103814571D01*
X153225714Y-103766952D01*
X153178095Y-103719333D01*
X153130476Y-103624095D01*
X153130476Y-103528857D01*
X153178095Y-103433619D01*
X153225714Y-103386000D01*
X153320952Y-103338380D01*
X153559047Y-103338380D01*
X153701904Y-103386000D01*
X154035238Y-103338380D02*
X154273333Y-104338380D01*
X154463809Y-103624095D01*
X154654285Y-104338380D01*
X154892380Y-103338380D01*
X155797142Y-104338380D02*
X155225714Y-104338380D01*
X155511428Y-104338380D02*
X155511428Y-103338380D01*
X155416190Y-103481238D01*
X155320952Y-103576476D01*
X155225714Y-103624095D01*
X156749523Y-104338380D02*
X156178095Y-104338380D01*
X156463809Y-104338380D02*
X156463809Y-103338380D01*
X156368571Y-103481238D01*
X156273333Y-103576476D01*
X156178095Y-103624095D01*
X132810476Y-104290761D02*
X132953333Y-104338380D01*
X133191428Y-104338380D01*
X133286666Y-104290761D01*
X133334285Y-104243142D01*
X133381904Y-104147904D01*
X133381904Y-104052666D01*
X133334285Y-103957428D01*
X133286666Y-103909809D01*
X133191428Y-103862190D01*
X133000952Y-103814571D01*
X132905714Y-103766952D01*
X132858095Y-103719333D01*
X132810476Y-103624095D01*
X132810476Y-103528857D01*
X132858095Y-103433619D01*
X132905714Y-103386000D01*
X133000952Y-103338380D01*
X133239047Y-103338380D01*
X133381904Y-103386000D01*
X133715238Y-103338380D02*
X133953333Y-104338380D01*
X134143809Y-103624095D01*
X134334285Y-104338380D01*
X134572380Y-103338380D01*
X135477142Y-104338380D02*
X134905714Y-104338380D01*
X135191428Y-104338380D02*
X135191428Y-103338380D01*
X135096190Y-103481238D01*
X135000952Y-103576476D01*
X134905714Y-103624095D01*
X136096190Y-103338380D02*
X136191428Y-103338380D01*
X136286666Y-103386000D01*
X136334285Y-103433619D01*
X136381904Y-103528857D01*
X136429523Y-103719333D01*
X136429523Y-103957428D01*
X136381904Y-104147904D01*
X136334285Y-104243142D01*
X136286666Y-104290761D01*
X136191428Y-104338380D01*
X136096190Y-104338380D01*
X136000952Y-104290761D01*
X135953333Y-104243142D01*
X135905714Y-104147904D01*
X135858095Y-103957428D01*
X135858095Y-103719333D01*
X135905714Y-103528857D01*
X135953333Y-103433619D01*
X136000952Y-103386000D01*
X136096190Y-103338380D01*
X112966666Y-104290761D02*
X113109523Y-104338380D01*
X113347619Y-104338380D01*
X113442857Y-104290761D01*
X113490476Y-104243142D01*
X113538095Y-104147904D01*
X113538095Y-104052666D01*
X113490476Y-103957428D01*
X113442857Y-103909809D01*
X113347619Y-103862190D01*
X113157142Y-103814571D01*
X113061904Y-103766952D01*
X113014285Y-103719333D01*
X112966666Y-103624095D01*
X112966666Y-103528857D01*
X113014285Y-103433619D01*
X113061904Y-103386000D01*
X113157142Y-103338380D01*
X113395238Y-103338380D01*
X113538095Y-103386000D01*
X113871428Y-103338380D02*
X114109523Y-104338380D01*
X114300000Y-103624095D01*
X114490476Y-104338380D01*
X114728571Y-103338380D01*
X115157142Y-104338380D02*
X115347619Y-104338380D01*
X115442857Y-104290761D01*
X115490476Y-104243142D01*
X115585714Y-104100285D01*
X115633333Y-103909809D01*
X115633333Y-103528857D01*
X115585714Y-103433619D01*
X115538095Y-103386000D01*
X115442857Y-103338380D01*
X115252380Y-103338380D01*
X115157142Y-103386000D01*
X115109523Y-103433619D01*
X115061904Y-103528857D01*
X115061904Y-103766952D01*
X115109523Y-103862190D01*
X115157142Y-103909809D01*
X115252380Y-103957428D01*
X115442857Y-103957428D01*
X115538095Y-103909809D01*
X115585714Y-103862190D01*
X115633333Y-103766952D01*
X173926666Y-83970761D02*
X174069523Y-84018380D01*
X174307619Y-84018380D01*
X174402857Y-83970761D01*
X174450476Y-83923142D01*
X174498095Y-83827904D01*
X174498095Y-83732666D01*
X174450476Y-83637428D01*
X174402857Y-83589809D01*
X174307619Y-83542190D01*
X174117142Y-83494571D01*
X174021904Y-83446952D01*
X173974285Y-83399333D01*
X173926666Y-83304095D01*
X173926666Y-83208857D01*
X173974285Y-83113619D01*
X174021904Y-83066000D01*
X174117142Y-83018380D01*
X174355238Y-83018380D01*
X174498095Y-83066000D01*
X174831428Y-83018380D02*
X175069523Y-84018380D01*
X175260000Y-83304095D01*
X175450476Y-84018380D01*
X175688571Y-83018380D01*
X176212380Y-83446952D02*
X176117142Y-83399333D01*
X176069523Y-83351714D01*
X176021904Y-83256476D01*
X176021904Y-83208857D01*
X176069523Y-83113619D01*
X176117142Y-83066000D01*
X176212380Y-83018380D01*
X176402857Y-83018380D01*
X176498095Y-83066000D01*
X176545714Y-83113619D01*
X176593333Y-83208857D01*
X176593333Y-83256476D01*
X176545714Y-83351714D01*
X176498095Y-83399333D01*
X176402857Y-83446952D01*
X176212380Y-83446952D01*
X176117142Y-83494571D01*
X176069523Y-83542190D01*
X176021904Y-83637428D01*
X176021904Y-83827904D01*
X176069523Y-83923142D01*
X176117142Y-83970761D01*
X176212380Y-84018380D01*
X176402857Y-84018380D01*
X176498095Y-83970761D01*
X176545714Y-83923142D01*
X176593333Y-83827904D01*
X176593333Y-83637428D01*
X176545714Y-83542190D01*
X176498095Y-83494571D01*
X176402857Y-83446952D01*
X153606666Y-83970761D02*
X153749523Y-84018380D01*
X153987619Y-84018380D01*
X154082857Y-83970761D01*
X154130476Y-83923142D01*
X154178095Y-83827904D01*
X154178095Y-83732666D01*
X154130476Y-83637428D01*
X154082857Y-83589809D01*
X153987619Y-83542190D01*
X153797142Y-83494571D01*
X153701904Y-83446952D01*
X153654285Y-83399333D01*
X153606666Y-83304095D01*
X153606666Y-83208857D01*
X153654285Y-83113619D01*
X153701904Y-83066000D01*
X153797142Y-83018380D01*
X154035238Y-83018380D01*
X154178095Y-83066000D01*
X154511428Y-83018380D02*
X154749523Y-84018380D01*
X154940000Y-83304095D01*
X155130476Y-84018380D01*
X155368571Y-83018380D01*
X155654285Y-83018380D02*
X156320952Y-83018380D01*
X155892380Y-84018380D01*
X133286666Y-83970761D02*
X133429523Y-84018380D01*
X133667619Y-84018380D01*
X133762857Y-83970761D01*
X133810476Y-83923142D01*
X133858095Y-83827904D01*
X133858095Y-83732666D01*
X133810476Y-83637428D01*
X133762857Y-83589809D01*
X133667619Y-83542190D01*
X133477142Y-83494571D01*
X133381904Y-83446952D01*
X133334285Y-83399333D01*
X133286666Y-83304095D01*
X133286666Y-83208857D01*
X133334285Y-83113619D01*
X133381904Y-83066000D01*
X133477142Y-83018380D01*
X133715238Y-83018380D01*
X133858095Y-83066000D01*
X134191428Y-83018380D02*
X134429523Y-84018380D01*
X134620000Y-83304095D01*
X134810476Y-84018380D01*
X135048571Y-83018380D01*
X135858095Y-83018380D02*
X135667619Y-83018380D01*
X135572380Y-83066000D01*
X135524761Y-83113619D01*
X135429523Y-83256476D01*
X135381904Y-83446952D01*
X135381904Y-83827904D01*
X135429523Y-83923142D01*
X135477142Y-83970761D01*
X135572380Y-84018380D01*
X135762857Y-84018380D01*
X135858095Y-83970761D01*
X135905714Y-83923142D01*
X135953333Y-83827904D01*
X135953333Y-83589809D01*
X135905714Y-83494571D01*
X135858095Y-83446952D01*
X135762857Y-83399333D01*
X135572380Y-83399333D01*
X135477142Y-83446952D01*
X135429523Y-83494571D01*
X135381904Y-83589809D01*
X112966666Y-83970761D02*
X113109523Y-84018380D01*
X113347619Y-84018380D01*
X113442857Y-83970761D01*
X113490476Y-83923142D01*
X113538095Y-83827904D01*
X113538095Y-83732666D01*
X113490476Y-83637428D01*
X113442857Y-83589809D01*
X113347619Y-83542190D01*
X113157142Y-83494571D01*
X113061904Y-83446952D01*
X113014285Y-83399333D01*
X112966666Y-83304095D01*
X112966666Y-83208857D01*
X113014285Y-83113619D01*
X113061904Y-83066000D01*
X113157142Y-83018380D01*
X113395238Y-83018380D01*
X113538095Y-83066000D01*
X113871428Y-83018380D02*
X114109523Y-84018380D01*
X114300000Y-83304095D01*
X114490476Y-84018380D01*
X114728571Y-83018380D01*
X115585714Y-83018380D02*
X115109523Y-83018380D01*
X115061904Y-83494571D01*
X115109523Y-83446952D01*
X115204761Y-83399333D01*
X115442857Y-83399333D01*
X115538095Y-83446952D01*
X115585714Y-83494571D01*
X115633333Y-83589809D01*
X115633333Y-83827904D01*
X115585714Y-83923142D01*
X115538095Y-83970761D01*
X115442857Y-84018380D01*
X115204761Y-84018380D01*
X115109523Y-83970761D01*
X115061904Y-83923142D01*
X173926666Y-63650761D02*
X174069523Y-63698380D01*
X174307619Y-63698380D01*
X174402857Y-63650761D01*
X174450476Y-63603142D01*
X174498095Y-63507904D01*
X174498095Y-63412666D01*
X174450476Y-63317428D01*
X174402857Y-63269809D01*
X174307619Y-63222190D01*
X174117142Y-63174571D01*
X174021904Y-63126952D01*
X173974285Y-63079333D01*
X173926666Y-62984095D01*
X173926666Y-62888857D01*
X173974285Y-62793619D01*
X174021904Y-62746000D01*
X174117142Y-62698380D01*
X174355238Y-62698380D01*
X174498095Y-62746000D01*
X174831428Y-62698380D02*
X175069523Y-63698380D01*
X175260000Y-62984095D01*
X175450476Y-63698380D01*
X175688571Y-62698380D01*
X176498095Y-63031714D02*
X176498095Y-63698380D01*
X176260000Y-62650761D02*
X176021904Y-63365047D01*
X176640952Y-63365047D01*
X153606666Y-63650761D02*
X153749523Y-63698380D01*
X153987619Y-63698380D01*
X154082857Y-63650761D01*
X154130476Y-63603142D01*
X154178095Y-63507904D01*
X154178095Y-63412666D01*
X154130476Y-63317428D01*
X154082857Y-63269809D01*
X153987619Y-63222190D01*
X153797142Y-63174571D01*
X153701904Y-63126952D01*
X153654285Y-63079333D01*
X153606666Y-62984095D01*
X153606666Y-62888857D01*
X153654285Y-62793619D01*
X153701904Y-62746000D01*
X153797142Y-62698380D01*
X154035238Y-62698380D01*
X154178095Y-62746000D01*
X154511428Y-62698380D02*
X154749523Y-63698380D01*
X154940000Y-62984095D01*
X155130476Y-63698380D01*
X155368571Y-62698380D01*
X155654285Y-62698380D02*
X156273333Y-62698380D01*
X155940000Y-63079333D01*
X156082857Y-63079333D01*
X156178095Y-63126952D01*
X156225714Y-63174571D01*
X156273333Y-63269809D01*
X156273333Y-63507904D01*
X156225714Y-63603142D01*
X156178095Y-63650761D01*
X156082857Y-63698380D01*
X155797142Y-63698380D01*
X155701904Y-63650761D01*
X155654285Y-63603142D01*
X133286666Y-63650761D02*
X133429523Y-63698380D01*
X133667619Y-63698380D01*
X133762857Y-63650761D01*
X133810476Y-63603142D01*
X133858095Y-63507904D01*
X133858095Y-63412666D01*
X133810476Y-63317428D01*
X133762857Y-63269809D01*
X133667619Y-63222190D01*
X133477142Y-63174571D01*
X133381904Y-63126952D01*
X133334285Y-63079333D01*
X133286666Y-62984095D01*
X133286666Y-62888857D01*
X133334285Y-62793619D01*
X133381904Y-62746000D01*
X133477142Y-62698380D01*
X133715238Y-62698380D01*
X133858095Y-62746000D01*
X134191428Y-62698380D02*
X134429523Y-63698380D01*
X134620000Y-62984095D01*
X134810476Y-63698380D01*
X135048571Y-62698380D01*
X135381904Y-62793619D02*
X135429523Y-62746000D01*
X135524761Y-62698380D01*
X135762857Y-62698380D01*
X135858095Y-62746000D01*
X135905714Y-62793619D01*
X135953333Y-62888857D01*
X135953333Y-62984095D01*
X135905714Y-63126952D01*
X135334285Y-63698380D01*
X135953333Y-63698380D01*
X112966666Y-63650761D02*
X113109523Y-63698380D01*
X113347619Y-63698380D01*
X113442857Y-63650761D01*
X113490476Y-63603142D01*
X113538095Y-63507904D01*
X113538095Y-63412666D01*
X113490476Y-63317428D01*
X113442857Y-63269809D01*
X113347619Y-63222190D01*
X113157142Y-63174571D01*
X113061904Y-63126952D01*
X113014285Y-63079333D01*
X112966666Y-62984095D01*
X112966666Y-62888857D01*
X113014285Y-62793619D01*
X113061904Y-62746000D01*
X113157142Y-62698380D01*
X113395238Y-62698380D01*
X113538095Y-62746000D01*
X113871428Y-62698380D02*
X114109523Y-63698380D01*
X114300000Y-62984095D01*
X114490476Y-63698380D01*
X114728571Y-62698380D01*
X115633333Y-63698380D02*
X115061904Y-63698380D01*
X115347619Y-63698380D02*
X115347619Y-62698380D01*
X115252380Y-62841238D01*
X115157142Y-62936476D01*
X115061904Y-62984095D01*
X130040761Y-45029380D02*
X129707428Y-44553190D01*
X129469333Y-45029380D02*
X129469333Y-44029380D01*
X129850285Y-44029380D01*
X129945523Y-44077000D01*
X129993142Y-44124619D01*
X130040761Y-44219857D01*
X130040761Y-44362714D01*
X129993142Y-44457952D01*
X129945523Y-44505571D01*
X129850285Y-44553190D01*
X129469333Y-44553190D01*
X130326476Y-44029380D02*
X130659809Y-45029380D01*
X130993142Y-44029380D01*
X131850285Y-45029380D02*
X131278857Y-45029380D01*
X131564571Y-45029380D02*
X131564571Y-44029380D01*
X131469333Y-44172238D01*
X131374095Y-44267476D01*
X131278857Y-44315095D01*
X139366666Y-41997380D02*
X139366666Y-42711666D01*
X139319047Y-42854523D01*
X139223809Y-42949761D01*
X139080952Y-42997380D01*
X138985714Y-42997380D01*
X140366666Y-42997380D02*
X139795238Y-42997380D01*
X140080952Y-42997380D02*
X140080952Y-41997380D01*
X139985714Y-42140238D01*
X139890476Y-42235476D01*
X139795238Y-42283095D01*
X158066333Y-57254142D02*
X158018714Y-57301761D01*
X157875857Y-57349380D01*
X157780619Y-57349380D01*
X157637761Y-57301761D01*
X157542523Y-57206523D01*
X157494904Y-57111285D01*
X157447285Y-56920809D01*
X157447285Y-56777952D01*
X157494904Y-56587476D01*
X157542523Y-56492238D01*
X157637761Y-56397000D01*
X157780619Y-56349380D01*
X157875857Y-56349380D01*
X158018714Y-56397000D01*
X158066333Y-56444619D01*
X159018714Y-57349380D02*
X158447285Y-57349380D01*
X158733000Y-57349380D02*
X158733000Y-56349380D01*
X158637761Y-56492238D01*
X158542523Y-56587476D01*
X158447285Y-56635095D01*
X114149285Y-39044571D02*
X114292142Y-39092190D01*
X114339761Y-39139809D01*
X114387380Y-39235047D01*
X114387380Y-39377904D01*
X114339761Y-39473142D01*
X114292142Y-39520761D01*
X114196904Y-39568380D01*
X113815952Y-39568380D01*
X113815952Y-38568380D01*
X114149285Y-38568380D01*
X114244523Y-38616000D01*
X114292142Y-38663619D01*
X114339761Y-38758857D01*
X114339761Y-38854095D01*
X114292142Y-38949333D01*
X114244523Y-38996952D01*
X114149285Y-39044571D01*
X113815952Y-39044571D01*
X114673095Y-38568380D02*
X115244523Y-38568380D01*
X114958809Y-39568380D02*
X114958809Y-38568380D01*
X116101666Y-39568380D02*
X115530238Y-39568380D01*
X115815952Y-39568380D02*
X115815952Y-38568380D01*
X115720714Y-38711238D01*
X115625476Y-38806476D01*
X115530238Y-38854095D01*
X112736333Y-48617142D02*
X112688714Y-48664761D01*
X112545857Y-48712380D01*
X112450619Y-48712380D01*
X112307761Y-48664761D01*
X112212523Y-48569523D01*
X112164904Y-48474285D01*
X112117285Y-48283809D01*
X112117285Y-48140952D01*
X112164904Y-47950476D01*
X112212523Y-47855238D01*
X112307761Y-47760000D01*
X112450619Y-47712380D01*
X112545857Y-47712380D01*
X112688714Y-47760000D01*
X112736333Y-47807619D01*
X113593476Y-47712380D02*
X113403000Y-47712380D01*
X113307761Y-47760000D01*
X113260142Y-47807619D01*
X113164904Y-47950476D01*
X113117285Y-48140952D01*
X113117285Y-48521904D01*
X113164904Y-48617142D01*
X113212523Y-48664761D01*
X113307761Y-48712380D01*
X113498238Y-48712380D01*
X113593476Y-48664761D01*
X113641095Y-48617142D01*
X113688714Y-48521904D01*
X113688714Y-48283809D01*
X113641095Y-48188571D01*
X113593476Y-48140952D01*
X113498238Y-48093333D01*
X113307761Y-48093333D01*
X113212523Y-48140952D01*
X113164904Y-48188571D01*
X113117285Y-48283809D01*
X120229333Y-42140142D02*
X120181714Y-42187761D01*
X120038857Y-42235380D01*
X119943619Y-42235380D01*
X119800761Y-42187761D01*
X119705523Y-42092523D01*
X119657904Y-41997285D01*
X119610285Y-41806809D01*
X119610285Y-41663952D01*
X119657904Y-41473476D01*
X119705523Y-41378238D01*
X119800761Y-41283000D01*
X119943619Y-41235380D01*
X120038857Y-41235380D01*
X120181714Y-41283000D01*
X120229333Y-41330619D01*
X120800761Y-41663952D02*
X120705523Y-41616333D01*
X120657904Y-41568714D01*
X120610285Y-41473476D01*
X120610285Y-41425857D01*
X120657904Y-41330619D01*
X120705523Y-41283000D01*
X120800761Y-41235380D01*
X120991238Y-41235380D01*
X121086476Y-41283000D01*
X121134095Y-41330619D01*
X121181714Y-41425857D01*
X121181714Y-41473476D01*
X121134095Y-41568714D01*
X121086476Y-41616333D01*
X120991238Y-41663952D01*
X120800761Y-41663952D01*
X120705523Y-41711571D01*
X120657904Y-41759190D01*
X120610285Y-41854428D01*
X120610285Y-42044904D01*
X120657904Y-42140142D01*
X120705523Y-42187761D01*
X120800761Y-42235380D01*
X120991238Y-42235380D01*
X121086476Y-42187761D01*
X121134095Y-42140142D01*
X121181714Y-42044904D01*
X121181714Y-41854428D01*
X121134095Y-41759190D01*
X121086476Y-41711571D01*
X120991238Y-41663952D01*
X113966666Y-53554380D02*
X113966666Y-54268666D01*
X113919047Y-54411523D01*
X113823809Y-54506761D01*
X113680952Y-54554380D01*
X113585714Y-54554380D01*
X114347619Y-53554380D02*
X114966666Y-53554380D01*
X114633333Y-53935333D01*
X114776190Y-53935333D01*
X114871428Y-53982952D01*
X114919047Y-54030571D01*
X114966666Y-54125809D01*
X114966666Y-54363904D01*
X114919047Y-54459142D01*
X114871428Y-54506761D01*
X114776190Y-54554380D01*
X114490476Y-54554380D01*
X114395238Y-54506761D01*
X114347619Y-54459142D01*
X121626333Y-40584380D02*
X121293000Y-40108190D01*
X121054904Y-40584380D02*
X121054904Y-39584380D01*
X121435857Y-39584380D01*
X121531095Y-39632000D01*
X121578714Y-39679619D01*
X121626333Y-39774857D01*
X121626333Y-39917714D01*
X121578714Y-40012952D01*
X121531095Y-40060571D01*
X121435857Y-40108190D01*
X121054904Y-40108190D01*
X122578714Y-40584380D02*
X122007285Y-40584380D01*
X122293000Y-40584380D02*
X122293000Y-39584380D01*
X122197761Y-39727238D01*
X122102523Y-39822476D01*
X122007285Y-39870095D01*
X111085333Y-42108380D02*
X110752000Y-41632190D01*
X110513904Y-42108380D02*
X110513904Y-41108380D01*
X110894857Y-41108380D01*
X110990095Y-41156000D01*
X111037714Y-41203619D01*
X111085333Y-41298857D01*
X111085333Y-41441714D01*
X111037714Y-41536952D01*
X110990095Y-41584571D01*
X110894857Y-41632190D01*
X110513904Y-41632190D01*
X111942476Y-41441714D02*
X111942476Y-42108380D01*
X111704380Y-41060761D02*
X111466285Y-41775047D01*
X112085333Y-41775047D01*
X112376380Y-44957904D02*
X113185904Y-44957904D01*
X113281142Y-44910285D01*
X113328761Y-44862666D01*
X113376380Y-44767428D01*
X113376380Y-44576952D01*
X113328761Y-44481714D01*
X113281142Y-44434095D01*
X113185904Y-44386476D01*
X112376380Y-44386476D01*
X112709714Y-43481714D02*
X113376380Y-43481714D01*
X112328761Y-43719809D02*
X113043047Y-43957904D01*
X113043047Y-43338857D01*
M02*
