G04 #@! TF.GenerationSoftware,KiCad,Pcbnew,5.1.5*
G04 #@! TF.CreationDate,2020-01-21T16:39:42-05:00*
G04 #@! TF.ProjectId,rpn_mxb,72706e5f-6d78-4622-9e6b-696361645f70,rev?*
G04 #@! TF.SameCoordinates,Original*
G04 #@! TF.FileFunction,Legend,Bot*
G04 #@! TF.FilePolarity,Positive*
%FSLAX46Y46*%
G04 Gerber Fmt 4.6, Leading zero omitted, Abs format (unit mm)*
G04 Created by KiCad (PCBNEW 5.1.5) date 2020-01-21 16:39:42*
%MOMM*%
%LPD*%
G04 APERTURE LIST*
%ADD10C,0.300000*%
%ADD11C,0.120000*%
%ADD12C,0.150000*%
G04 APERTURE END LIST*
D10*
X182446714Y-41202000D02*
X180732428Y-41202000D01*
X182089571Y-43350571D02*
X182089571Y-41850571D01*
X181589571Y-42922000D01*
X181089571Y-41850571D01*
X181089571Y-43350571D01*
X180732428Y-41202000D02*
X179232428Y-41202000D01*
X179518142Y-43207714D02*
X179589571Y-43279142D01*
X179803857Y-43350571D01*
X179946714Y-43350571D01*
X180161000Y-43279142D01*
X180303857Y-43136285D01*
X180375285Y-42993428D01*
X180446714Y-42707714D01*
X180446714Y-42493428D01*
X180375285Y-42207714D01*
X180303857Y-42064857D01*
X180161000Y-41922000D01*
X179946714Y-41850571D01*
X179803857Y-41850571D01*
X179589571Y-41922000D01*
X179518142Y-41993428D01*
X179232428Y-41202000D02*
X178018142Y-41202000D01*
X178161000Y-43350571D02*
X178875285Y-43350571D01*
X178875285Y-41850571D01*
X178018142Y-41202000D02*
X176518142Y-41202000D01*
X176803857Y-43350571D02*
X177303857Y-42636285D01*
X177661000Y-43350571D02*
X177661000Y-41850571D01*
X177089571Y-41850571D01*
X176946714Y-41922000D01*
X176875285Y-41993428D01*
X176803857Y-42136285D01*
X176803857Y-42350571D01*
X176875285Y-42493428D01*
X176946714Y-42564857D01*
X177089571Y-42636285D01*
X177661000Y-42636285D01*
X175161000Y-41850571D02*
X174232428Y-41850571D01*
X174732428Y-42422000D01*
X174518142Y-42422000D01*
X174375285Y-42493428D01*
X174303857Y-42564857D01*
X174232428Y-42707714D01*
X174232428Y-43064857D01*
X174303857Y-43207714D01*
X174375285Y-43279142D01*
X174518142Y-43350571D01*
X174946714Y-43350571D01*
X175089571Y-43279142D01*
X175161000Y-43207714D01*
X173732428Y-42350571D02*
X173375285Y-43350571D01*
X173018142Y-42350571D01*
X172589571Y-41850571D02*
X171661000Y-41850571D01*
X172161000Y-42422000D01*
X171946714Y-42422000D01*
X171803857Y-42493428D01*
X171732428Y-42564857D01*
X171661000Y-42707714D01*
X171661000Y-43064857D01*
X171732428Y-43207714D01*
X171803857Y-43279142D01*
X171946714Y-43350571D01*
X172375285Y-43350571D01*
X172518142Y-43279142D01*
X172589571Y-43207714D01*
D11*
X149738000Y-48540000D02*
X150668000Y-48540000D01*
X152898000Y-48540000D02*
X151968000Y-48540000D01*
X152898000Y-48540000D02*
X152898000Y-51700000D01*
X149738000Y-48540000D02*
X149738000Y-50000000D01*
X146102000Y-49546252D02*
X146102000Y-49023748D01*
X147522000Y-49546252D02*
X147522000Y-49023748D01*
X156666000Y-49528252D02*
X156666000Y-49005748D01*
X155246000Y-49528252D02*
X155246000Y-49005748D01*
X174599600Y-44059800D02*
X173489600Y-44059800D01*
X173489600Y-44059800D02*
X173489600Y-45389800D01*
X184689600Y-44059800D02*
X184689600Y-56879800D01*
X184689600Y-56879800D02*
X176059600Y-56879800D01*
X176059600Y-44059800D02*
X176059600Y-56879800D01*
X184689600Y-44059800D02*
X176059600Y-44059800D01*
X184689600Y-54279800D02*
X176059600Y-54279800D01*
X184689600Y-51739800D02*
X176059600Y-51739800D01*
X184689600Y-49199800D02*
X176059600Y-49199800D01*
X184689600Y-46659800D02*
X176059600Y-46659800D01*
X176059600Y-55909800D02*
X175649600Y-55909800D01*
X176059600Y-55189800D02*
X175649600Y-55189800D01*
X176059600Y-53369800D02*
X175649600Y-53369800D01*
X176059600Y-52649800D02*
X175649600Y-52649800D01*
X176059600Y-50829800D02*
X175649600Y-50829800D01*
X176059600Y-50109800D02*
X175649600Y-50109800D01*
X176059600Y-48289800D02*
X175649600Y-48289800D01*
X176059600Y-47569800D02*
X175649600Y-47569800D01*
X176059600Y-45749800D02*
X175709600Y-45749800D01*
X176059600Y-45029800D02*
X175709600Y-45029800D01*
X184689600Y-46541700D02*
X176059600Y-46541700D01*
X184689600Y-46423605D02*
X176059600Y-46423605D01*
X184689600Y-46305510D02*
X176059600Y-46305510D01*
X184689600Y-46187415D02*
X176059600Y-46187415D01*
X184689600Y-46069320D02*
X176059600Y-46069320D01*
X184689600Y-45951225D02*
X176059600Y-45951225D01*
X184689600Y-45833130D02*
X176059600Y-45833130D01*
X184689600Y-45715035D02*
X176059600Y-45715035D01*
X184689600Y-45596940D02*
X176059600Y-45596940D01*
X184689600Y-45478845D02*
X176059600Y-45478845D01*
X184689600Y-45360750D02*
X176059600Y-45360750D01*
X184689600Y-45242655D02*
X176059600Y-45242655D01*
X184689600Y-45124560D02*
X176059600Y-45124560D01*
X184689600Y-45006465D02*
X176059600Y-45006465D01*
X184689600Y-44888370D02*
X176059600Y-44888370D01*
X184689600Y-44770275D02*
X176059600Y-44770275D01*
X184689600Y-44652180D02*
X176059600Y-44652180D01*
X184689600Y-44534085D02*
X176059600Y-44534085D01*
X184689600Y-44415990D02*
X176059600Y-44415990D01*
X184689600Y-44297895D02*
X176059600Y-44297895D01*
X184689600Y-44179800D02*
X176059600Y-44179800D01*
X160048749Y-36241999D02*
X160571253Y-36241999D01*
X160048749Y-37661999D02*
X160571253Y-37661999D01*
X155298749Y-36241999D02*
X155821253Y-36241999D01*
X155298749Y-37661999D02*
X155821253Y-37661999D01*
X168291400Y-145416600D02*
X170751400Y-145416600D01*
X168291400Y-146886600D02*
X168291400Y-145416600D01*
X170751400Y-146886600D02*
X168291400Y-146886600D01*
X147971400Y-145416600D02*
X150431400Y-145416600D01*
X147971400Y-146886600D02*
X147971400Y-145416600D01*
X150431400Y-146886600D02*
X147971400Y-146886600D01*
X127651400Y-145416600D02*
X130111400Y-145416600D01*
X127651400Y-146886600D02*
X127651400Y-145416600D01*
X130111400Y-146886600D02*
X127651400Y-146886600D01*
X107331400Y-145416600D02*
X109791400Y-145416600D01*
X107331400Y-146886600D02*
X107331400Y-145416600D01*
X109791400Y-146886600D02*
X107331400Y-146886600D01*
X168291400Y-125096600D02*
X170751400Y-125096600D01*
X168291400Y-126566600D02*
X168291400Y-125096600D01*
X170751400Y-126566600D02*
X168291400Y-126566600D01*
X147971400Y-125096600D02*
X150431400Y-125096600D01*
X147971400Y-126566600D02*
X147971400Y-125096600D01*
X150431400Y-126566600D02*
X147971400Y-126566600D01*
X127651400Y-125096600D02*
X130111400Y-125096600D01*
X127651400Y-126566600D02*
X127651400Y-125096600D01*
X130111400Y-126566600D02*
X127651400Y-126566600D01*
X107331400Y-125096600D02*
X109791400Y-125096600D01*
X107331400Y-126566600D02*
X107331400Y-125096600D01*
X109791400Y-126566600D02*
X107331400Y-126566600D01*
X168291400Y-104776600D02*
X170751400Y-104776600D01*
X168291400Y-106246600D02*
X168291400Y-104776600D01*
X170751400Y-106246600D02*
X168291400Y-106246600D01*
X147971400Y-104776600D02*
X150431400Y-104776600D01*
X147971400Y-106246600D02*
X147971400Y-104776600D01*
X150431400Y-106246600D02*
X147971400Y-106246600D01*
X127651400Y-104776600D02*
X130111400Y-104776600D01*
X127651400Y-106246600D02*
X127651400Y-104776600D01*
X130111400Y-106246600D02*
X127651400Y-106246600D01*
X107331400Y-104776600D02*
X109791400Y-104776600D01*
X107331400Y-106246600D02*
X107331400Y-104776600D01*
X109791400Y-106246600D02*
X107331400Y-106246600D01*
X168291400Y-84456600D02*
X170751400Y-84456600D01*
X168291400Y-85926600D02*
X168291400Y-84456600D01*
X170751400Y-85926600D02*
X168291400Y-85926600D01*
X147971400Y-84456600D02*
X150431400Y-84456600D01*
X147971400Y-85926600D02*
X147971400Y-84456600D01*
X150431400Y-85926600D02*
X147971400Y-85926600D01*
X127651400Y-84456600D02*
X130111400Y-84456600D01*
X127651400Y-85926600D02*
X127651400Y-84456600D01*
X130111400Y-85926600D02*
X127651400Y-85926600D01*
X107331400Y-84456600D02*
X109791400Y-84456600D01*
X107331400Y-85926600D02*
X107331400Y-84456600D01*
X109791400Y-85926600D02*
X107331400Y-85926600D01*
X168291400Y-64136600D02*
X170751400Y-64136600D01*
X168291400Y-65606600D02*
X168291400Y-64136600D01*
X170751400Y-65606600D02*
X168291400Y-65606600D01*
X147971400Y-64136600D02*
X150431400Y-64136600D01*
X147971400Y-65606600D02*
X147971400Y-64136600D01*
X150431400Y-65606600D02*
X147971400Y-65606600D01*
X127651400Y-64136600D02*
X130111400Y-64136600D01*
X127651400Y-65606600D02*
X127651400Y-64136600D01*
X130111400Y-65606600D02*
X127651400Y-65606600D01*
X107331400Y-64136600D02*
X109791400Y-64136600D01*
X107331400Y-65606600D02*
X107331400Y-64136600D01*
X109791400Y-65606600D02*
X107331400Y-65606600D01*
X124766000Y-56117748D02*
X124766000Y-56640252D01*
X126186000Y-56117748D02*
X126186000Y-56640252D01*
X134314000Y-55863748D02*
X134314000Y-56386252D01*
X132894000Y-55863748D02*
X132894000Y-56386252D01*
X118601748Y-45414000D02*
X119124252Y-45414000D01*
X118601748Y-43994000D02*
X119124252Y-43994000D01*
X133122000Y-51684000D02*
X134582000Y-51684000D01*
X133122000Y-48524000D02*
X136282000Y-48524000D01*
X133122000Y-48524000D02*
X133122000Y-49454000D01*
X133122000Y-51684000D02*
X133122000Y-50754000D01*
X127252000Y-48458000D02*
X127252000Y-49388000D01*
X127252000Y-51618000D02*
X127252000Y-50688000D01*
X127252000Y-51618000D02*
X124092000Y-51618000D01*
X127252000Y-48458000D02*
X125792000Y-48458000D01*
X119124252Y-40438000D02*
X118601748Y-40438000D01*
X119124252Y-41858000D02*
X118601748Y-41858000D01*
X121174252Y-56336000D02*
X120651748Y-56336000D01*
X121174252Y-54916000D02*
X120651748Y-54916000D01*
X131338000Y-55314000D02*
X131338000Y-57114000D01*
X128118000Y-57114000D02*
X128118000Y-54664000D01*
X118212000Y-51018000D02*
X118212000Y-49218000D01*
X121432000Y-49218000D02*
X121432000Y-52168000D01*
D12*
X151352238Y-53252619D02*
X151447476Y-53205000D01*
X151542714Y-53109761D01*
X151685571Y-52966904D01*
X151780809Y-52919285D01*
X151876047Y-52919285D01*
X151828428Y-53157380D02*
X151923666Y-53109761D01*
X152018904Y-53014523D01*
X152066523Y-52824047D01*
X152066523Y-52490714D01*
X152018904Y-52300238D01*
X151923666Y-52205000D01*
X151828428Y-52157380D01*
X151637952Y-52157380D01*
X151542714Y-52205000D01*
X151447476Y-52300238D01*
X151399857Y-52490714D01*
X151399857Y-52824047D01*
X151447476Y-53014523D01*
X151542714Y-53109761D01*
X151637952Y-53157380D01*
X151828428Y-53157380D01*
X151066523Y-52157380D02*
X150447476Y-52157380D01*
X150780809Y-52538333D01*
X150637952Y-52538333D01*
X150542714Y-52585952D01*
X150495095Y-52633571D01*
X150447476Y-52728809D01*
X150447476Y-52966904D01*
X150495095Y-53062142D01*
X150542714Y-53109761D01*
X150637952Y-53157380D01*
X150923666Y-53157380D01*
X151018904Y-53109761D01*
X151066523Y-53062142D01*
X146978666Y-52395380D02*
X147312000Y-51919190D01*
X147550095Y-52395380D02*
X147550095Y-51395380D01*
X147169142Y-51395380D01*
X147073904Y-51443000D01*
X147026285Y-51490619D01*
X146978666Y-51585857D01*
X146978666Y-51728714D01*
X147026285Y-51823952D01*
X147073904Y-51871571D01*
X147169142Y-51919190D01*
X147550095Y-51919190D01*
X146073904Y-51395380D02*
X146550095Y-51395380D01*
X146597714Y-51871571D01*
X146550095Y-51823952D01*
X146454857Y-51776333D01*
X146216761Y-51776333D01*
X146121523Y-51823952D01*
X146073904Y-51871571D01*
X146026285Y-51966809D01*
X146026285Y-52204904D01*
X146073904Y-52300142D01*
X146121523Y-52347761D01*
X146216761Y-52395380D01*
X146454857Y-52395380D01*
X146550095Y-52347761D01*
X146597714Y-52300142D01*
X156122666Y-52395380D02*
X156456000Y-51919190D01*
X156694095Y-52395380D02*
X156694095Y-51395380D01*
X156313142Y-51395380D01*
X156217904Y-51443000D01*
X156170285Y-51490619D01*
X156122666Y-51585857D01*
X156122666Y-51728714D01*
X156170285Y-51823952D01*
X156217904Y-51871571D01*
X156313142Y-51919190D01*
X156694095Y-51919190D01*
X155265523Y-51395380D02*
X155456000Y-51395380D01*
X155551238Y-51443000D01*
X155598857Y-51490619D01*
X155694095Y-51633476D01*
X155741714Y-51823952D01*
X155741714Y-52204904D01*
X155694095Y-52300142D01*
X155646476Y-52347761D01*
X155551238Y-52395380D01*
X155360761Y-52395380D01*
X155265523Y-52347761D01*
X155217904Y-52300142D01*
X155170285Y-52204904D01*
X155170285Y-51966809D01*
X155217904Y-51871571D01*
X155265523Y-51823952D01*
X155360761Y-51776333D01*
X155551238Y-51776333D01*
X155646476Y-51823952D01*
X155694095Y-51871571D01*
X155741714Y-51966809D01*
X179149333Y-57491380D02*
X179149333Y-58205666D01*
X179196952Y-58348523D01*
X179292190Y-58443761D01*
X179435047Y-58491380D01*
X179530285Y-58491380D01*
X178720761Y-57586619D02*
X178673142Y-57539000D01*
X178577904Y-57491380D01*
X178339809Y-57491380D01*
X178244571Y-57539000D01*
X178196952Y-57586619D01*
X178149333Y-57681857D01*
X178149333Y-57777095D01*
X178196952Y-57919952D01*
X178768380Y-58491380D01*
X178149333Y-58491380D01*
X160476667Y-35663142D02*
X160524286Y-35710761D01*
X160667143Y-35758380D01*
X160762381Y-35758380D01*
X160905239Y-35710761D01*
X161000477Y-35615523D01*
X161048096Y-35520285D01*
X161095715Y-35329809D01*
X161095715Y-35186952D01*
X161048096Y-34996476D01*
X161000477Y-34901238D01*
X160905239Y-34806000D01*
X160762381Y-34758380D01*
X160667143Y-34758380D01*
X160524286Y-34806000D01*
X160476667Y-34853619D01*
X160143334Y-34758380D02*
X159524286Y-34758380D01*
X159857620Y-35139333D01*
X159714762Y-35139333D01*
X159619524Y-35186952D01*
X159571905Y-35234571D01*
X159524286Y-35329809D01*
X159524286Y-35567904D01*
X159571905Y-35663142D01*
X159619524Y-35710761D01*
X159714762Y-35758380D01*
X160000477Y-35758380D01*
X160095715Y-35710761D01*
X160143334Y-35663142D01*
X155726667Y-35663142D02*
X155774286Y-35710761D01*
X155917143Y-35758380D01*
X156012381Y-35758380D01*
X156155239Y-35710761D01*
X156250477Y-35615523D01*
X156298096Y-35520285D01*
X156345715Y-35329809D01*
X156345715Y-35186952D01*
X156298096Y-34996476D01*
X156250477Y-34901238D01*
X156155239Y-34806000D01*
X156012381Y-34758380D01*
X155917143Y-34758380D01*
X155774286Y-34806000D01*
X155726667Y-34853619D01*
X155345715Y-34853619D02*
X155298096Y-34806000D01*
X155202858Y-34758380D01*
X154964762Y-34758380D01*
X154869524Y-34806000D01*
X154821905Y-34853619D01*
X154774286Y-34948857D01*
X154774286Y-35044095D01*
X154821905Y-35186952D01*
X155393334Y-35758380D01*
X154774286Y-35758380D01*
X171165685Y-144985980D02*
X171165685Y-143985980D01*
X170927590Y-143985980D01*
X170784733Y-144033600D01*
X170689495Y-144128838D01*
X170641876Y-144224076D01*
X170594257Y-144414552D01*
X170594257Y-144557409D01*
X170641876Y-144747885D01*
X170689495Y-144843123D01*
X170784733Y-144938361D01*
X170927590Y-144985980D01*
X171165685Y-144985980D01*
X170213304Y-144081219D02*
X170165685Y-144033600D01*
X170070447Y-143985980D01*
X169832352Y-143985980D01*
X169737114Y-144033600D01*
X169689495Y-144081219D01*
X169641876Y-144176457D01*
X169641876Y-144271695D01*
X169689495Y-144414552D01*
X170260923Y-144985980D01*
X169641876Y-144985980D01*
X169022828Y-143985980D02*
X168927590Y-143985980D01*
X168832352Y-144033600D01*
X168784733Y-144081219D01*
X168737114Y-144176457D01*
X168689495Y-144366933D01*
X168689495Y-144605028D01*
X168737114Y-144795504D01*
X168784733Y-144890742D01*
X168832352Y-144938361D01*
X168927590Y-144985980D01*
X169022828Y-144985980D01*
X169118066Y-144938361D01*
X169165685Y-144890742D01*
X169213304Y-144795504D01*
X169260923Y-144605028D01*
X169260923Y-144366933D01*
X169213304Y-144176457D01*
X169165685Y-144081219D01*
X169118066Y-144033600D01*
X169022828Y-143985980D01*
X150845685Y-144985980D02*
X150845685Y-143985980D01*
X150607590Y-143985980D01*
X150464733Y-144033600D01*
X150369495Y-144128838D01*
X150321876Y-144224076D01*
X150274257Y-144414552D01*
X150274257Y-144557409D01*
X150321876Y-144747885D01*
X150369495Y-144843123D01*
X150464733Y-144938361D01*
X150607590Y-144985980D01*
X150845685Y-144985980D01*
X149321876Y-144985980D02*
X149893304Y-144985980D01*
X149607590Y-144985980D02*
X149607590Y-143985980D01*
X149702828Y-144128838D01*
X149798066Y-144224076D01*
X149893304Y-144271695D01*
X148845685Y-144985980D02*
X148655209Y-144985980D01*
X148559971Y-144938361D01*
X148512352Y-144890742D01*
X148417114Y-144747885D01*
X148369495Y-144557409D01*
X148369495Y-144176457D01*
X148417114Y-144081219D01*
X148464733Y-144033600D01*
X148559971Y-143985980D01*
X148750447Y-143985980D01*
X148845685Y-144033600D01*
X148893304Y-144081219D01*
X148940923Y-144176457D01*
X148940923Y-144414552D01*
X148893304Y-144509790D01*
X148845685Y-144557409D01*
X148750447Y-144605028D01*
X148559971Y-144605028D01*
X148464733Y-144557409D01*
X148417114Y-144509790D01*
X148369495Y-144414552D01*
X130525685Y-144985980D02*
X130525685Y-143985980D01*
X130287590Y-143985980D01*
X130144733Y-144033600D01*
X130049495Y-144128838D01*
X130001876Y-144224076D01*
X129954257Y-144414552D01*
X129954257Y-144557409D01*
X130001876Y-144747885D01*
X130049495Y-144843123D01*
X130144733Y-144938361D01*
X130287590Y-144985980D01*
X130525685Y-144985980D01*
X129001876Y-144985980D02*
X129573304Y-144985980D01*
X129287590Y-144985980D02*
X129287590Y-143985980D01*
X129382828Y-144128838D01*
X129478066Y-144224076D01*
X129573304Y-144271695D01*
X128430447Y-144414552D02*
X128525685Y-144366933D01*
X128573304Y-144319314D01*
X128620923Y-144224076D01*
X128620923Y-144176457D01*
X128573304Y-144081219D01*
X128525685Y-144033600D01*
X128430447Y-143985980D01*
X128239971Y-143985980D01*
X128144733Y-144033600D01*
X128097114Y-144081219D01*
X128049495Y-144176457D01*
X128049495Y-144224076D01*
X128097114Y-144319314D01*
X128144733Y-144366933D01*
X128239971Y-144414552D01*
X128430447Y-144414552D01*
X128525685Y-144462171D01*
X128573304Y-144509790D01*
X128620923Y-144605028D01*
X128620923Y-144795504D01*
X128573304Y-144890742D01*
X128525685Y-144938361D01*
X128430447Y-144985980D01*
X128239971Y-144985980D01*
X128144733Y-144938361D01*
X128097114Y-144890742D01*
X128049495Y-144795504D01*
X128049495Y-144605028D01*
X128097114Y-144509790D01*
X128144733Y-144462171D01*
X128239971Y-144414552D01*
X110205685Y-144985980D02*
X110205685Y-143985980D01*
X109967590Y-143985980D01*
X109824733Y-144033600D01*
X109729495Y-144128838D01*
X109681876Y-144224076D01*
X109634257Y-144414552D01*
X109634257Y-144557409D01*
X109681876Y-144747885D01*
X109729495Y-144843123D01*
X109824733Y-144938361D01*
X109967590Y-144985980D01*
X110205685Y-144985980D01*
X108681876Y-144985980D02*
X109253304Y-144985980D01*
X108967590Y-144985980D02*
X108967590Y-143985980D01*
X109062828Y-144128838D01*
X109158066Y-144224076D01*
X109253304Y-144271695D01*
X108348542Y-143985980D02*
X107681876Y-143985980D01*
X108110447Y-144985980D01*
X171165685Y-124665980D02*
X171165685Y-123665980D01*
X170927590Y-123665980D01*
X170784733Y-123713600D01*
X170689495Y-123808838D01*
X170641876Y-123904076D01*
X170594257Y-124094552D01*
X170594257Y-124237409D01*
X170641876Y-124427885D01*
X170689495Y-124523123D01*
X170784733Y-124618361D01*
X170927590Y-124665980D01*
X171165685Y-124665980D01*
X169641876Y-124665980D02*
X170213304Y-124665980D01*
X169927590Y-124665980D02*
X169927590Y-123665980D01*
X170022828Y-123808838D01*
X170118066Y-123904076D01*
X170213304Y-123951695D01*
X168784733Y-123665980D02*
X168975209Y-123665980D01*
X169070447Y-123713600D01*
X169118066Y-123761219D01*
X169213304Y-123904076D01*
X169260923Y-124094552D01*
X169260923Y-124475504D01*
X169213304Y-124570742D01*
X169165685Y-124618361D01*
X169070447Y-124665980D01*
X168879971Y-124665980D01*
X168784733Y-124618361D01*
X168737114Y-124570742D01*
X168689495Y-124475504D01*
X168689495Y-124237409D01*
X168737114Y-124142171D01*
X168784733Y-124094552D01*
X168879971Y-124046933D01*
X169070447Y-124046933D01*
X169165685Y-124094552D01*
X169213304Y-124142171D01*
X169260923Y-124237409D01*
X150845685Y-124665980D02*
X150845685Y-123665980D01*
X150607590Y-123665980D01*
X150464733Y-123713600D01*
X150369495Y-123808838D01*
X150321876Y-123904076D01*
X150274257Y-124094552D01*
X150274257Y-124237409D01*
X150321876Y-124427885D01*
X150369495Y-124523123D01*
X150464733Y-124618361D01*
X150607590Y-124665980D01*
X150845685Y-124665980D01*
X149321876Y-124665980D02*
X149893304Y-124665980D01*
X149607590Y-124665980D02*
X149607590Y-123665980D01*
X149702828Y-123808838D01*
X149798066Y-123904076D01*
X149893304Y-123951695D01*
X148417114Y-123665980D02*
X148893304Y-123665980D01*
X148940923Y-124142171D01*
X148893304Y-124094552D01*
X148798066Y-124046933D01*
X148559971Y-124046933D01*
X148464733Y-124094552D01*
X148417114Y-124142171D01*
X148369495Y-124237409D01*
X148369495Y-124475504D01*
X148417114Y-124570742D01*
X148464733Y-124618361D01*
X148559971Y-124665980D01*
X148798066Y-124665980D01*
X148893304Y-124618361D01*
X148940923Y-124570742D01*
X130525685Y-124665980D02*
X130525685Y-123665980D01*
X130287590Y-123665980D01*
X130144733Y-123713600D01*
X130049495Y-123808838D01*
X130001876Y-123904076D01*
X129954257Y-124094552D01*
X129954257Y-124237409D01*
X130001876Y-124427885D01*
X130049495Y-124523123D01*
X130144733Y-124618361D01*
X130287590Y-124665980D01*
X130525685Y-124665980D01*
X129001876Y-124665980D02*
X129573304Y-124665980D01*
X129287590Y-124665980D02*
X129287590Y-123665980D01*
X129382828Y-123808838D01*
X129478066Y-123904076D01*
X129573304Y-123951695D01*
X128144733Y-123999314D02*
X128144733Y-124665980D01*
X128382828Y-123618361D02*
X128620923Y-124332647D01*
X128001876Y-124332647D01*
X110205685Y-124665980D02*
X110205685Y-123665980D01*
X109967590Y-123665980D01*
X109824733Y-123713600D01*
X109729495Y-123808838D01*
X109681876Y-123904076D01*
X109634257Y-124094552D01*
X109634257Y-124237409D01*
X109681876Y-124427885D01*
X109729495Y-124523123D01*
X109824733Y-124618361D01*
X109967590Y-124665980D01*
X110205685Y-124665980D01*
X108681876Y-124665980D02*
X109253304Y-124665980D01*
X108967590Y-124665980D02*
X108967590Y-123665980D01*
X109062828Y-123808838D01*
X109158066Y-123904076D01*
X109253304Y-123951695D01*
X108348542Y-123665980D02*
X107729495Y-123665980D01*
X108062828Y-124046933D01*
X107919971Y-124046933D01*
X107824733Y-124094552D01*
X107777114Y-124142171D01*
X107729495Y-124237409D01*
X107729495Y-124475504D01*
X107777114Y-124570742D01*
X107824733Y-124618361D01*
X107919971Y-124665980D01*
X108205685Y-124665980D01*
X108300923Y-124618361D01*
X108348542Y-124570742D01*
X171165685Y-104345980D02*
X171165685Y-103345980D01*
X170927590Y-103345980D01*
X170784733Y-103393600D01*
X170689495Y-103488838D01*
X170641876Y-103584076D01*
X170594257Y-103774552D01*
X170594257Y-103917409D01*
X170641876Y-104107885D01*
X170689495Y-104203123D01*
X170784733Y-104298361D01*
X170927590Y-104345980D01*
X171165685Y-104345980D01*
X169641876Y-104345980D02*
X170213304Y-104345980D01*
X169927590Y-104345980D02*
X169927590Y-103345980D01*
X170022828Y-103488838D01*
X170118066Y-103584076D01*
X170213304Y-103631695D01*
X169260923Y-103441219D02*
X169213304Y-103393600D01*
X169118066Y-103345980D01*
X168879971Y-103345980D01*
X168784733Y-103393600D01*
X168737114Y-103441219D01*
X168689495Y-103536457D01*
X168689495Y-103631695D01*
X168737114Y-103774552D01*
X169308542Y-104345980D01*
X168689495Y-104345980D01*
X150845685Y-104345980D02*
X150845685Y-103345980D01*
X150607590Y-103345980D01*
X150464733Y-103393600D01*
X150369495Y-103488838D01*
X150321876Y-103584076D01*
X150274257Y-103774552D01*
X150274257Y-103917409D01*
X150321876Y-104107885D01*
X150369495Y-104203123D01*
X150464733Y-104298361D01*
X150607590Y-104345980D01*
X150845685Y-104345980D01*
X149321876Y-104345980D02*
X149893304Y-104345980D01*
X149607590Y-104345980D02*
X149607590Y-103345980D01*
X149702828Y-103488838D01*
X149798066Y-103584076D01*
X149893304Y-103631695D01*
X148369495Y-104345980D02*
X148940923Y-104345980D01*
X148655209Y-104345980D02*
X148655209Y-103345980D01*
X148750447Y-103488838D01*
X148845685Y-103584076D01*
X148940923Y-103631695D01*
X130525685Y-104345980D02*
X130525685Y-103345980D01*
X130287590Y-103345980D01*
X130144733Y-103393600D01*
X130049495Y-103488838D01*
X130001876Y-103584076D01*
X129954257Y-103774552D01*
X129954257Y-103917409D01*
X130001876Y-104107885D01*
X130049495Y-104203123D01*
X130144733Y-104298361D01*
X130287590Y-104345980D01*
X130525685Y-104345980D01*
X129001876Y-104345980D02*
X129573304Y-104345980D01*
X129287590Y-104345980D02*
X129287590Y-103345980D01*
X129382828Y-103488838D01*
X129478066Y-103584076D01*
X129573304Y-103631695D01*
X128382828Y-103345980D02*
X128287590Y-103345980D01*
X128192352Y-103393600D01*
X128144733Y-103441219D01*
X128097114Y-103536457D01*
X128049495Y-103726933D01*
X128049495Y-103965028D01*
X128097114Y-104155504D01*
X128144733Y-104250742D01*
X128192352Y-104298361D01*
X128287590Y-104345980D01*
X128382828Y-104345980D01*
X128478066Y-104298361D01*
X128525685Y-104250742D01*
X128573304Y-104155504D01*
X128620923Y-103965028D01*
X128620923Y-103726933D01*
X128573304Y-103536457D01*
X128525685Y-103441219D01*
X128478066Y-103393600D01*
X128382828Y-103345980D01*
X109729495Y-104345980D02*
X109729495Y-103345980D01*
X109491400Y-103345980D01*
X109348542Y-103393600D01*
X109253304Y-103488838D01*
X109205685Y-103584076D01*
X109158066Y-103774552D01*
X109158066Y-103917409D01*
X109205685Y-104107885D01*
X109253304Y-104203123D01*
X109348542Y-104298361D01*
X109491400Y-104345980D01*
X109729495Y-104345980D01*
X108681876Y-104345980D02*
X108491400Y-104345980D01*
X108396161Y-104298361D01*
X108348542Y-104250742D01*
X108253304Y-104107885D01*
X108205685Y-103917409D01*
X108205685Y-103536457D01*
X108253304Y-103441219D01*
X108300923Y-103393600D01*
X108396161Y-103345980D01*
X108586638Y-103345980D01*
X108681876Y-103393600D01*
X108729495Y-103441219D01*
X108777114Y-103536457D01*
X108777114Y-103774552D01*
X108729495Y-103869790D01*
X108681876Y-103917409D01*
X108586638Y-103965028D01*
X108396161Y-103965028D01*
X108300923Y-103917409D01*
X108253304Y-103869790D01*
X108205685Y-103774552D01*
X170689495Y-84025980D02*
X170689495Y-83025980D01*
X170451400Y-83025980D01*
X170308542Y-83073600D01*
X170213304Y-83168838D01*
X170165685Y-83264076D01*
X170118066Y-83454552D01*
X170118066Y-83597409D01*
X170165685Y-83787885D01*
X170213304Y-83883123D01*
X170308542Y-83978361D01*
X170451400Y-84025980D01*
X170689495Y-84025980D01*
X169546638Y-83454552D02*
X169641876Y-83406933D01*
X169689495Y-83359314D01*
X169737114Y-83264076D01*
X169737114Y-83216457D01*
X169689495Y-83121219D01*
X169641876Y-83073600D01*
X169546638Y-83025980D01*
X169356161Y-83025980D01*
X169260923Y-83073600D01*
X169213304Y-83121219D01*
X169165685Y-83216457D01*
X169165685Y-83264076D01*
X169213304Y-83359314D01*
X169260923Y-83406933D01*
X169356161Y-83454552D01*
X169546638Y-83454552D01*
X169641876Y-83502171D01*
X169689495Y-83549790D01*
X169737114Y-83645028D01*
X169737114Y-83835504D01*
X169689495Y-83930742D01*
X169641876Y-83978361D01*
X169546638Y-84025980D01*
X169356161Y-84025980D01*
X169260923Y-83978361D01*
X169213304Y-83930742D01*
X169165685Y-83835504D01*
X169165685Y-83645028D01*
X169213304Y-83549790D01*
X169260923Y-83502171D01*
X169356161Y-83454552D01*
X150369495Y-84025980D02*
X150369495Y-83025980D01*
X150131400Y-83025980D01*
X149988542Y-83073600D01*
X149893304Y-83168838D01*
X149845685Y-83264076D01*
X149798066Y-83454552D01*
X149798066Y-83597409D01*
X149845685Y-83787885D01*
X149893304Y-83883123D01*
X149988542Y-83978361D01*
X150131400Y-84025980D01*
X150369495Y-84025980D01*
X149464733Y-83025980D02*
X148798066Y-83025980D01*
X149226638Y-84025980D01*
X130049495Y-84025980D02*
X130049495Y-83025980D01*
X129811400Y-83025980D01*
X129668542Y-83073600D01*
X129573304Y-83168838D01*
X129525685Y-83264076D01*
X129478066Y-83454552D01*
X129478066Y-83597409D01*
X129525685Y-83787885D01*
X129573304Y-83883123D01*
X129668542Y-83978361D01*
X129811400Y-84025980D01*
X130049495Y-84025980D01*
X128620923Y-83025980D02*
X128811400Y-83025980D01*
X128906638Y-83073600D01*
X128954257Y-83121219D01*
X129049495Y-83264076D01*
X129097114Y-83454552D01*
X129097114Y-83835504D01*
X129049495Y-83930742D01*
X129001876Y-83978361D01*
X128906638Y-84025980D01*
X128716161Y-84025980D01*
X128620923Y-83978361D01*
X128573304Y-83930742D01*
X128525685Y-83835504D01*
X128525685Y-83597409D01*
X128573304Y-83502171D01*
X128620923Y-83454552D01*
X128716161Y-83406933D01*
X128906638Y-83406933D01*
X129001876Y-83454552D01*
X129049495Y-83502171D01*
X129097114Y-83597409D01*
X109729495Y-84025980D02*
X109729495Y-83025980D01*
X109491400Y-83025980D01*
X109348542Y-83073600D01*
X109253304Y-83168838D01*
X109205685Y-83264076D01*
X109158066Y-83454552D01*
X109158066Y-83597409D01*
X109205685Y-83787885D01*
X109253304Y-83883123D01*
X109348542Y-83978361D01*
X109491400Y-84025980D01*
X109729495Y-84025980D01*
X108253304Y-83025980D02*
X108729495Y-83025980D01*
X108777114Y-83502171D01*
X108729495Y-83454552D01*
X108634257Y-83406933D01*
X108396161Y-83406933D01*
X108300923Y-83454552D01*
X108253304Y-83502171D01*
X108205685Y-83597409D01*
X108205685Y-83835504D01*
X108253304Y-83930742D01*
X108300923Y-83978361D01*
X108396161Y-84025980D01*
X108634257Y-84025980D01*
X108729495Y-83978361D01*
X108777114Y-83930742D01*
X170689495Y-63705980D02*
X170689495Y-62705980D01*
X170451400Y-62705980D01*
X170308542Y-62753600D01*
X170213304Y-62848838D01*
X170165685Y-62944076D01*
X170118066Y-63134552D01*
X170118066Y-63277409D01*
X170165685Y-63467885D01*
X170213304Y-63563123D01*
X170308542Y-63658361D01*
X170451400Y-63705980D01*
X170689495Y-63705980D01*
X169260923Y-63039314D02*
X169260923Y-63705980D01*
X169499019Y-62658361D02*
X169737114Y-63372647D01*
X169118066Y-63372647D01*
X150369495Y-63705980D02*
X150369495Y-62705980D01*
X150131400Y-62705980D01*
X149988542Y-62753600D01*
X149893304Y-62848838D01*
X149845685Y-62944076D01*
X149798066Y-63134552D01*
X149798066Y-63277409D01*
X149845685Y-63467885D01*
X149893304Y-63563123D01*
X149988542Y-63658361D01*
X150131400Y-63705980D01*
X150369495Y-63705980D01*
X149464733Y-62705980D02*
X148845685Y-62705980D01*
X149179019Y-63086933D01*
X149036161Y-63086933D01*
X148940923Y-63134552D01*
X148893304Y-63182171D01*
X148845685Y-63277409D01*
X148845685Y-63515504D01*
X148893304Y-63610742D01*
X148940923Y-63658361D01*
X149036161Y-63705980D01*
X149321876Y-63705980D01*
X149417114Y-63658361D01*
X149464733Y-63610742D01*
X130049495Y-63705980D02*
X130049495Y-62705980D01*
X129811400Y-62705980D01*
X129668542Y-62753600D01*
X129573304Y-62848838D01*
X129525685Y-62944076D01*
X129478066Y-63134552D01*
X129478066Y-63277409D01*
X129525685Y-63467885D01*
X129573304Y-63563123D01*
X129668542Y-63658361D01*
X129811400Y-63705980D01*
X130049495Y-63705980D01*
X129097114Y-62801219D02*
X129049495Y-62753600D01*
X128954257Y-62705980D01*
X128716161Y-62705980D01*
X128620923Y-62753600D01*
X128573304Y-62801219D01*
X128525685Y-62896457D01*
X128525685Y-62991695D01*
X128573304Y-63134552D01*
X129144733Y-63705980D01*
X128525685Y-63705980D01*
X109729495Y-63705980D02*
X109729495Y-62705980D01*
X109491400Y-62705980D01*
X109348542Y-62753600D01*
X109253304Y-62848838D01*
X109205685Y-62944076D01*
X109158066Y-63134552D01*
X109158066Y-63277409D01*
X109205685Y-63467885D01*
X109253304Y-63563123D01*
X109348542Y-63658361D01*
X109491400Y-63705980D01*
X109729495Y-63705980D01*
X108205685Y-63705980D02*
X108777114Y-63705980D01*
X108491400Y-63705980D02*
X108491400Y-62705980D01*
X108586638Y-62848838D01*
X108681876Y-62944076D01*
X108777114Y-62991695D01*
X125642666Y-59412142D02*
X125690285Y-59459761D01*
X125833142Y-59507380D01*
X125928380Y-59507380D01*
X126071238Y-59459761D01*
X126166476Y-59364523D01*
X126214095Y-59269285D01*
X126261714Y-59078809D01*
X126261714Y-58935952D01*
X126214095Y-58745476D01*
X126166476Y-58650238D01*
X126071238Y-58555000D01*
X125928380Y-58507380D01*
X125833142Y-58507380D01*
X125690285Y-58555000D01*
X125642666Y-58602619D01*
X124785523Y-58840714D02*
X124785523Y-59507380D01*
X125023619Y-58459761D02*
X125261714Y-59174047D01*
X124642666Y-59174047D01*
X133770666Y-59158142D02*
X133818285Y-59205761D01*
X133961142Y-59253380D01*
X134056380Y-59253380D01*
X134199238Y-59205761D01*
X134294476Y-59110523D01*
X134342095Y-59015285D01*
X134389714Y-58824809D01*
X134389714Y-58681952D01*
X134342095Y-58491476D01*
X134294476Y-58396238D01*
X134199238Y-58301000D01*
X134056380Y-58253380D01*
X133961142Y-58253380D01*
X133818285Y-58301000D01*
X133770666Y-58348619D01*
X132865904Y-58253380D02*
X133342095Y-58253380D01*
X133389714Y-58729571D01*
X133342095Y-58681952D01*
X133246857Y-58634333D01*
X133008761Y-58634333D01*
X132913523Y-58681952D01*
X132865904Y-58729571D01*
X132818285Y-58824809D01*
X132818285Y-59062904D01*
X132865904Y-59158142D01*
X132913523Y-59205761D01*
X133008761Y-59253380D01*
X133246857Y-59253380D01*
X133342095Y-59205761D01*
X133389714Y-59158142D01*
X119029666Y-46711142D02*
X119077285Y-46758761D01*
X119220142Y-46806380D01*
X119315380Y-46806380D01*
X119458238Y-46758761D01*
X119553476Y-46663523D01*
X119601095Y-46568285D01*
X119648714Y-46377809D01*
X119648714Y-46234952D01*
X119601095Y-46044476D01*
X119553476Y-45949238D01*
X119458238Y-45854000D01*
X119315380Y-45806380D01*
X119220142Y-45806380D01*
X119077285Y-45854000D01*
X119029666Y-45901619D01*
X118696333Y-45806380D02*
X118029666Y-45806380D01*
X118458238Y-46806380D01*
X133977238Y-53125619D02*
X134072476Y-53078000D01*
X134167714Y-52982761D01*
X134310571Y-52839904D01*
X134405809Y-52792285D01*
X134501047Y-52792285D01*
X134453428Y-53030380D02*
X134548666Y-52982761D01*
X134643904Y-52887523D01*
X134691523Y-52697047D01*
X134691523Y-52363714D01*
X134643904Y-52173238D01*
X134548666Y-52078000D01*
X134453428Y-52030380D01*
X134262952Y-52030380D01*
X134167714Y-52078000D01*
X134072476Y-52173238D01*
X134024857Y-52363714D01*
X134024857Y-52697047D01*
X134072476Y-52887523D01*
X134167714Y-52982761D01*
X134262952Y-53030380D01*
X134453428Y-53030380D01*
X133072476Y-53030380D02*
X133643904Y-53030380D01*
X133358190Y-53030380D02*
X133358190Y-52030380D01*
X133453428Y-52173238D01*
X133548666Y-52268476D01*
X133643904Y-52316095D01*
X126587238Y-53085619D02*
X126682476Y-53038000D01*
X126777714Y-52942761D01*
X126920571Y-52799904D01*
X127015809Y-52752285D01*
X127111047Y-52752285D01*
X127063428Y-52990380D02*
X127158666Y-52942761D01*
X127253904Y-52847523D01*
X127301523Y-52657047D01*
X127301523Y-52323714D01*
X127253904Y-52133238D01*
X127158666Y-52038000D01*
X127063428Y-51990380D01*
X126872952Y-51990380D01*
X126777714Y-52038000D01*
X126682476Y-52133238D01*
X126634857Y-52323714D01*
X126634857Y-52657047D01*
X126682476Y-52847523D01*
X126777714Y-52942761D01*
X126872952Y-52990380D01*
X127063428Y-52990380D01*
X126253904Y-52085619D02*
X126206285Y-52038000D01*
X126111047Y-51990380D01*
X125872952Y-51990380D01*
X125777714Y-52038000D01*
X125730095Y-52085619D01*
X125682476Y-52180857D01*
X125682476Y-52276095D01*
X125730095Y-52418952D01*
X126301523Y-52990380D01*
X125682476Y-52990380D01*
X119038666Y-43124380D02*
X119372000Y-42648190D01*
X119610095Y-43124380D02*
X119610095Y-42124380D01*
X119229142Y-42124380D01*
X119133904Y-42172000D01*
X119086285Y-42219619D01*
X119038666Y-42314857D01*
X119038666Y-42457714D01*
X119086285Y-42552952D01*
X119133904Y-42600571D01*
X119229142Y-42648190D01*
X119610095Y-42648190D01*
X118657714Y-42219619D02*
X118610095Y-42172000D01*
X118514857Y-42124380D01*
X118276761Y-42124380D01*
X118181523Y-42172000D01*
X118133904Y-42219619D01*
X118086285Y-42314857D01*
X118086285Y-42410095D01*
X118133904Y-42552952D01*
X118705333Y-43124380D01*
X118086285Y-43124380D01*
X121070666Y-57856380D02*
X121404000Y-57380190D01*
X121642095Y-57856380D02*
X121642095Y-56856380D01*
X121261142Y-56856380D01*
X121165904Y-56904000D01*
X121118285Y-56951619D01*
X121070666Y-57046857D01*
X121070666Y-57189714D01*
X121118285Y-57284952D01*
X121165904Y-57332571D01*
X121261142Y-57380190D01*
X121642095Y-57380190D01*
X120737333Y-56856380D02*
X120118285Y-56856380D01*
X120451619Y-57237333D01*
X120308761Y-57237333D01*
X120213523Y-57284952D01*
X120165904Y-57332571D01*
X120118285Y-57427809D01*
X120118285Y-57665904D01*
X120165904Y-57761142D01*
X120213523Y-57808761D01*
X120308761Y-57856380D01*
X120594476Y-57856380D01*
X120689714Y-57808761D01*
X120737333Y-57761142D01*
X130428904Y-58888380D02*
X130428904Y-59697904D01*
X130381285Y-59793142D01*
X130333666Y-59840761D01*
X130238428Y-59888380D01*
X130047952Y-59888380D01*
X129952714Y-59840761D01*
X129905095Y-59793142D01*
X129857476Y-59697904D01*
X129857476Y-58888380D01*
X129428904Y-58983619D02*
X129381285Y-58936000D01*
X129286047Y-58888380D01*
X129047952Y-58888380D01*
X128952714Y-58936000D01*
X128905095Y-58983619D01*
X128857476Y-59078857D01*
X128857476Y-59174095D01*
X128905095Y-59316952D01*
X129476523Y-59888380D01*
X128857476Y-59888380D01*
X120649904Y-52792380D02*
X120649904Y-53601904D01*
X120602285Y-53697142D01*
X120554666Y-53744761D01*
X120459428Y-53792380D01*
X120268952Y-53792380D01*
X120173714Y-53744761D01*
X120126095Y-53697142D01*
X120078476Y-53601904D01*
X120078476Y-52792380D01*
X119697523Y-52792380D02*
X119078476Y-52792380D01*
X119411809Y-53173333D01*
X119268952Y-53173333D01*
X119173714Y-53220952D01*
X119126095Y-53268571D01*
X119078476Y-53363809D01*
X119078476Y-53601904D01*
X119126095Y-53697142D01*
X119173714Y-53744761D01*
X119268952Y-53792380D01*
X119554666Y-53792380D01*
X119649904Y-53744761D01*
X119697523Y-53697142D01*
M02*
