M48
; DRILL file {KiCad 5.1.5} date Tue 21 Jan 2020 04:15:32 PM EST
; FORMAT={-:-/ absolute / metric / decimal}
; #@! TF.CreationDate,2020-01-21T16:15:32-05:00
; #@! TF.GenerationSoftware,Kicad,Pcbnew,5.1.5
; #@! TF.FileFunction,NonPlated,1,2,NPTH
FMAT,2
METRIC
T1C1.700
T2C3.200
T3C4.000
%
G90
G05
T1
X170.18Y-152.4
X180.34Y-152.4
X109.22Y-152.4
X119.38Y-152.4
X109.22Y-71.12
X119.38Y-71.12
X129.54Y-132.08
X139.7Y-132.08
X149.86Y-111.76
X160.02Y-111.76
X149.86Y-91.44
X160.02Y-91.44
X109.22Y-111.76
X119.38Y-111.76
X129.54Y-152.4
X139.7Y-152.4
X149.86Y-152.4
X160.02Y-152.4
X149.86Y-71.12
X160.02Y-71.12
X109.22Y-132.08
X119.38Y-132.08
X129.54Y-111.76
X139.7Y-111.76
X149.86Y-152.4
X160.02Y-152.4
X109.22Y-91.44
X119.38Y-91.44
X170.18Y-111.76
X180.34Y-111.76
X170.18Y-91.44
X180.34Y-91.44
X170.18Y-132.08
X180.34Y-132.08
X129.54Y-71.12
X139.7Y-71.12
X170.18Y-71.12
X180.34Y-71.12
X149.86Y-132.08
X160.02Y-132.08
X129.54Y-91.44
X139.7Y-91.44
T2
X165.1Y-81.255
X124.46Y-81.255
X165.1Y-142.215
X124.46Y-142.215
X110.49Y-36.805
X179.07Y-36.805
T3
X175.26Y-91.44
X175.26Y-132.08
X134.62Y-71.12
X175.26Y-71.12
X154.94Y-132.08
X134.62Y-91.44
X175.26Y-152.4
X114.3Y-152.4
X114.3Y-71.12
X134.62Y-132.08
X154.94Y-111.76
X154.94Y-91.44
X114.3Y-111.76
X134.62Y-152.4
X154.94Y-152.4
X154.94Y-71.12
X114.3Y-132.08
X134.62Y-111.76
X154.94Y-152.4
X114.3Y-91.44
X175.26Y-111.76
T0
M30
