M48
; DRILL file {KiCad 5.1.5} date Tue 21 Jan 2020 04:15:32 PM EST
; FORMAT={-:-/ absolute / metric / decimal}
; #@! TF.CreationDate,2020-01-21T16:15:32-05:00
; #@! TF.GenerationSoftware,Kicad,Pcbnew,5.1.5
; #@! TF.FileFunction,Plated,1,2,PTH
FMAT,2
METRIC
T1C0.400
T2C0.650
T3C0.700
T4C0.800
T5C1.000
T6C1.300
T7C1.500
%
G90
G05
T1
X122.403Y-53.34
X132.08Y-54.864
X143.446Y-82.359
X144.716Y-102.616
X146.05Y-123.063
X147.193Y-143.256
X148.78Y-62.166
X167.64Y-47.752
T2
X139.7Y-39.37
X139.7Y-40.64
X140.97Y-39.37
X140.97Y-40.64
X142.24Y-39.37
X142.24Y-40.64
X143.51Y-39.37
X143.51Y-40.64
X144.78Y-39.37
X144.78Y-40.64
X146.05Y-39.37
X146.05Y-40.64
X147.32Y-39.37
X147.32Y-40.64
X148.59Y-39.37
X148.59Y-40.64
T4
X155.829Y-40.259
X160.709Y-40.259
T5
X174.6Y-45.39
X174.6Y-47.93
X174.6Y-50.47
X174.6Y-53.01
X174.6Y-55.55
X117.856Y-35.56
X120.356Y-35.56
T6
X125.636Y-36.148
X125.636Y-41.148
X135.636Y-38.648
T7
X171.45Y-129.54
X177.8Y-127.0
X130.81Y-68.58
X137.16Y-66.04
X171.45Y-68.58
X177.8Y-66.04
X151.13Y-129.54
X157.48Y-127.0
X130.81Y-88.9
X137.16Y-86.36
X171.45Y-149.86
X177.8Y-147.32
X110.49Y-149.86
X116.84Y-147.32
X110.49Y-68.58
X116.84Y-66.04
X130.81Y-129.54
X137.16Y-127.0
X151.13Y-109.22
X157.48Y-106.68
X151.13Y-88.9
X157.48Y-86.36
X110.49Y-109.22
X116.84Y-106.68
X130.81Y-149.86
X137.16Y-147.32
X151.13Y-149.86
X157.48Y-147.32
X151.13Y-68.58
X157.48Y-66.04
X110.49Y-129.54
X116.84Y-127.0
X130.81Y-109.22
X137.16Y-106.68
X151.13Y-149.86
X157.48Y-147.32
X110.49Y-88.9
X116.84Y-86.36
X171.45Y-109.22
X177.8Y-106.68
X171.45Y-88.9
X177.8Y-86.36
T2
G00X112.106Y-51.726
M15
G01X112.506Y-51.726
M16
G05
G00X112.106Y-56.566
M15
G01X112.506Y-56.566
M16
G05
T3
G00X109.056Y-51.416
M15
G01X109.556Y-51.416
M16
G05
G00X109.056Y-56.876
M15
G01X109.556Y-56.876
M16
G05
T0
M30
